{
	"patcher" : 	{
		"fileversion" : 1,
		"appversion" : 		{
			"major" : 6,
			"minor" : 1,
			"revision" : 7,
			"architecture" : "x86"
		}
,
		"rect" : [ 458.0, 53.0, 1159.0, 590.0 ],
		"bglocked" : 0,
		"openinpresentation" : 1,
		"default_fontsize" : 12.0,
		"default_fontface" : 0,
		"default_fontname" : "Arial",
		"gridonopen" : 0,
		"gridsize" : [ 15.0, 15.0 ],
		"gridsnaponopen" : 0,
		"statusbarvisible" : 2,
		"toolbarvisible" : 0,
		"boxanimatetime" : 200,
		"imprint" : 0,
		"enablehscroll" : 1,
		"enablevscroll" : 1,
		"devicewidth" : 0.0,
		"description" : "",
		"digest" : "",
		"tags" : "",
		"boxes" : [ 			{
				"box" : 				{
					"annotation" : "none",
					"args" : [ "visca.1" ],
					"border" : 1,
					"id" : "obj-4",
					"maxclass" : "bpatcher",
					"name" : "visca.view.maxpat",
					"numinlets" : 0,
					"numoutlets" : 0,
					"patching_rect" : [ 805.5, 286.0, 257.0, 76.0 ],
					"presentation" : 1,
					"presentation_rect" : [ 770.5, 224.25, 379.0, 356.25 ]
				}

			}
, 			{
				"box" : 				{
					"annotation" : "none",
					"args" : [ "cam.1" ],
					"border" : 1,
					"id" : "obj-2",
					"maxclass" : "bpatcher",
					"name" : "camera.view.maxpat",
					"numinlets" : 1,
					"numoutlets" : 0,
					"patching_rect" : [ 801.5, 138.0, 257.0, 76.0 ],
					"presentation" : 1,
					"presentation_rect" : [ 805.5, 133.0, 257.0, 76.0 ]
				}

			}
, 			{
				"box" : 				{
					"annotation" : "none",
					"args" : [ "clock.1" ],
					"border" : 1,
					"id" : "obj-1",
					"maxclass" : "bpatcher",
					"name" : "framemotor.view.maxpat",
					"numinlets" : 1,
					"numoutlets" : 0,
					"patching_rect" : [ 22.833313, 348.751038, 244.0, 101.0 ],
					"presentation" : 1,
					"presentation_rect" : [ 260.5, 474.0, 247.0, 60.0 ]
				}

			}
, 			{
				"box" : 				{
					"annotation" : "none",
					"args" : [ "syphonserver.1" ],
					"border" : 1,
					"id" : "obj-3",
					"maxclass" : "bpatcher",
					"name" : "syphonserver.view.maxpat",
					"numinlets" : 1,
					"numoutlets" : 0,
					"patching_rect" : [ 333.833313, 297.751038, 257.0, 76.0 ],
					"presentation" : 1,
					"presentation_rect" : [ 260.5, 328.0, 257.0, 47.0 ]
				}

			}
, 			{
				"box" : 				{
					"annotation" : "none",
					"args" : [ "sound.1" ],
					"border" : 1,
					"id" : "obj-8",
					"maxclass" : "bpatcher",
					"name" : "soundtrack.view.maxpat",
					"numinlets" : 1,
					"numoutlets" : 0,
					"patching_rect" : [ 333.833313, 393.0, 257.0, 76.0 ],
					"presentation" : 1,
					"presentation_rect" : [ 805.5, 58.0, 257.0, 76.0 ]
				}

			}
, 			{
				"box" : 				{
					"annotation" : "none",
					"args" : [ "lines.1", "rtvi" ],
					"border" : 1,
					"id" : "obj-36",
					"maxclass" : "bpatcher",
					"name" : "lines.view.maxpat",
					"numinlets" : 1,
					"numoutlets" : 0,
					"patching_rect" : [ 561.833313, 78.75, 257.0, 85.5 ],
					"presentation" : 1,
					"presentation_rect" : [ 515.5, 224.25, 248.0, 85.5 ]
				}

			}
, 			{
				"box" : 				{
					"annotation" : "none",
					"args" : [ "blur.1" ],
					"border" : 1,
					"id" : "obj-10",
					"maxclass" : "bpatcher",
					"name" : "blur.view.maxpat",
					"numinlets" : 1,
					"numoutlets" : 0,
					"patching_rect" : [ 305.833313, 78.75, 257.0, 85.5 ],
					"presentation" : 1,
					"presentation_rect" : [ 260.5, 224.25, 256.0, 85.5 ]
				}

			}
, 			{
				"box" : 				{
					"annotation" : "none",
					"args" : [ "hap.1" ],
					"border" : 1,
					"id" : "obj-13",
					"maxclass" : "bpatcher",
					"name" : "hap.view.maxpat",
					"numinlets" : 1,
					"numoutlets" : 0,
					"patching_rect" : [ 649.833313, 208.75, 426.0, 151.5 ],
					"presentation" : 1,
					"presentation_rect" : [ 381.5, 58.0, 425.0, 151.0 ]
				}

			}
, 			{
				"box" : 				{
					"annotation" : "none",
					"args" : [ "render.1" ],
					"border" : 1,
					"id" : "obj-15",
					"maxclass" : "bpatcher",
					"name" : "render.view.maxpat",
					"numinlets" : 1,
					"numoutlets" : 0,
					"patching_rect" : [ 22.833313, 248.751038, 244.0, 101.0 ],
					"presentation" : 1,
					"presentation_rect" : [ 516.5, 328.0, 247.0, 122.0 ]
				}

			}
, 			{
				"box" : 				{
					"annotation" : "none",
					"args" : [ "cc.1" ],
					"border" : 1,
					"id" : "obj-19",
					"maxclass" : "bpatcher",
					"name" : "color-control.view.maxpat",
					"numinlets" : 1,
					"numoutlets" : 0,
					"patching_rect" : [ 680.833313, 3.5, 243.0, 76.0 ],
					"presentation" : 1,
					"presentation_rect" : [ 5.5, 224.25, 256.0, 85.5 ]
				}

			}
, 			{
				"box" : 				{
					"annotation" : "none",
					"args" : [ "color.1" ],
					"border" : 1,
					"id" : "obj-21",
					"maxclass" : "bpatcher",
					"name" : "color.view.maxpat",
					"numinlets" : 1,
					"numoutlets" : 0,
					"patching_rect" : [ 561.833313, 3.5, 120.0, 76.0 ],
					"presentation" : 1,
					"presentation_rect" : [ 262.5, 58.0, 120.0, 76.0 ]
				}

			}
, 			{
				"box" : 				{
					"annotation" : "none",
					"args" : [ "noise.1" ],
					"border" : 1,
					"id" : "obj-25",
					"maxclass" : "bpatcher",
					"name" : "noise.view.maxpat",
					"numinlets" : 1,
					"numoutlets" : 0,
					"patching_rect" : [ 305.833313, 3.5, 257.0, 76.0 ],
					"presentation" : 1,
					"presentation_rect" : [ 6.5, 58.0, 257.0, 76.0 ]
				}

			}
, 			{
				"box" : 				{
					"annotation" : "none",
					"args" : [ "layer.1" ],
					"border" : 1,
					"id" : "obj-22",
					"maxclass" : "bpatcher",
					"name" : "plane.view.maxpat",
					"numinlets" : 1,
					"numoutlets" : 0,
					"patching_rect" : [ 333.833313, 176.751038, 257.0, 122.0 ],
					"presentation" : 1,
					"presentation_rect" : [ 5.5, 328.0, 256.0, 122.0 ]
				}

			}
, 			{
				"box" : 				{
					"annotation" : "none",
					"args" : [ "syphonclient.1" ],
					"border" : 1,
					"id" : "obj-23",
					"maxclass" : "bpatcher",
					"name" : "syphonclient.view.maxpat",
					"numinlets" : 1,
					"numoutlets" : 0,
					"patching_rect" : [ 922.833313, 3.5, 257.0, 76.0 ],
					"presentation" : 1,
					"presentation_rect" : [ 6.5, 133.0, 257.0, 76.0 ]
				}

			}
, 			{
				"box" : 				{
					"fontname" : "Arial",
					"fontsize" : 12.0,
					"frgb" : 0.0,
					"id" : "obj-12",
					"maxclass" : "comment",
					"numinlets" : 1,
					"numoutlets" : 0,
					"patching_rect" : [ 127.5, 21.0, 68.0, 20.0 ],
					"presentation" : 1,
					"presentation_rect" : [ 105.5, 4.0, 68.0, 20.0 ],
					"text" : "Art TV Eye"
				}

			}
, 			{
				"box" : 				{
					"fontname" : "Arial",
					"fontsize" : 12.0,
					"frgb" : 0.0,
					"id" : "obj-20",
					"maxclass" : "comment",
					"numinlets" : 1,
					"numoutlets" : 0,
					"patching_rect" : [ 127.5, 41.0, 158.0, 20.0 ],
					"presentation" : 1,
					"presentation_rect" : [ 105.5, 31.0, 158.0, 20.0 ],
					"text" : "Real Time Video Instrument"
				}

			}
, 			{
				"box" : 				{
					"color" : [ 0.0, 0.572549, 0.811765, 1.0 ],
					"fontname" : "Arial",
					"fontsize" : 12.0,
					"id" : "obj-11",
					"maxclass" : "newobj",
					"numinlets" : 1,
					"numoutlets" : 0,
					"patching_rect" : [ 22.833313, 73.0, 76.0, 20.0 ],
					"text" : "s rtvi/engine"
				}

			}
, 			{
				"box" : 				{
					"fontname" : "Arial",
					"fontsize" : 12.0,
					"id" : "obj-41",
					"maxclass" : "newobj",
					"numinlets" : 1,
					"numoutlets" : 0,
					"patcher" : 					{
						"fileversion" : 1,
						"appversion" : 						{
							"major" : 6,
							"minor" : 1,
							"revision" : 7,
							"architecture" : "x86"
						}
,
						"rect" : [ 1072.0, 468.0, 689.0, 428.0 ],
						"bglocked" : 0,
						"openinpresentation" : 0,
						"default_fontsize" : 12.0,
						"default_fontface" : 0,
						"default_fontname" : "Arial",
						"gridonopen" : 0,
						"gridsize" : [ 15.0, 15.0 ],
						"gridsnaponopen" : 0,
						"statusbarvisible" : 2,
						"toolbarvisible" : 1,
						"boxanimatetime" : 200,
						"imprint" : 0,
						"enablehscroll" : 1,
						"enablevscroll" : 1,
						"devicewidth" : 0.0,
						"description" : "",
						"digest" : "",
						"tags" : "",
						"boxes" : [ 							{
								"box" : 								{
									"fontname" : "Arial",
									"fontsize" : 12.0,
									"id" : "obj-7",
									"maxclass" : "newobj",
									"numinlets" : 1,
									"numoutlets" : 1,
									"outlettype" : [ "" ],
									"patching_rect" : [ 11.0, 229.0, 56.0, 20.0 ],
									"text" : "deferlow"
								}

							}
, 							{
								"box" : 								{
									"id" : "obj-6",
									"maxclass" : "button",
									"numinlets" : 1,
									"numoutlets" : 1,
									"outlettype" : [ "bang" ],
									"patching_rect" : [ 25.0, 164.0, 20.0, 20.0 ]
								}

							}
, 							{
								"box" : 								{
									"fontname" : "Arial",
									"fontsize" : 12.0,
									"id" : "obj-1",
									"maxclass" : "newobj",
									"numinlets" : 1,
									"numoutlets" : 2,
									"outlettype" : [ "bang", "bang" ],
									"patching_rect" : [ 11.0, 196.0, 191.0, 20.0 ],
									"text" : "b"
								}

							}
, 							{
								"box" : 								{
									"fontname" : "Arial",
									"fontsize" : 12.0,
									"id" : "obj-39",
									"maxclass" : "newobj",
									"numinlets" : 2,
									"numoutlets" : 2,
									"outlettype" : [ "bang", "" ],
									"patching_rect" : [ 11.0, 43.0, 138.0, 20.0 ],
									"text" : "sel 0"
								}

							}
, 							{
								"box" : 								{
									"fontname" : "Arial",
									"fontsize" : 12.0,
									"id" : "obj-35",
									"maxclass" : "newobj",
									"numinlets" : 1,
									"numoutlets" : 1,
									"outlettype" : [ "" ],
									"patching_rect" : [ 12.0, 365.0, 97.0, 20.0 ],
									"text" : "j.send sine.1:init"
								}

							}
, 							{
								"box" : 								{
									"fontname" : "Arial",
									"fontsize" : 12.0,
									"id" : "obj-30",
									"maxclass" : "newobj",
									"numinlets" : 1,
									"numoutlets" : 1,
									"outlettype" : [ "" ],
									"patching_rect" : [ 31.0, 335.0, 99.0, 20.0 ],
									"text" : "j.send rand.2:init"
								}

							}
, 							{
								"box" : 								{
									"fontname" : "Arial",
									"fontsize" : 12.0,
									"id" : "obj-20",
									"maxclass" : "newobj",
									"numinlets" : 1,
									"numoutlets" : 1,
									"outlettype" : [ "" ],
									"patching_rect" : [ 39.0, 305.0, 99.0, 20.0 ],
									"text" : "j.send rand.1:init"
								}

							}
, 							{
								"box" : 								{
									"fontname" : "Arial",
									"fontsize" : 12.0,
									"id" : "obj-10",
									"maxclass" : "newobj",
									"numinlets" : 1,
									"numoutlets" : 1,
									"outlettype" : [ "" ],
									"patching_rect" : [ 62.0, 275.0, 103.0, 20.0 ],
									"text" : "j.send slider.1:init"
								}

							}
, 							{
								"box" : 								{
									"fontname" : "Arial",
									"fontsize" : 12.0,
									"id" : "obj-16",
									"linecount" : 4,
									"maxclass" : "message",
									"numinlets" : 2,
									"numoutlets" : 1,
									"outlettype" : [ "" ],
									"patching_rect" : [ 183.0, 229.0, 239.0, 58.0 ],
									"text" : ";\rpolymap 0 /rand.1/val/map.1;\rpolymap 0 /slider.1/val/map.1;\rpolymap 0 /rand.2/val/map.1;\r"
								}

							}
, 							{
								"box" : 								{
									"fontname" : "Arial",
									"fontsize" : 12.0,
									"id" : "obj-52",
									"linecount" : 8,
									"maxclass" : "message",
									"numinlets" : 2,
									"numoutlets" : 1,
									"outlettype" : [ "" ],
									"patching_rect" : [ 130.0, 72.0, 518.0, 112.0 ],
									"text" : ";\rrand.1/sw 1;\rrand.2/sw 1;\rsine.1/sw 1;\rslider.1/sw 1;\rpolymap 1 /rand.1/val/map.1 /rand.1/val /sine.1/freq 0. 1. 100 5000 exponential base 2.718282;\rpolymap 1 /slider.1/val/map.1 /slider.1/val /sine.1/vol 0. 1 0 1 exponential base 2.718282;\rpolymap 1 /rand.2/val/map.1 /rand.2/val /slider.1/slider 0. 1. 0 1 exponential base 2.718282;\r"
								}

							}
, 							{
								"box" : 								{
									"comment" : "",
									"id" : "obj-40",
									"maxclass" : "inlet",
									"numinlets" : 0,
									"numoutlets" : 1,
									"outlettype" : [ "" ],
									"patching_rect" : [ 11.0, 6.0, 25.0, 25.0 ]
								}

							}
 ],
						"lines" : [ 							{
								"patchline" : 								{
									"destination" : [ "obj-16", 0 ],
									"disabled" : 0,
									"hidden" : 0,
									"source" : [ "obj-1", 1 ]
								}

							}
, 							{
								"patchline" : 								{
									"destination" : [ "obj-7", 0 ],
									"disabled" : 0,
									"hidden" : 0,
									"source" : [ "obj-1", 0 ]
								}

							}
, 							{
								"patchline" : 								{
									"destination" : [ "obj-1", 0 ],
									"disabled" : 0,
									"hidden" : 0,
									"source" : [ "obj-39", 0 ]
								}

							}
, 							{
								"patchline" : 								{
									"destination" : [ "obj-52", 0 ],
									"disabled" : 0,
									"hidden" : 0,
									"source" : [ "obj-39", 1 ]
								}

							}
, 							{
								"patchline" : 								{
									"destination" : [ "obj-39", 0 ],
									"disabled" : 0,
									"hidden" : 0,
									"source" : [ "obj-40", 0 ]
								}

							}
, 							{
								"patchline" : 								{
									"destination" : [ "obj-1", 0 ],
									"disabled" : 0,
									"hidden" : 0,
									"source" : [ "obj-6", 0 ]
								}

							}
, 							{
								"patchline" : 								{
									"destination" : [ "obj-10", 0 ],
									"disabled" : 0,
									"hidden" : 0,
									"source" : [ "obj-7", 0 ]
								}

							}
, 							{
								"patchline" : 								{
									"destination" : [ "obj-20", 0 ],
									"disabled" : 0,
									"hidden" : 0,
									"source" : [ "obj-7", 0 ]
								}

							}
, 							{
								"patchline" : 								{
									"destination" : [ "obj-30", 0 ],
									"disabled" : 0,
									"hidden" : 0,
									"source" : [ "obj-7", 0 ]
								}

							}
, 							{
								"patchline" : 								{
									"destination" : [ "obj-35", 0 ],
									"disabled" : 0,
									"hidden" : 0,
									"source" : [ "obj-7", 0 ]
								}

							}
 ]
					}
,
					"patching_rect" : [ 97.5, 187.0, 157.0, 20.0 ],
					"saved_object_attributes" : 					{
						"default_fontface" : 0,
						"default_fontname" : "Arial",
						"default_fontsize" : 12.0,
						"description" : "",
						"digest" : "",
						"fontface" : 0,
						"fontname" : "Arial",
						"fontsize" : 12.0,
						"globalpatchername" : "",
						"tags" : ""
					}
,
					"text" : "p mapping_command_lines"
				}

			}
, 			{
				"box" : 				{
					"fontname" : "Arial",
					"fontsize" : 24.0,
					"id" : "obj-38",
					"maxclass" : "textbutton",
					"mode" : 1,
					"numinlets" : 1,
					"numoutlets" : 3,
					"outlettype" : [ "", "", "int" ],
					"parameter_enable" : 0,
					"patching_rect" : [ 97.5, 143.0, 211.0, 33.0 ],
					"text" : "MAPPING IS OFF",
					"texton" : "MAPPING IS ON"
				}

			}
, 			{
				"box" : 				{
					"color" : [ 0.0, 0.572549, 0.0, 1.0 ],
					"fontname" : "Arial",
					"fontsize" : 14.0,
					"id" : "obj-5",
					"maxclass" : "newobj",
					"numinlets" : 0,
					"numoutlets" : 0,
					"patcher" : 					{
						"fileversion" : 1,
						"appversion" : 						{
							"major" : 6,
							"minor" : 1,
							"revision" : 7,
							"architecture" : "x86"
						}
,
						"rect" : [ 38.0, 519.0, 403.0, 137.0 ],
						"bglocked" : 0,
						"openinpresentation" : 0,
						"default_fontsize" : 12.0,
						"default_fontface" : 0,
						"default_fontname" : "Helvetica Neue Light Italic",
						"gridonopen" : 0,
						"gridsize" : [ 15.0, 15.0 ],
						"gridsnaponopen" : 0,
						"statusbarvisible" : 2,
						"toolbarvisible" : 0,
						"boxanimatetime" : 200,
						"imprint" : 0,
						"enablehscroll" : 1,
						"enablevscroll" : 1,
						"devicewidth" : 0.0,
						"description" : "",
						"digest" : "",
						"tags" : "",
						"boxes" : [ 							{
								"box" : 								{
									"color" : [ 0.0, 0.572549, 0.0, 1.0 ],
									"fontname" : "Arial",
									"fontsize" : 14.0,
									"id" : "obj-2",
									"maxclass" : "newobj",
									"numinlets" : 0,
									"numoutlets" : 0,
									"patcher" : 									{
										"fileversion" : 1,
										"appversion" : 										{
											"major" : 6,
											"minor" : 1,
											"revision" : 7,
											"architecture" : "x86"
										}
,
										"rect" : [ 76.0, 483.0, 316.0, 97.0 ],
										"bglocked" : 0,
										"openinpresentation" : 0,
										"default_fontsize" : 12.0,
										"default_fontface" : 0,
										"default_fontname" : "Helvetica Neue Light Italic",
										"gridonopen" : 0,
										"gridsize" : [ 15.0, 15.0 ],
										"gridsnaponopen" : 0,
										"statusbarvisible" : 2,
										"toolbarvisible" : 1,
										"boxanimatetime" : 200,
										"imprint" : 0,
										"enablehscroll" : 1,
										"enablevscroll" : 1,
										"devicewidth" : 0.0,
										"description" : "",
										"digest" : "",
										"tags" : "",
										"boxes" : [ 											{
												"box" : 												{
													"fontname" : "Helvetica Neue Light Italic",
													"fontsize" : 12.0,
													"id" : "obj-2",
													"maxclass" : "newobj",
													"numinlets" : 1,
													"numoutlets" : 0,
													"patching_rect" : [ 134.416626, 16.0, 150.0, 20.0 ],
													"text" : "print TO_ARDUINO_VISCA"
												}

											}
, 											{
												"box" : 												{
													"annotation" : "none",
													"fontname" : "Helvetica Neue Light Italic",
													"fontsize" : 12.0,
													"id" : "obj-5",
													"maxclass" : "newobj",
													"numinlets" : 1,
													"numoutlets" : 2,
													"outlettype" : [ "", "" ],
													"patching_rect" : [ 15.416626, 16.0, 111.0, 20.0 ],
													"text" : "visca.model visca.1"
												}

											}
, 											{
												"box" : 												{
													"color" : [ 1.0, 1.0, 0.4, 1.0 ],
													"fontname" : "Arial",
													"fontsize" : 12.0,
													"id" : "obj-1",
													"maxclass" : "newobj",
													"numinlets" : 1,
													"numoutlets" : 0,
													"patching_rect" : [ 15.416626, 46.417175, 166.0, 20.0 ],
													"text" : "udpsend 192.168.0.111 8888"
												}

											}
 ],
										"lines" : [ 											{
												"patchline" : 												{
													"destination" : [ "obj-1", 0 ],
													"disabled" : 0,
													"hidden" : 0,
													"source" : [ "obj-5", 0 ]
												}

											}
, 											{
												"patchline" : 												{
													"destination" : [ "obj-2", 0 ],
													"disabled" : 0,
													"hidden" : 0,
													"source" : [ "obj-5", 0 ]
												}

											}
 ]
									}
,
									"patching_rect" : [ 91.333313, 27.75, 63.0, 22.0 ],
									"saved_object_attributes" : 									{
										"default_fontface" : 0,
										"default_fontname" : "Helvetica Neue Light Italic",
										"default_fontsize" : 12.0,
										"description" : "",
										"digest" : "",
										"fontface" : 0,
										"fontname" : "Helvetica Neue Light Italic",
										"fontsize" : 12.0,
										"globalpatchername" : "",
										"tags" : ""
									}
,
									"text" : "p visca"
								}

							}
, 							{
								"box" : 								{
									"fontname" : "Arial",
									"fontsize" : 18.0,
									"frgb" : 0.0,
									"id" : "obj-25",
									"maxclass" : "comment",
									"numinlets" : 1,
									"numoutlets" : 0,
									"patching_rect" : [ 178.0, 68.5, 136.0, 27.0 ],
									"text" : "Sound Tracking"
								}

							}
, 							{
								"box" : 								{
									"annotation" : "Audio Analyse tool",
									"color" : [ 0.572549, 0.0, 0.0, 0.5 ],
									"fontname" : "Arial",
									"fontsize" : 14.0,
									"id" : "obj-26",
									"maxclass" : "newobj",
									"numinlets" : 1,
									"numoutlets" : 1,
									"outlettype" : [ "" ],
									"patching_rect" : [ 13.0, 89.25, 177.0, 22.0 ],
									"text" : "soundtrack.model sound.1"
								}

							}
, 							{
								"box" : 								{
									"fontname" : "Arial",
									"fontsize" : 12.0,
									"id" : "obj-17",
									"maxclass" : "message",
									"numinlets" : 2,
									"numoutlets" : 1,
									"outlettype" : [ "" ],
									"patching_rect" : [ 318.333313, 32.376068, 35.0, 18.0 ],
									"text" : "front"
								}

							}
, 							{
								"box" : 								{
									"fontname" : "Arial",
									"fontsize" : 12.0,
									"id" : "obj-16",
									"maxclass" : "newobj",
									"numinlets" : 1,
									"numoutlets" : 2,
									"outlettype" : [ "", "" ],
									"patching_rect" : [ 318.333313, 62.126068, 69.0, 20.0 ],
									"save" : [ "#N", "thispatcher", ";", "#Q", "end", ";" ],
									"text" : "thispatcher"
								}

							}
, 							{
								"box" : 								{
									"fontname" : "Arial",
									"fontsize" : 12.0,
									"id" : "obj-11",
									"maxclass" : "newobj",
									"numinlets" : 0,
									"numoutlets" : 1,
									"outlettype" : [ "" ],
									"patching_rect" : [ 318.333313, 6.0, 76.0, 20.0 ],
									"text" : "r rtvi/engine"
								}

							}
, 							{
								"box" : 								{
									"fontname" : "Arial",
									"fontsize" : 18.0,
									"frgb" : 0.0,
									"id" : "obj-8",
									"maxclass" : "comment",
									"numinlets" : 1,
									"numoutlets" : 0,
									"patching_rect" : [ 174.0, 7.0, 139.0, 27.0 ],
									"text" : "OpenGL Engine"
								}

							}
, 							{
								"box" : 								{
									"color" : [ 0.0, 0.572549, 0.0, 1.0 ],
									"fontname" : "Arial",
									"fontsize" : 14.0,
									"id" : "obj-7",
									"maxclass" : "newobj",
									"numinlets" : 0,
									"numoutlets" : 0,
									"patcher" : 									{
										"fileversion" : 1,
										"appversion" : 										{
											"major" : 6,
											"minor" : 1,
											"revision" : 7,
											"architecture" : "x86"
										}
,
										"rect" : [ 25.0, 69.0, 925.0, 569.0 ],
										"bglocked" : 0,
										"openinpresentation" : 0,
										"default_fontsize" : 12.0,
										"default_fontface" : 0,
										"default_fontname" : "Helvetica Neue Light Italic",
										"gridonopen" : 0,
										"gridsize" : [ 15.0, 15.0 ],
										"gridsnaponopen" : 0,
										"statusbarvisible" : 2,
										"toolbarvisible" : 1,
										"boxanimatetime" : 200,
										"imprint" : 0,
										"enablehscroll" : 1,
										"enablevscroll" : 1,
										"devicewidth" : 0.0,
										"description" : "",
										"digest" : "",
										"tags" : "",
										"boxes" : [ 											{
												"box" : 												{
													"fontname" : "Arial",
													"fontsize" : 12.0,
													"frgb" : 0.0,
													"id" : "obj-2",
													"linecount" : 3,
													"maxclass" : "comment",
													"numinlets" : 1,
													"numoutlets" : 0,
													"patching_rect" : [ 39.0, 326.0, 839.0, 47.0 ],
													"text" : "JCUE\nIl y a un probleme avec la nottion de  namespace lié aux cues. C'est super, mais ce dont j'ai besoin est de définir plusieurs namespace… \nMon problème est pour sauvegarder le namespace quelque part… je ne trouve pas de moyen de sauver la liste du namespace utilisé."
												}

											}
, 											{
												"box" : 												{
													"fontname" : "Arial",
													"fontsize" : 12.0,
													"frgb" : 0.0,
													"id" : "obj-1",
													"linecount" : 3,
													"maxclass" : "comment",
													"numinlets" : 1,
													"numoutlets" : 0,
													"patching_rect" : [ 39.0, 229.0, 839.0, 47.0 ],
													"text" : "JCUE\nfaire un coll/dict qui recence toutes les mémoires, jouées, leur temps de rampe et ainsi donc leur activité. Et montrer tout cela sur un multislider et/ou sur un jit.cellblock ou même en openGL"
												}

											}
, 											{
												"box" : 												{
													"fontname" : "Arial",
													"fontsize" : 12.0,
													"frgb" : 0.0,
													"id" : "obj-32",
													"maxclass" : "comment",
													"numinlets" : 1,
													"numoutlets" : 0,
													"patching_rect" : [ 39.0, 33.0, 45.0, 20.0 ],
													"text" : "TODO"
												}

											}
, 											{
												"box" : 												{
													"fontname" : "Arial",
													"fontsize" : 12.0,
													"frgb" : 0.0,
													"id" : "obj-31",
													"linecount" : 2,
													"maxclass" : "comment",
													"numinlets" : 1,
													"numoutlets" : 0,
													"patching_rect" : [ 39.0, 66.0, 220.0, 33.0 ],
													"text" : "possibilité de faire des cues des modules dont le parametre sw est sur 1"
												}

											}
, 											{
												"box" : 												{
													"fontname" : "Arial",
													"fontsize" : 12.0,
													"frgb" : 0.0,
													"id" : "obj-51",
													"linecount" : 7,
													"maxclass" : "comment",
													"numinlets" : 1,
													"numoutlets" : 0,
													"patching_rect" : [ 39.0, 104.0, 111.0, 100.0 ],
													"text" : "cliquer sur le nom peux le faire passer en couleur. Alors un temps est défini pour toute action sur ce paramètre"
												}

											}
 ],
										"lines" : [  ]
									}
,
									"patching_rect" : [ 318.333313, 95.5, 63.0, 22.0 ],
									"saved_object_attributes" : 									{
										"default_fontface" : 0,
										"default_fontname" : "Helvetica Neue Light Italic",
										"default_fontsize" : 12.0,
										"description" : "",
										"digest" : "",
										"fontface" : 0,
										"fontname" : "Helvetica Neue Light Italic",
										"fontsize" : 12.0,
										"globalpatchername" : "",
										"tags" : ""
									}
,
									"text" : "p TODO"
								}

							}
, 							{
								"box" : 								{
									"color" : [ 0.0, 0.572549, 0.0, 1.0 ],
									"fontname" : "Arial",
									"fontsize" : 14.0,
									"id" : "obj-48",
									"maxclass" : "newobj",
									"numinlets" : 0,
									"numoutlets" : 0,
									"patcher" : 									{
										"fileversion" : 1,
										"appversion" : 										{
											"major" : 6,
											"minor" : 1,
											"revision" : 7,
											"architecture" : "x86"
										}
,
										"rect" : [ 23.0, 283.0, 629.0, 431.0 ],
										"bglocked" : 0,
										"openinpresentation" : 0,
										"default_fontsize" : 12.0,
										"default_fontface" : 0,
										"default_fontname" : "Helvetica Neue Light Italic",
										"gridonopen" : 0,
										"gridsize" : [ 15.0, 15.0 ],
										"gridsnaponopen" : 0,
										"statusbarvisible" : 2,
										"toolbarvisible" : 0,
										"boxanimatetime" : 200,
										"imprint" : 0,
										"enablehscroll" : 1,
										"enablevscroll" : 1,
										"devicewidth" : 0.0,
										"description" : "",
										"digest" : "",
										"tags" : "",
										"boxes" : [ 											{
												"box" : 												{
													"annotation" : "camera grabber",
													"color" : [ 0.572549, 0.0, 0.0, 0.5 ],
													"fontname" : "Helvetica Neue Light Italic",
													"fontsize" : 12.0,
													"id" : "obj-5",
													"maxclass" : "newobj",
													"numinlets" : 1,
													"numoutlets" : 1,
													"outlettype" : [ "" ],
													"patching_rect" : [ 395.0, 94.510742, 139.0, 20.0 ],
													"text" : "camera.model cam.1 rtvi"
												}

											}
, 											{
												"box" : 												{
													"fontname" : "Arial",
													"fontsize" : 12.0,
													"frgb" : 0.0,
													"id" : "obj-23",
													"maxclass" : "comment",
													"numinlets" : 1,
													"numoutlets" : 0,
													"patching_rect" : [ 543.5, 364.625, 65.0, 20.0 ],
													"text" : "jit.gl.nurbs"
												}

											}
, 											{
												"box" : 												{
													"fontname" : "Arial",
													"fontsize" : 12.0,
													"frgb" : 0.0,
													"id" : "obj-13",
													"maxclass" : "comment",
													"numinlets" : 1,
													"numoutlets" : 0,
													"patching_rect" : [ 324.0, 261.647552, 77.0, 20.0 ],
													"text" : "jit.gl.multiple"
												}

											}
, 											{
												"box" : 												{
													"color" : [ 0.572549, 0.0, 0.0, 0.5 ],
													"fontname" : "Helvetica Neue Light Italic",
													"fontsize" : 12.0,
													"id" : "obj-7",
													"maxclass" : "newobj",
													"numinlets" : 1,
													"numoutlets" : 1,
													"outlettype" : [ "" ],
													"patching_rect" : [ 324.0, 63.897552, 181.0, 20.0 ],
													"text" : "poly~ hap.model 5 args hap rtvi"
												}

											}
, 											{
												"box" : 												{
													"color" : [ 0.0, 0.572549, 0.0, 1.0 ],
													"fontname" : "Arial",
													"fontsize" : 14.0,
													"id" : "obj-17",
													"maxclass" : "newobj",
													"numinlets" : 0,
													"numoutlets" : 0,
													"patcher" : 													{
														"fileversion" : 1,
														"appversion" : 														{
															"major" : 6,
															"minor" : 1,
															"revision" : 7,
															"architecture" : "x86"
														}
,
														"rect" : [ 333.0, 544.0, 365.0, 384.0 ],
														"bglocked" : 0,
														"openinpresentation" : 0,
														"default_fontsize" : 12.0,
														"default_fontface" : 0,
														"default_fontname" : "Arial",
														"gridonopen" : 0,
														"gridsize" : [ 15.0, 15.0 ],
														"gridsnaponopen" : 0,
														"statusbarvisible" : 2,
														"toolbarvisible" : 1,
														"boxanimatetime" : 200,
														"imprint" : 0,
														"enablehscroll" : 1,
														"enablevscroll" : 1,
														"devicewidth" : 0.0,
														"description" : "",
														"digest" : "",
														"tags" : "",
														"boxes" : [ 															{
																"box" : 																{
																	"fontname" : "Arial",
																	"fontsize" : 12.0,
																	"id" : "obj-19",
																	"maxclass" : "newobj",
																	"numinlets" : 1,
																	"numoutlets" : 1,
																	"outlettype" : [ "" ],
																	"patcher" : 																	{
																		"fileversion" : 1,
																		"appversion" : 																		{
																			"major" : 6,
																			"minor" : 1,
																			"revision" : 7,
																			"architecture" : "x86"
																		}
,
																		"rect" : [ 0.0, 0.0, 640.0, 480.0 ],
																		"bglocked" : 0,
																		"openinpresentation" : 0,
																		"default_fontsize" : 12.0,
																		"default_fontface" : 0,
																		"default_fontname" : "Arial",
																		"gridonopen" : 0,
																		"gridsize" : [ 15.0, 15.0 ],
																		"gridsnaponopen" : 0,
																		"statusbarvisible" : 2,
																		"toolbarvisible" : 1,
																		"boxanimatetime" : 200,
																		"imprint" : 0,
																		"enablehscroll" : 1,
																		"enablevscroll" : 1,
																		"devicewidth" : 0.0,
																		"description" : "",
																		"digest" : "",
																		"tags" : "",
																		"boxes" : [ 																			{
																				"box" : 																				{
																					"fontname" : "Arial",
																					"fontsize" : 12.0,
																					"id" : "obj-16",
																					"maxclass" : "newobj",
																					"numinlets" : 1,
																					"numoutlets" : 1,
																					"outlettype" : [ "" ],
																					"patching_rect" : [ 50.0, 139.248962, 56.0, 20.0 ],
																					"text" : "deferlow"
																				}

																			}
, 																			{
																				"box" : 																				{
																					"fontname" : "Arial",
																					"fontsize" : 12.0,
																					"id" : "obj-15",
																					"maxclass" : "newobj",
																					"numinlets" : 1,
																					"numoutlets" : 1,
																					"outlettype" : [ "" ],
																					"patching_rect" : [ 50.0, 120.0, 56.0, 20.0 ],
																					"text" : "deferlow"
																				}

																			}
, 																			{
																				"box" : 																				{
																					"fontname" : "Arial",
																					"fontsize" : 12.0,
																					"id" : "obj-14",
																					"maxclass" : "newobj",
																					"numinlets" : 1,
																					"numoutlets" : 1,
																					"outlettype" : [ "" ],
																					"patching_rect" : [ 50.0, 100.0, 56.0, 20.0 ],
																					"text" : "deferlow"
																				}

																			}
, 																			{
																				"box" : 																				{
																					"comment" : "",
																					"id" : "obj-17",
																					"maxclass" : "inlet",
																					"numinlets" : 0,
																					"numoutlets" : 1,
																					"outlettype" : [ "bang" ],
																					"patching_rect" : [ 50.0, 40.0, 25.0, 25.0 ]
																				}

																			}
, 																			{
																				"box" : 																				{
																					"comment" : "",
																					"id" : "obj-18",
																					"maxclass" : "outlet",
																					"numinlets" : 1,
																					"numoutlets" : 0,
																					"patching_rect" : [ 50.0, 219.248962, 25.0, 25.0 ]
																				}

																			}
 ],
																		"lines" : [ 																			{
																				"patchline" : 																				{
																					"destination" : [ "obj-15", 0 ],
																					"disabled" : 0,
																					"hidden" : 0,
																					"source" : [ "obj-14", 0 ]
																				}

																			}
, 																			{
																				"patchline" : 																				{
																					"destination" : [ "obj-16", 0 ],
																					"disabled" : 0,
																					"hidden" : 0,
																					"source" : [ "obj-15", 0 ]
																				}

																			}
, 																			{
																				"patchline" : 																				{
																					"destination" : [ "obj-18", 0 ],
																					"disabled" : 0,
																					"hidden" : 0,
																					"source" : [ "obj-16", 0 ]
																				}

																			}
, 																			{
																				"patchline" : 																				{
																					"destination" : [ "obj-14", 0 ],
																					"disabled" : 0,
																					"hidden" : 0,
																					"source" : [ "obj-17", 0 ]
																				}

																			}
 ]
																	}
,
																	"patching_rect" : [ 139.0, 41.248962, 56.0, 20.0 ],
																	"saved_object_attributes" : 																	{
																		"default_fontface" : 0,
																		"default_fontname" : "Arial",
																		"default_fontsize" : 12.0,
																		"description" : "",
																		"digest" : "",
																		"fontface" : 0,
																		"fontname" : "Arial",
																		"fontsize" : 12.0,
																		"globalpatchername" : "",
																		"tags" : ""
																	}
,
																	"text" : "p"
																}

															}
, 															{
																"box" : 																{
																	"fontname" : "Arial",
																	"fontsize" : 12.0,
																	"id" : "obj-11",
																	"maxclass" : "newobj",
																	"numinlets" : 1,
																	"numoutlets" : 1,
																	"outlettype" : [ "bang" ],
																	"patching_rect" : [ 139.0, 14.748962, 61.0, 20.0 ],
																	"text" : "loadbang"
																}

															}
, 															{
																"box" : 																{
																	"color" : [ 0.0, 0.572549, 0.811765, 1.0 ],
																	"fontname" : "Arial",
																	"fontsize" : 12.0,
																	"id" : "obj-7",
																	"maxclass" : "newobj",
																	"numinlets" : 0,
																	"numoutlets" : 1,
																	"outlettype" : [ "" ],
																	"patching_rect" : [ 20.0, 14.748962, 66.0, 20.0 ],
																	"text" : "r /span/init"
																}

															}
, 															{
																"box" : 																{
																	"id" : "obj-9",
																	"maxclass" : "button",
																	"numinlets" : 1,
																	"numoutlets" : 1,
																	"outlettype" : [ "bang" ],
																	"patching_rect" : [ 93.333313, 14.748962, 20.0, 20.0 ]
																}

															}
, 															{
																"box" : 																{
																	"fontname" : "Arial",
																	"fontsize" : 12.0,
																	"id" : "obj-4",
																	"maxclass" : "newobj",
																	"numinlets" : 1,
																	"numoutlets" : 1,
																	"outlettype" : [ "" ],
																	"patching_rect" : [ 20.0, 52.248962, 56.0, 20.0 ],
																	"text" : "deferlow"
																}

															}
, 															{
																"box" : 																{
																	"color" : [ 0.0, 0.572549, 0.811765, 1.0 ],
																	"fontname" : "Arial",
																	"fontsize" : 12.0,
																	"id" : "obj-10",
																	"maxclass" : "newobj",
																	"numinlets" : 1,
																	"numoutlets" : 0,
																	"patching_rect" : [ 20.0, 80.497925, 131.0, 20.0 ],
																	"text" : "s rtvi/texturelist/refresh"
																}

															}
, 															{
																"box" : 																{
																	"fontname" : "Arial",
																	"fontsize" : 12.0,
																	"frgb" : 0.0,
																	"id" : "obj-6",
																	"linecount" : 2,
																	"maxclass" : "comment",
																	"numinlets" : 1,
																	"numoutlets" : 0,
																	"patching_rect" : [ 197.0, 311.5, 150.0, 33.0 ],
																	"text" : "il faut faire une liste de matrix aussi"
																}

															}
, 															{
																"box" : 																{
																	"fontname" : "Arial",
																	"fontsize" : 12.0,
																	"frgb" : 0.0,
																	"id" : "obj-5",
																	"linecount" : 4,
																	"maxclass" : "comment",
																	"numinlets" : 1,
																	"numoutlets" : 0,
																	"patching_rect" : [ 203.0, 143.0, 150.0, 60.0 ],
																	"text" : "il faut meme des separator entre chaque type de texture (source, process,etc…)"
																}

															}
, 															{
																"box" : 																{
																	"fontname" : "Arial",
																	"fontsize" : 13.0,
																	"id" : "obj-1",
																	"linecount" : 2,
																	"maxclass" : "message",
																	"numinlets" : 2,
																	"numoutlets" : 1,
																	"outlettype" : [ "" ],
																	"patching_rect" : [ 168.0, 244.0, 76.0, 34.0 ],
																	"text" : "enableitem 0 0"
																}

															}
, 															{
																"box" : 																{
																	"color" : [ 0.0, 0.572549, 0.811765, 1.0 ],
																	"fontname" : "Arial",
																	"fontsize" : 12.0,
																	"id" : "obj-8",
																	"maxclass" : "newobj",
																	"numinlets" : 1,
																	"numoutlets" : 2,
																	"outlettype" : [ "", "" ],
																	"patching_rect" : [ 20.0, 351.5, 193.0, 20.0 ],
																	"text" : "j.return rtvi/texturelist @type string"
																}

															}
, 															{
																"box" : 																{
																	"color" : [ 0.0, 0.572549, 0.811765, 1.0 ],
																	"fontname" : "Arial",
																	"fontsize" : 12.0,
																	"id" : "obj-3",
																	"maxclass" : "newobj",
																	"numinlets" : 0,
																	"numoutlets" : 1,
																	"outlettype" : [ "" ],
																	"patching_rect" : [ 20.0, 111.0, 130.0, 20.0 ],
																	"text" : "r rtvi/texturelist/refresh"
																}

															}
, 															{
																"box" : 																{
																	"fontname" : "Arial",
																	"fontsize" : 12.0,
																	"id" : "obj-24",
																	"maxclass" : "newobj",
																	"numinlets" : 1,
																	"numoutlets" : 5,
																	"outlettype" : [ "", "<separator>", "bang", "<choose>", "clear" ],
																	"patching_rect" : [ 20.0, 217.0, 315.0, 20.0 ],
																	"text" : "t l <separator> b <choose> clear"
																}

															}
, 															{
																"box" : 																{
																	"fontname" : "Arial",
																	"fontsize" : 12.0,
																	"id" : "obj-23",
																	"maxclass" : "newobj",
																	"numinlets" : 1,
																	"numoutlets" : 1,
																	"outlettype" : [ "" ],
																	"patching_rect" : [ 20.0, 244.0, 27.0, 20.0 ],
																	"text" : "iter"
																}

															}
, 															{
																"box" : 																{
																	"fontname" : "Arial",
																	"fontsize" : 12.0,
																	"id" : "obj-12",
																	"linecount" : 2,
																	"maxclass" : "message",
																	"numinlets" : 2,
																	"numoutlets" : 1,
																	"outlettype" : [ "" ],
																	"patching_rect" : [ 20.0, 143.0, 183.0, 31.0 ],
																	"text" : "filter/set toto object Container attribute tag value GLtexture, /"
																}

															}
, 															{
																"box" : 																{
																	"fontname" : "Arial",
																	"fontsize" : 12.0,
																	"id" : "obj-2",
																	"maxclass" : "newobj",
																	"numinlets" : 1,
																	"numoutlets" : 3,
																	"outlettype" : [ "", "", "" ],
																	"patching_rect" : [ 20.0, 188.0, 79.0, 20.0 ],
																	"text" : "j.namespace"
																}

															}
, 															{
																"box" : 																{
																	"fontname" : "Arial",
																	"fontsize" : 12.0,
																	"id" : "obj-13",
																	"linecount" : 2,
																	"maxclass" : "newobj",
																	"numinlets" : 1,
																	"numoutlets" : 1,
																	"outlettype" : [ "" ],
																	"patching_rect" : [ 20.0, 296.0, 59.0, 33.0 ],
																	"text" : "prepend append"
																}

															}
 ],
														"lines" : [ 															{
																"patchline" : 																{
																	"color" : [ 0.153037, 0.222814, 0.561838, 0.9 ],
																	"destination" : [ "obj-8", 0 ],
																	"disabled" : 0,
																	"hidden" : 0,
																	"midpoints" : [ 177.5, 336.75, 29.5, 336.75 ],
																	"source" : [ "obj-1", 0 ]
																}

															}
, 															{
																"patchline" : 																{
																	"destination" : [ "obj-19", 0 ],
																	"disabled" : 0,
																	"hidden" : 0,
																	"source" : [ "obj-11", 0 ]
																}

															}
, 															{
																"patchline" : 																{
																	"destination" : [ "obj-2", 0 ],
																	"disabled" : 0,
																	"hidden" : 0,
																	"source" : [ "obj-12", 0 ]
																}

															}
, 															{
																"patchline" : 																{
																	"destination" : [ "obj-8", 0 ],
																	"disabled" : 0,
																	"hidden" : 0,
																	"source" : [ "obj-13", 0 ]
																}

															}
, 															{
																"patchline" : 																{
																	"destination" : [ "obj-4", 0 ],
																	"disabled" : 0,
																	"hidden" : 0,
																	"source" : [ "obj-19", 0 ]
																}

															}
, 															{
																"patchline" : 																{
																	"destination" : [ "obj-24", 0 ],
																	"disabled" : 0,
																	"hidden" : 0,
																	"source" : [ "obj-2", 0 ]
																}

															}
, 															{
																"patchline" : 																{
																	"destination" : [ "obj-13", 0 ],
																	"disabled" : 0,
																	"hidden" : 0,
																	"source" : [ "obj-23", 0 ]
																}

															}
, 															{
																"patchline" : 																{
																	"destination" : [ "obj-1", 0 ],
																	"disabled" : 0,
																	"hidden" : 0,
																	"source" : [ "obj-24", 2 ]
																}

															}
, 															{
																"patchline" : 																{
																	"color" : [ 0.605311, 0.328346, 0.345514, 0.9 ],
																	"destination" : [ "obj-13", 0 ],
																	"disabled" : 0,
																	"hidden" : 0,
																	"midpoints" : [ 251.5, 288.5, 29.5, 288.5 ],
																	"source" : [ "obj-24", 3 ]
																}

															}
, 															{
																"patchline" : 																{
																	"destination" : [ "obj-13", 0 ],
																	"disabled" : 0,
																	"hidden" : 0,
																	"midpoints" : [ 103.5, 271.0, 29.5, 271.0 ],
																	"source" : [ "obj-24", 1 ]
																}

															}
, 															{
																"patchline" : 																{
																	"destination" : [ "obj-23", 0 ],
																	"disabled" : 0,
																	"hidden" : 0,
																	"source" : [ "obj-24", 0 ]
																}

															}
, 															{
																"patchline" : 																{
																	"destination" : [ "obj-8", 0 ],
																	"disabled" : 0,
																	"hidden" : 0,
																	"midpoints" : [ 325.5, 344.25, 29.5, 344.25 ],
																	"source" : [ "obj-24", 4 ]
																}

															}
, 															{
																"patchline" : 																{
																	"destination" : [ "obj-12", 0 ],
																	"disabled" : 0,
																	"hidden" : 0,
																	"source" : [ "obj-3", 0 ]
																}

															}
, 															{
																"patchline" : 																{
																	"destination" : [ "obj-10", 0 ],
																	"disabled" : 0,
																	"hidden" : 0,
																	"source" : [ "obj-4", 0 ]
																}

															}
, 															{
																"patchline" : 																{
																	"destination" : [ "obj-4", 0 ],
																	"disabled" : 0,
																	"hidden" : 0,
																	"source" : [ "obj-7", 0 ]
																}

															}
, 															{
																"patchline" : 																{
																	"destination" : [ "obj-4", 0 ],
																	"disabled" : 0,
																	"hidden" : 0,
																	"source" : [ "obj-9", 0 ]
																}

															}
 ]
													}
,
													"patching_rect" : [ 114.5, 148.63678, 82.0, 22.0 ],
													"saved_object_attributes" : 													{
														"default_fontface" : 0,
														"default_fontname" : "Arial",
														"default_fontsize" : 12.0,
														"description" : "",
														"digest" : "",
														"fontface" : 0,
														"fontname" : "Arial",
														"fontsize" : 12.0,
														"globalpatchername" : "",
														"tags" : ""
													}
,
													"text" : "p texturelist"
												}

											}
, 											{
												"box" : 												{
													"annotation" : "A syphon client",
													"color" : [ 0.572549, 0.0, 0.0, 0.5 ],
													"fontname" : "Helvetica Light",
													"fontsize" : 12.0,
													"id" : "obj-19",
													"maxclass" : "newobj",
													"numinlets" : 1,
													"numoutlets" : 1,
													"outlettype" : [ "" ],
													"patching_rect" : [ 324.0, 123.13678, 216.0, 18.0 ],
													"text" : "syphonclient.model syphonclient.1 rtvi"
												}

											}
, 											{
												"box" : 												{
													"fontname" : "Arial",
													"fontsize" : 18.0,
													"frgb" : 0.0,
													"id" : "obj-4",
													"maxclass" : "comment",
													"numinlets" : 1,
													"numoutlets" : 0,
													"patching_rect" : [ 524.0, 3.634735, 100.0, 27.0 ],
													"text" : "SOURCES"
												}

											}
, 											{
												"box" : 												{
													"fontname" : "Arial",
													"fontsize" : 18.0,
													"frgb" : 0.0,
													"id" : "obj-3",
													"maxclass" : "comment",
													"numinlets" : 1,
													"numoutlets" : 0,
													"patching_rect" : [ 164.0, 3.634735, 147.0, 27.0 ],
													"text" : "3D RENDERING"
												}

											}
, 											{
												"box" : 												{
													"annotation" : "window for video",
													"color" : [ 0.572549, 0.0, 0.0, 0.5 ],
													"fontname" : "Helvetica Neue Light Italic",
													"fontsize" : 12.0,
													"id" : "obj-38",
													"maxclass" : "newobj",
													"numinlets" : 1,
													"numoutlets" : 1,
													"outlettype" : [ "" ],
													"patching_rect" : [ 13.0, 16.634735, 155.0, 20.0 ],
													"text" : "window.model window.1 rtvi"
												}

											}
, 											{
												"box" : 												{
													"annotation" : "syphon server",
													"color" : [ 0.572549, 0.0, 0.0, 0.5 ],
													"fontname" : "Helvetica Neue Light Italic",
													"fontsize" : 12.0,
													"id" : "obj-37",
													"maxclass" : "newobj",
													"numinlets" : 1,
													"numoutlets" : 1,
													"outlettype" : [ "" ],
													"patching_rect" : [ 324.0, 360.625, 212.0, 20.0 ],
													"text" : "syphonserver.model syphonserver.1 rtvi"
												}

											}
, 											{
												"box" : 												{
													"annotation" : "framemotor engine",
													"color" : [ 0.572549, 0.0, 0.0, 0.5 ],
													"fontname" : "Arial",
													"fontsize" : 12.0,
													"id" : "obj-47",
													"maxclass" : "newobj",
													"numinlets" : 1,
													"numoutlets" : 1,
													"outlettype" : [ "" ],
													"patching_rect" : [ 13.0, 71.338524, 167.0, 20.0 ],
													"text" : "framemotor.model clock.1 rtvi"
												}

											}
, 											{
												"box" : 												{
													"annotation" : "lines effect",
													"color" : [ 0.572549, 0.0, 0.0, 0.5 ],
													"fontname" : "Arial",
													"fontsize" : 12.0,
													"id" : "obj-1",
													"maxclass" : "newobj",
													"numinlets" : 1,
													"numoutlets" : 1,
													"outlettype" : [ "" ],
													"patching_rect" : [ 324.0, 235.853333, 130.0, 20.0 ],
													"text" : "lines.model lines.1 rtvi"
												}

											}
, 											{
												"box" : 												{
													"color" : [ 0.572549, 0.0, 0.0, 0.5 ],
													"fontname" : "Helvetica Neue Light Italic",
													"fontsize" : 12.0,
													"id" : "obj-20",
													"maxclass" : "newobj",
													"numinlets" : 1,
													"numoutlets" : 1,
													"outlettype" : [ "" ],
													"patching_rect" : [ 324.0, 335.0, 198.0, 20.0 ],
													"text" : "poly~ plane.model 10 args layer rtvi"
												}

											}
, 											{
												"box" : 												{
													"annotation" : "blur effect",
													"color" : [ 0.572549, 0.0, 0.0, 0.5 ],
													"fontname" : "Arial",
													"fontsize" : 12.0,
													"id" : "obj-18",
													"maxclass" : "newobj",
													"numinlets" : 1,
													"numoutlets" : 1,
													"outlettype" : [ "" ],
													"patching_rect" : [ 324.0, 210.972412, 118.0, 20.0 ],
													"text" : "blur.model blur.1 rtvi"
												}

											}
, 											{
												"box" : 												{
													"annotation" : "3D render",
													"color" : [ 0.572549, 0.0, 0.0, 0.5 ],
													"fontname" : "Helvetica Neue Light Italic",
													"fontsize" : 12.0,
													"id" : "obj-14",
													"maxclass" : "newobj",
													"numinlets" : 1,
													"numoutlets" : 1,
													"outlettype" : [ "" ],
													"patching_rect" : [ 13.0, 43.986629, 142.0, 20.0 ],
													"text" : "render.model render.1 rtvi"
												}

											}
, 											{
												"box" : 												{
													"fontname" : "Arial",
													"fontsize" : 24.0,
													"frgb" : 0.0,
													"id" : "obj-28",
													"maxclass" : "comment",
													"numinlets" : 1,
													"numoutlets" : 0,
													"patching_rect" : [ 62.0, 115.63678, 187.0, 33.0 ],
													"text" : "Open GL engine"
												}

											}
, 											{
												"box" : 												{
													"annotation" : "black generator",
													"color" : [ 0.0, 0.572549, 0.0, 1.0 ],
													"fontname" : "Arial",
													"fontsize" : 12.0,
													"id" : "obj-93",
													"maxclass" : "newobj",
													"numinlets" : 1,
													"numoutlets" : 1,
													"outlettype" : [ "" ],
													"patcher" : 													{
														"fileversion" : 1,
														"appversion" : 														{
															"major" : 6,
															"minor" : 1,
															"revision" : 7,
															"architecture" : "x86"
														}
,
														"rect" : [ 548.0, 471.0, 534.0, 255.0 ],
														"bglocked" : 0,
														"openinpresentation" : 0,
														"default_fontsize" : 12.0,
														"default_fontface" : 0,
														"default_fontname" : "Helvetica Neue Light Italic",
														"gridonopen" : 0,
														"gridsize" : [ 15.0, 15.0 ],
														"gridsnaponopen" : 0,
														"statusbarvisible" : 2,
														"toolbarvisible" : 1,
														"boxanimatetime" : 200,
														"imprint" : 0,
														"enablehscroll" : 1,
														"enablevscroll" : 1,
														"devicewidth" : 0.0,
														"description" : "",
														"digest" : "",
														"tags" : "",
														"boxes" : [ 															{
																"box" : 																{
																	"comment" : "",
																	"id" : "obj-6",
																	"maxclass" : "outlet",
																	"numinlets" : 1,
																	"numoutlets" : 0,
																	"patching_rect" : [ 338.0, 157.0, 25.0, 25.0 ]
																}

															}
, 															{
																"box" : 																{
																	"comment" : "",
																	"id" : "obj-4",
																	"maxclass" : "inlet",
																	"numinlets" : 0,
																	"numoutlets" : 1,
																	"outlettype" : [ "" ],
																	"patching_rect" : [ 338.0, 44.0, 25.0, 25.0 ]
																}

															}
, 															{
																"box" : 																{
																	"fontname" : "Helvetica Neue Light Italic",
																	"fontsize" : 12.0,
																	"id" : "obj-1",
																	"linecount" : 4,
																	"maxclass" : "newobj",
																	"numinlets" : 1,
																	"numoutlets" : 2,
																	"outlettype" : [ "", "" ],
																	"patching_rect" : [ 338.0, 75.0, 133.0, 62.0 ],
																	"text" : "j.model black @description \"black generator\" @tag GLtexture"
																}

															}
, 															{
																"box" : 																{
																	"fontname" : "Arial",
																	"fontsize" : 12.0,
																	"id" : "obj-92",
																	"maxclass" : "newobj",
																	"numinlets" : 1,
																	"numoutlets" : 1,
																	"outlettype" : [ "bang" ],
																	"patching_rect" : [ 148.0, 44.0, 60.0, 20.0 ],
																	"text" : "loadbang"
																}

															}
, 															{
																"box" : 																{
																	"id" : "obj-91",
																	"maxclass" : "button",
																	"numinlets" : 1,
																	"numoutlets" : 1,
																	"outlettype" : [ "bang" ],
																	"patching_rect" : [ 148.0, 76.0, 20.0, 20.0 ]
																}

															}
, 															{
																"box" : 																{
																	"fontname" : "Arial",
																	"fontsize" : 12.0,
																	"id" : "obj-89",
																	"maxclass" : "newobj",
																	"numinlets" : 4,
																	"numoutlets" : 2,
																	"outlettype" : [ "jit_matrix", "" ],
																	"patching_rect" : [ 148.0, 156.0, 59.5, 20.0 ],
																	"text" : "jit.pack"
																}

															}
, 															{
																"box" : 																{
																	"fontname" : "Arial",
																	"fontsize" : 12.0,
																	"id" : "obj-88",
																	"maxclass" : "newobj",
																	"numinlets" : 1,
																	"numoutlets" : 2,
																	"outlettype" : [ "jit_matrix", "" ],
																	"patching_rect" : [ 148.0, 101.0, 112.0, 20.0 ],
																	"text" : "jit.matrix 1 char 1 1"
																}

															}
, 															{
																"box" : 																{
																	"fontname" : "Arial",
																	"fontsize" : 12.0,
																	"id" : "obj-85",
																	"maxclass" : "newobj",
																	"numinlets" : 1,
																	"numoutlets" : 2,
																	"outlettype" : [ "jit_gl_texture", "" ],
																	"patching_rect" : [ 148.0, 193.0, 285.0, 20.0 ],
																	"text" : "jit.gl.texture rtvi @name black @defaultimage black"
																}

															}
 ],
														"lines" : [ 															{
																"patchline" : 																{
																	"destination" : [ "obj-6", 0 ],
																	"disabled" : 0,
																	"hidden" : 0,
																	"source" : [ "obj-1", 0 ]
																}

															}
, 															{
																"patchline" : 																{
																	"destination" : [ "obj-1", 0 ],
																	"disabled" : 0,
																	"hidden" : 0,
																	"source" : [ "obj-4", 0 ]
																}

															}
, 															{
																"patchline" : 																{
																	"destination" : [ "obj-89", 3 ],
																	"disabled" : 0,
																	"hidden" : 0,
																	"source" : [ "obj-88", 0 ]
																}

															}
, 															{
																"patchline" : 																{
																	"destination" : [ "obj-89", 2 ],
																	"disabled" : 0,
																	"hidden" : 0,
																	"source" : [ "obj-88", 0 ]
																}

															}
, 															{
																"patchline" : 																{
																	"destination" : [ "obj-89", 1 ],
																	"disabled" : 0,
																	"hidden" : 0,
																	"source" : [ "obj-88", 0 ]
																}

															}
, 															{
																"patchline" : 																{
																	"destination" : [ "obj-89", 0 ],
																	"disabled" : 0,
																	"hidden" : 0,
																	"source" : [ "obj-88", 0 ]
																}

															}
, 															{
																"patchline" : 																{
																	"destination" : [ "obj-85", 0 ],
																	"disabled" : 0,
																	"hidden" : 0,
																	"source" : [ "obj-89", 0 ]
																}

															}
, 															{
																"patchline" : 																{
																	"destination" : [ "obj-88", 0 ],
																	"disabled" : 0,
																	"hidden" : 0,
																	"source" : [ "obj-91", 0 ]
																}

															}
, 															{
																"patchline" : 																{
																	"destination" : [ "obj-91", 0 ],
																	"disabled" : 0,
																	"hidden" : 0,
																	"source" : [ "obj-92", 0 ]
																}

															}
 ]
													}
,
													"patching_rect" : [ 324.0, 94.510742, 50.0, 20.0 ],
													"saved_object_attributes" : 													{
														"default_fontface" : 0,
														"default_fontname" : "Helvetica Neue Light Italic",
														"default_fontsize" : 12.0,
														"description" : "",
														"digest" : "",
														"fontface" : 0,
														"fontname" : "Helvetica Neue Light Italic",
														"fontsize" : 12.0,
														"globalpatchername" : "",
														"tags" : ""
													}
,
													"text" : "p black"
												}

											}
, 											{
												"box" : 												{
													"annotation" : "color-controls",
													"color" : [ 0.572549, 0.0, 0.0, 0.5 ],
													"fontname" : "Arial",
													"fontsize" : 12.0,
													"id" : "obj-8",
													"maxclass" : "newobj",
													"numinlets" : 1,
													"numoutlets" : 1,
													"outlettype" : [ "" ],
													"patching_rect" : [ 324.0, 186.091492, 157.0, 20.0 ],
													"text" : "color-control.model cc.1 rtvi"
												}

											}
, 											{
												"box" : 												{
													"annotation" : "color generator",
													"color" : [ 0.572549, 0.0, 0.0, 0.5 ],
													"fontname" : "Arial",
													"fontsize" : 12.0,
													"id" : "obj-9",
													"maxclass" : "newobj",
													"numinlets" : 1,
													"numoutlets" : 1,
													"outlettype" : [ "" ],
													"patching_rect" : [ 324.0, 36.872421, 130.0, 20.0 ],
													"text" : "color.model color.1 rtvi"
												}

											}
, 											{
												"box" : 												{
													"fontname" : "Arial",
													"fontsize" : 12.0,
													"frgb" : 0.0,
													"id" : "obj-42",
													"linecount" : 2,
													"maxclass" : "comment",
													"numinlets" : 1,
													"numoutlets" : 0,
													"patching_rect" : [ 317.0, 388.25, 303.0, 33.0 ],
													"text" : "each output can choose at least one texture for displaying and one texture for masking"
												}

											}
, 											{
												"box" : 												{
													"fontname" : "Arial",
													"fontsize" : 12.0,
													"frgb" : 0.0,
													"id" : "obj-35",
													"linecount" : 2,
													"maxclass" : "comment",
													"numinlets" : 1,
													"numoutlets" : 0,
													"patching_rect" : [ 317.0, 286.965454, 303.0, 33.0 ],
													"text" : "each process can choose at least one texture as input and publish another texture"
												}

											}
, 											{
												"box" : 												{
													"fontname" : "Arial",
													"fontsize" : 18.0,
													"frgb" : 0.0,
													"id" : "obj-30",
													"maxclass" : "comment",
													"numinlets" : 1,
													"numoutlets" : 0,
													"patching_rect" : [ 524.0, 179.091492, 99.0, 27.0 ],
													"text" : "PROCESS"
												}

											}
, 											{
												"box" : 												{
													"fontname" : "Arial",
													"fontsize" : 18.0,
													"frgb" : 0.0,
													"id" : "obj-29",
													"maxclass" : "comment",
													"numinlets" : 1,
													"numoutlets" : 0,
													"patching_rect" : [ 528.0, 328.0, 96.0, 27.0 ],
													"text" : "OUTPUTS"
												}

											}
, 											{
												"box" : 												{
													"annotation" : "noise generator",
													"color" : [ 0.572549, 0.0, 0.0, 0.5 ],
													"fontname" : "Arial",
													"fontsize" : 12.0,
													"id" : "obj-10",
													"maxclass" : "newobj",
													"numinlets" : 1,
													"numoutlets" : 1,
													"outlettype" : [ "" ],
													"patching_rect" : [ 324.0, 9.015091, 135.0, 20.0 ],
													"text" : "noise.model noise.1 rtvi"
												}

											}
, 											{
												"box" : 												{
													"bgcolor" : [ 0.666667, 0.666667, 0.666667, 0.0 ],
													"border" : 1,
													"id" : "obj-11",
													"maxclass" : "panel",
													"numinlets" : 1,
													"numoutlets" : 0,
													"patching_rect" : [ 317.0, 179.091492, 303.0, 140.873962 ],
													"rounded" : 0
												}

											}
, 											{
												"box" : 												{
													"bgcolor" : [ 0.666667, 0.666667, 0.666667, 0.0 ],
													"border" : 1,
													"id" : "obj-2",
													"maxclass" : "panel",
													"numinlets" : 1,
													"numoutlets" : 0,
													"patching_rect" : [ 4.0, 3.634735, 303.0, 96.991302 ]
												}

											}
, 											{
												"box" : 												{
													"bgcolor" : [ 0.666667, 0.666667, 0.666667, 0.0 ],
													"border" : 1,
													"id" : "obj-22",
													"maxclass" : "panel",
													"numinlets" : 1,
													"numoutlets" : 0,
													"patching_rect" : [ 317.0, 328.0, 303.0, 93.25 ],
													"rounded" : 0
												}

											}
, 											{
												"box" : 												{
													"fontname" : "Arial",
													"fontsize" : 12.0,
													"frgb" : 0.0,
													"id" : "obj-34",
													"maxclass" : "comment",
													"numinlets" : 1,
													"numoutlets" : 0,
													"patching_rect" : [ 317.0, 150.13678, 291.0, 20.0 ],
													"text" : "each source publishes at least one GLtexture texture"
												}

											}
, 											{
												"box" : 												{
													"bgcolor" : [ 0.666667, 0.666667, 0.666667, 0.0 ],
													"border" : 1,
													"id" : "obj-6",
													"maxclass" : "panel",
													"numinlets" : 1,
													"numoutlets" : 0,
													"patching_rect" : [ 317.0, 3.634735, 303.0, 166.502045 ]
												}

											}
 ],
										"lines" : [  ]
									}
,
									"patching_rect" : [ 13.0, 27.75, 56.0, 22.0 ],
									"saved_object_attributes" : 									{
										"default_fontface" : 0,
										"default_fontname" : "Helvetica Neue Light Italic",
										"default_fontsize" : 12.0,
										"description" : "",
										"digest" : "",
										"fontface" : 0,
										"fontname" : "Helvetica Neue Light Italic",
										"fontsize" : 12.0,
										"globalpatchername" : "",
										"tags" : ""
									}
,
									"text" : "p video"
								}

							}
, 							{
								"box" : 								{
									"bgcolor" : [ 0.666667, 0.666667, 0.666667, 0.0 ],
									"border" : 1,
									"id" : "obj-27",
									"maxclass" : "panel",
									"numinlets" : 1,
									"numoutlets" : 0,
									"patching_rect" : [ 6.0, 68.5, 303.0, 63.5 ],
									"rounded" : 0
								}

							}
, 							{
								"box" : 								{
									"bgcolor" : [ 0.666667, 0.666667, 0.666667, 0.0 ],
									"border" : 1,
									"id" : "obj-14",
									"maxclass" : "panel",
									"numinlets" : 1,
									"numoutlets" : 0,
									"patching_rect" : [ 6.0, 7.0, 303.0, 63.5 ],
									"rounded" : 0
								}

							}
 ],
						"lines" : [ 							{
								"patchline" : 								{
									"destination" : [ "obj-17", 0 ],
									"disabled" : 0,
									"hidden" : 0,
									"source" : [ "obj-11", 0 ]
								}

							}
, 							{
								"patchline" : 								{
									"destination" : [ "obj-16", 0 ],
									"disabled" : 0,
									"hidden" : 0,
									"source" : [ "obj-17", 0 ]
								}

							}
 ]
					}
,
					"patching_rect" : [ 22.833313, 109.5, 64.0, 22.0 ],
					"saved_object_attributes" : 					{
						"default_fontface" : 0,
						"default_fontname" : "Helvetica Neue Light Italic",
						"default_fontsize" : 12.0,
						"description" : "",
						"digest" : "",
						"fontface" : 0,
						"fontname" : "Helvetica Neue Light Italic",
						"fontsize" : 12.0,
						"globalpatchername" : "",
						"tags" : ""
					}
,
					"text" : "p engine"
				}

			}
, 			{
				"box" : 				{
					"color" : [ 0.0, 0.572549, 0.811765, 1.0 ],
					"fontname" : "Arial",
					"fontsize" : 12.0,
					"id" : "obj-14",
					"maxclass" : "newobj",
					"numinlets" : 1,
					"numoutlets" : 0,
					"patching_rect" : [ 140.5, 110.5, 66.0, 20.0 ],
					"text" : "s /span/init"
				}

			}
, 			{
				"box" : 				{
					"bgcolor" : [ 1.0, 1.0, 1.0, 1.0 ],
					"bgoncolor" : [ 1.0, 1.0, 1.0, 1.0 ],
					"bgovercolor" : [ 1.0, 1.0, 1.0, 1.0 ],
					"bgoveroncolor" : [ 1.0, 1.0, 1.0, 1.0 ],
					"bordercolor" : [ 0.101961, 0.101961, 0.101961, 1.0 ],
					"borderoncolor" : [ 0.729272, 0.101961, 0.101961, 1.0 ],
					"fontname" : "Arial",
					"fontsize" : 18.0,
					"id" : "obj-29",
					"maxclass" : "textbutton",
					"numinlets" : 1,
					"numoutlets" : 3,
					"outlettype" : [ "", "", "int" ],
					"parameter_enable" : 0,
					"patching_rect" : [ 140.5, 71.0, 71.0, 29.0 ],
					"presentation" : 1,
					"presentation_rect" : [ 267.5, 2.0, 71.0, 23.0 ],
					"text" : "init",
					"textoncolor" : [ 0.729412, 0.101961, 0.101961, 1.0 ],
					"textoveroncolor" : [ 0.729412, 0.101961, 0.101961, 1.0 ]
				}

			}
, 			{
				"box" : 				{
					"fontname" : "Arial",
					"fontsize" : 36.0,
					"frgb" : 0.0,
					"id" : "obj-18",
					"maxclass" : "comment",
					"numinlets" : 1,
					"numoutlets" : 0,
					"patching_rect" : [ 22.833313, 15.0, 96.0, 47.0 ],
					"presentation" : 1,
					"presentation_rect" : [ 11.833313, 4.0, 96.0, 47.0 ],
					"text" : "RTVI"
				}

			}
, 			{
				"box" : 				{
					"handoff" : "",
					"hilite" : 0,
					"id" : "obj-16",
					"maxclass" : "ubutton",
					"numinlets" : 1,
					"numoutlets" : 4,
					"outlettype" : [ "bang", "bang", "", "int" ],
					"patching_rect" : [ 22.833313, 15.0, 96.0, 47.0 ],
					"presentation" : 1,
					"presentation_rect" : [ 11.833313, 4.0, 96.0, 47.0 ]
				}

			}
, 			{
				"box" : 				{
					"id" : "obj-17",
					"maxclass" : "panel",
					"numinlets" : 1,
					"numoutlets" : 0,
					"patching_rect" : [ 6.833313, 3.5, 299.0, 228.0 ],
					"presentation" : 1,
					"presentation_rect" : [ 6.5, 2.0, 257.0, 56.0 ]
				}

			}
 ],
		"lines" : [ 			{
				"patchline" : 				{
					"destination" : [ "obj-11", 0 ],
					"disabled" : 0,
					"hidden" : 0,
					"source" : [ "obj-16", 0 ]
				}

			}
, 			{
				"patchline" : 				{
					"destination" : [ "obj-14", 0 ],
					"disabled" : 0,
					"hidden" : 0,
					"source" : [ "obj-29", 0 ]
				}

			}
, 			{
				"patchline" : 				{
					"destination" : [ "obj-41", 0 ],
					"disabled" : 0,
					"hidden" : 0,
					"source" : [ "obj-38", 0 ]
				}

			}
 ],
		"dependency_cache" : [ 			{
				"name" : "noise.model.maxpat",
				"bootpath" : "/Users/reno/Documents/GITs/RTVI/max-package/patchers",
				"patcherrelativepath" : "./max-package/patchers",
				"type" : "JSON",
				"implicit" : 1
			}
, 			{
				"name" : "color.model.maxpat",
				"bootpath" : "/Users/reno/Documents/GITs/RTVI/max-package/patchers",
				"patcherrelativepath" : "./max-package/patchers",
				"type" : "JSON",
				"implicit" : 1
			}
, 			{
				"name" : "color-control.model.maxpat",
				"bootpath" : "/Users/reno/Documents/GITs/RTVI/max-package/patchers",
				"patcherrelativepath" : "./max-package/patchers",
				"type" : "JSON",
				"implicit" : 1
			}
, 			{
				"name" : "render.model.maxpat",
				"bootpath" : "/Users/reno/Documents/GITs/RTVI/max-package/patchers",
				"patcherrelativepath" : "./max-package/patchers",
				"type" : "JSON",
				"implicit" : 1
			}
, 			{
				"name" : "blur.model.maxpat",
				"bootpath" : "/Users/reno/Documents/GITs/RTVI/max-package/patchers",
				"patcherrelativepath" : "./max-package/patchers",
				"type" : "JSON",
				"implicit" : 1
			}
, 			{
				"name" : "jit.gl.slab.gauss6x.maxpat",
				"bootpath" : "/Applications/Max 6.1/examples/jitter-examples/render/slab",
				"patcherrelativepath" : "../../../../../Applications/Max 6.1/examples/jitter-examples/render/slab",
				"type" : "JSON",
				"implicit" : 1
			}
, 			{
				"name" : "plane.model.maxpat",
				"bootpath" : "/Users/reno/Documents/GITs/RTVI/max-package/patchers",
				"patcherrelativepath" : "./max-package/patchers",
				"type" : "JSON",
				"implicit" : 1
			}
, 			{
				"name" : "lines.model.maxpat",
				"bootpath" : "/Users/reno/Documents/GITs/RTVI/max-package/patchers",
				"patcherrelativepath" : "./max-package/patchers",
				"type" : "JSON",
				"implicit" : 1
			}
, 			{
				"name" : "framemotor.model.maxpat",
				"bootpath" : "/Users/reno/Documents/GITs/RTVI/max-package/patchers",
				"patcherrelativepath" : "./max-package/patchers",
				"type" : "JSON",
				"implicit" : 1
			}
, 			{
				"name" : "syphonserver.model.maxpat",
				"bootpath" : "/Users/reno/Documents/GITs/RTVI/max-package/patchers",
				"patcherrelativepath" : "./max-package/patchers",
				"type" : "JSON",
				"implicit" : 1
			}
, 			{
				"name" : "window.model.maxpat",
				"bootpath" : "/Users/reno/Documents/GITs/RTVI/max-package/patchers",
				"patcherrelativepath" : "./max-package/patchers",
				"type" : "JSON",
				"implicit" : 1
			}
, 			{
				"name" : "syphonclient.model.maxpat",
				"bootpath" : "/Users/reno/Documents/GITs/RTVI/max-package/patchers",
				"patcherrelativepath" : "./max-package/patchers",
				"type" : "JSON",
				"implicit" : 1
			}
, 			{
				"name" : "hap.model.maxpat",
				"bootpath" : "/Users/reno/Documents/GITs/RTVI/max-package/patchers",
				"patcherrelativepath" : "./max-package/patchers",
				"type" : "JSON",
				"implicit" : 1
			}
, 			{
				"name" : "camera.model.maxpat",
				"bootpath" : "/Users/reno/Documents/GITs/RTVI/max-package/patchers",
				"patcherrelativepath" : "./max-package/patchers",
				"type" : "JSON",
				"implicit" : 1
			}
, 			{
				"name" : "soundtrack.model.maxpat",
				"bootpath" : "/Users/reno/Documents/GITs/RTVI/max-package/patchers",
				"patcherrelativepath" : "./max-package/patchers",
				"type" : "JSON",
				"implicit" : 1
			}
, 			{
				"name" : "visca.model.maxpat",
				"bootpath" : "/Users/reno/Documents/GITs/RTVI/max-package/patchers",
				"patcherrelativepath" : "./max-package/patchers",
				"type" : "JSON",
				"implicit" : 1
			}
, 			{
				"name" : "syphonclient.view.maxpat",
				"bootpath" : "/Users/reno/Documents/GITs/RTVI/max-package/patchers",
				"patcherrelativepath" : "./max-package/patchers",
				"type" : "JSON",
				"implicit" : 1
			}
, 			{
				"name" : "plane.view.maxpat",
				"bootpath" : "/Users/reno/Documents/GITs/RTVI/max-package/patchers",
				"patcherrelativepath" : "./max-package/patchers",
				"type" : "JSON",
				"implicit" : 1
			}
, 			{
				"name" : "noise.view.maxpat",
				"bootpath" : "/Users/reno/Documents/GITs/RTVI/max-package/patchers",
				"patcherrelativepath" : "./max-package/patchers",
				"type" : "JSON",
				"implicit" : 1
			}
, 			{
				"name" : "color.view.maxpat",
				"bootpath" : "/Users/reno/Documents/GITs/RTVI/max-package/patchers",
				"patcherrelativepath" : "./max-package/patchers",
				"type" : "JSON",
				"implicit" : 1
			}
, 			{
				"name" : "color-control.view.maxpat",
				"bootpath" : "/Users/reno/Documents/GITs/RTVI/max-package/patchers",
				"patcherrelativepath" : "./max-package/patchers",
				"type" : "JSON",
				"implicit" : 1
			}
, 			{
				"name" : "render.view.maxpat",
				"bootpath" : "/Users/reno/Documents/GITs/RTVI/max-package/patchers",
				"patcherrelativepath" : "./max-package/patchers",
				"type" : "JSON",
				"implicit" : 1
			}
, 			{
				"name" : "hap.view.maxpat",
				"bootpath" : "/Users/reno/Documents/GITs/RTVI/max-package/patchers",
				"patcherrelativepath" : "./max-package/patchers",
				"type" : "JSON",
				"implicit" : 1
			}
, 			{
				"name" : "span.requests.maxpat",
				"bootpath" : "/Users/reno/Documents/GITs/span/max-package/patchers/requests",
				"patcherrelativepath" : "../span/max-package/patchers/requests",
				"type" : "JSON",
				"implicit" : 1
			}
, 			{
				"name" : "blur.view.maxpat",
				"bootpath" : "/Users/reno/Documents/GITs/RTVI/max-package/patchers",
				"patcherrelativepath" : "./max-package/patchers",
				"type" : "JSON",
				"implicit" : 1
			}
, 			{
				"name" : "lines.view.maxpat",
				"bootpath" : "/Users/reno/Documents/GITs/RTVI/max-package/patchers",
				"patcherrelativepath" : "./max-package/patchers",
				"type" : "JSON",
				"implicit" : 1
			}
, 			{
				"name" : "soundtrack.view.maxpat",
				"bootpath" : "/Users/reno/Documents/GITs/RTVI/max-package/patchers",
				"patcherrelativepath" : "./max-package/patchers",
				"type" : "JSON",
				"implicit" : 1
			}
, 			{
				"name" : "syphonserver.view.maxpat",
				"bootpath" : "/Users/reno/Documents/GITs/RTVI/max-package/patchers",
				"patcherrelativepath" : "./max-package/patchers",
				"type" : "JSON",
				"implicit" : 1
			}
, 			{
				"name" : "framemotor.view.maxpat",
				"bootpath" : "/Users/reno/Documents/GITs/RTVI/max-package/patchers",
				"patcherrelativepath" : "./max-package/patchers",
				"type" : "JSON",
				"implicit" : 1
			}
, 			{
				"name" : "camera.view.maxpat",
				"bootpath" : "/Users/reno/Documents/GITs/RTVI/max-package/patchers",
				"patcherrelativepath" : "./max-package/patchers",
				"type" : "JSON",
				"implicit" : 1
			}
, 			{
				"name" : "visca.view.maxpat",
				"bootpath" : "/Users/reno/Documents/GITs/RTVI/max-package/patchers",
				"patcherrelativepath" : "./max-package/patchers",
				"type" : "JSON",
				"implicit" : 1
			}
, 			{
				"name" : "j.parameter.mxo",
				"type" : "iLaX"
			}
, 			{
				"name" : "j.model.mxo",
				"type" : "iLaX"
			}
, 			{
				"name" : "j.receive.mxo",
				"type" : "iLaX"
			}
, 			{
				"name" : "j.return.mxo",
				"type" : "iLaX"
			}
, 			{
				"name" : "j.init.mxo",
				"type" : "iLaX"
			}
, 			{
				"name" : "j.send.mxo",
				"type" : "iLaX"
			}
, 			{
				"name" : "jit.gl.syphonserver.mxo",
				"type" : "iLaX"
			}
, 			{
				"name" : "jit.gl.syphonclient.mxo",
				"type" : "iLaX"
			}
, 			{
				"name" : "j.message.mxo",
				"type" : "iLaX"
			}
, 			{
				"name" : "j.namespace.mxo",
				"type" : "iLaX"
			}
, 			{
				"name" : "jit.gl.hap.mxo",
				"type" : "iLaX"
			}
, 			{
				"name" : "j.view.mxo",
				"type" : "iLaX"
			}
, 			{
				"name" : "j.remote.mxo",
				"type" : "iLaX"
			}
 ]
	}

}
