{
	"patcher" : 	{
		"fileversion" : 1,
		"appversion" : 		{
			"major" : 6,
			"minor" : 1,
			"revision" : 7,
			"architecture" : "x86"
		}
,
		"rect" : [ 464.0, 44.0, 1238.0, 508.0 ],
		"bglocked" : 0,
		"openinpresentation" : 1,
		"default_fontsize" : 12.0,
		"default_fontface" : 0,
		"default_fontname" : "Arial",
		"gridonopen" : 0,
		"gridsize" : [ 15.0, 15.0 ],
		"gridsnaponopen" : 0,
		"statusbarvisible" : 2,
		"toolbarvisible" : 0,
		"boxanimatetime" : 200,
		"imprint" : 0,
		"enablehscroll" : 1,
		"enablevscroll" : 1,
		"devicewidth" : 0.0,
		"description" : "",
		"digest" : "",
		"tags" : "",
		"boxes" : [ 			{
				"box" : 				{
					"color" : [ 0.0, 0.572549, 0.0, 1.0 ],
					"fontname" : "Arial",
					"fontsize" : 14.0,
					"id" : "obj-5",
					"maxclass" : "newobj",
					"numinlets" : 1,
					"numoutlets" : 0,
					"patcher" : 					{
						"fileversion" : 1,
						"appversion" : 						{
							"major" : 6,
							"minor" : 1,
							"revision" : 7,
							"architecture" : "x86"
						}
,
						"rect" : [ 637.0, 444.0, 436.0, 322.0 ],
						"bglocked" : 0,
						"openinpresentation" : 0,
						"default_fontsize" : 12.0,
						"default_fontface" : 0,
						"default_fontname" : "Helvetica Neue Light Italic",
						"gridonopen" : 0,
						"gridsize" : [ 15.0, 15.0 ],
						"gridsnaponopen" : 0,
						"statusbarvisible" : 2,
						"toolbarvisible" : 0,
						"boxanimatetime" : 200,
						"imprint" : 0,
						"enablehscroll" : 1,
						"enablevscroll" : 1,
						"devicewidth" : 0.0,
						"description" : "",
						"digest" : "",
						"tags" : "",
						"boxes" : [ 							{
								"box" : 								{
									"fontname" : "Arial",
									"fontsize" : 18.0,
									"frgb" : 0.0,
									"id" : "obj-12",
									"maxclass" : "comment",
									"numinlets" : 1,
									"numoutlets" : 0,
									"patching_rect" : [ 253.0, 235.75, 179.0, 27.0 ],
									"text" : "EVENTS MANAGER"
								}

							}
, 							{
								"box" : 								{
									"bgcolor" : [ 0.666667, 0.666667, 0.666667, 0.0 ],
									"border" : 1,
									"id" : "obj-13",
									"maxclass" : "panel",
									"numinlets" : 1,
									"numoutlets" : 0,
									"patching_rect" : [ 125.0, 235.75, 303.0, 63.5 ],
									"rounded" : 0
								}

							}
, 							{
								"box" : 								{
									"annotation" : "none",
									"color" : [ 0.572549, 0.0, 0.0, 0.5 ],
									"fontname" : "Arial",
									"fontsize" : 12.0,
									"id" : "obj-1",
									"maxclass" : "newobj",
									"numinlets" : 0,
									"numoutlets" : 0,
									"patching_rect" : [ 132.0, 254.489227, 99.0, 20.0 ],
									"text" : "cue.model cue.1"
								}

							}
, 							{
								"box" : 								{
									"color" : [ 0.0, 0.572549, 0.0, 1.0 ],
									"fontname" : "Arial",
									"fontsize" : 14.0,
									"id" : "obj-7",
									"maxclass" : "newobj",
									"numinlets" : 0,
									"numoutlets" : 0,
									"patcher" : 									{
										"fileversion" : 1,
										"appversion" : 										{
											"major" : 6,
											"minor" : 1,
											"revision" : 7,
											"architecture" : "x86"
										}
,
										"rect" : [ 25.0, 69.0, 514.0, 500.0 ],
										"bglocked" : 0,
										"openinpresentation" : 0,
										"default_fontsize" : 12.0,
										"default_fontface" : 0,
										"default_fontname" : "Helvetica Neue Light Italic",
										"gridonopen" : 0,
										"gridsize" : [ 15.0, 15.0 ],
										"gridsnaponopen" : 0,
										"statusbarvisible" : 2,
										"toolbarvisible" : 1,
										"boxanimatetime" : 200,
										"imprint" : 0,
										"enablehscroll" : 1,
										"enablevscroll" : 1,
										"devicewidth" : 0.0,
										"description" : "",
										"digest" : "",
										"tags" : "",
										"boxes" : [ 											{
												"box" : 												{
													"fontname" : "Arial",
													"fontsize" : 12.0,
													"frgb" : 0.0,
													"id" : "obj-1",
													"linecount" : 12,
													"maxclass" : "comment",
													"numinlets" : 1,
													"numoutlets" : 0,
													"patching_rect" : [ 47.0, 314.0, 118.0, 167.0 ],
													"text" : "JCUE\nfaire un coll/dict qui recence toutes les mémoires, jouées, leur temps de rampe et ainsi donc leur activité. Et montrer tout cela sur un multislider et/ou sur un jit.cellblock ou même en openGL"
												}

											}
, 											{
												"box" : 												{
													"fontname" : "Arial",
													"fontsize" : 12.0,
													"frgb" : 0.0,
													"id" : "obj-32",
													"maxclass" : "comment",
													"numinlets" : 1,
													"numoutlets" : 0,
													"patching_rect" : [ 39.0, 33.0, 45.0, 20.0 ],
													"text" : "TODO"
												}

											}
, 											{
												"box" : 												{
													"fontname" : "Arial",
													"fontsize" : 12.0,
													"frgb" : 0.0,
													"id" : "obj-31",
													"linecount" : 2,
													"maxclass" : "comment",
													"numinlets" : 1,
													"numoutlets" : 0,
													"patching_rect" : [ 39.0, 66.0, 220.0, 33.0 ],
													"text" : "possibilité de faire des cues des modules dont le parametre sw est sur 1"
												}

											}
, 											{
												"box" : 												{
													"fontname" : "Arial",
													"fontsize" : 12.0,
													"frgb" : 0.0,
													"id" : "obj-51",
													"linecount" : 7,
													"maxclass" : "comment",
													"numinlets" : 1,
													"numoutlets" : 0,
													"patching_rect" : [ 39.0, 104.0, 111.0, 100.0 ],
													"text" : "cliquer sur le nom peux le faire passer en couleur. Alors un temps est défini pour toute action sur ce paramètre"
												}

											}
 ],
										"lines" : [  ]
									}
,
									"patching_rect" : [ 35.0, 256.5, 62.0, 22.0 ],
									"saved_object_attributes" : 									{
										"default_fontface" : 0,
										"default_fontname" : "Helvetica Neue Light Italic",
										"default_fontsize" : 12.0,
										"description" : "",
										"digest" : "",
										"fontface" : 0,
										"fontname" : "Helvetica Neue Light Italic",
										"fontsize" : 12.0,
										"globalpatchername" : "",
										"tags" : ""
									}
,
									"text" : "p TODO"
								}

							}
, 							{
								"box" : 								{
									"color" : [ 0.0, 0.572549, 0.0, 1.0 ],
									"fontname" : "Arial",
									"fontsize" : 14.0,
									"id" : "obj-44",
									"maxclass" : "newobj",
									"numinlets" : 0,
									"numoutlets" : 0,
									"patcher" : 									{
										"fileversion" : 1,
										"appversion" : 										{
											"major" : 6,
											"minor" : 1,
											"revision" : 7,
											"architecture" : "x86"
										}
,
										"rect" : [ 25.0, 69.0, 570.0, 463.0 ],
										"bglocked" : 0,
										"openinpresentation" : 0,
										"default_fontsize" : 12.0,
										"default_fontface" : 0,
										"default_fontname" : "Helvetica Neue Light Italic",
										"gridonopen" : 0,
										"gridsize" : [ 15.0, 15.0 ],
										"gridsnaponopen" : 0,
										"statusbarvisible" : 2,
										"toolbarvisible" : 1,
										"boxanimatetime" : 200,
										"imprint" : 0,
										"enablehscroll" : 1,
										"enablevscroll" : 1,
										"devicewidth" : 0.0,
										"description" : "",
										"digest" : "",
										"tags" : "",
										"boxes" : [ 											{
												"box" : 												{
													"fontname" : "Arial",
													"fontsize" : 12.0,
													"id" : "obj-3",
													"maxclass" : "flonum",
													"numinlets" : 1,
													"numoutlets" : 2,
													"outlettype" : [ "float", "bang" ],
													"parameter_enable" : 0,
													"patching_rect" : [ 391.833313, 349.0, 50.0, 20.0 ]
												}

											}
, 											{
												"box" : 												{
													"color" : [ 0.0, 0.572549, 0.811765, 1.0 ],
													"fontname" : "Arial",
													"fontsize" : 12.0,
													"id" : "obj-100",
													"maxclass" : "newobj",
													"numinlets" : 1,
													"numoutlets" : 1,
													"outlettype" : [ "" ],
													"patching_rect" : [ 24.333359, 407.0, 118.0, 20.0 ],
													"text" : "j.send noise.1/dim/y"
												}

											}
, 											{
												"box" : 												{
													"color" : [ 0.0, 0.572549, 0.811765, 1.0 ],
													"fontname" : "Arial",
													"fontsize" : 12.0,
													"id" : "obj-99",
													"maxclass" : "newobj",
													"numinlets" : 1,
													"numoutlets" : 1,
													"outlettype" : [ "" ],
													"patching_rect" : [ 162.333328, 405.0, 118.0, 20.0 ],
													"text" : "j.send noise.1/dim/x"
												}

											}
, 											{
												"box" : 												{
													"color" : [ 0.0, 0.572549, 0.811765, 1.0 ],
													"fontname" : "Arial",
													"fontsize" : 12.0,
													"id" : "obj-39",
													"maxclass" : "newobj",
													"numinlets" : 1,
													"numoutlets" : 1,
													"outlettype" : [ "" ],
													"patching_rect" : [ 391.833313, 405.0, 147.0, 20.0 ],
													"text" : "j.send plane.1/color/alpha"
												}

											}
, 											{
												"box" : 												{
													"fontname" : "Arial",
													"fontsize" : 12.0,
													"id" : "obj-79",
													"maxclass" : "number",
													"numinlets" : 1,
													"numoutlets" : 2,
													"outlettype" : [ "int", "bang" ],
													"parameter_enable" : 0,
													"patching_rect" : [ 82.733353, 89.0, 50.0, 20.0 ]
												}

											}
, 											{
												"box" : 												{
													"fontname" : "Arial",
													"fontsize" : 12.0,
													"id" : "obj-78",
													"maxclass" : "number",
													"numinlets" : 1,
													"numoutlets" : 2,
													"outlettype" : [ "int", "bang" ],
													"parameter_enable" : 0,
													"patching_rect" : [ 220.733322, 89.0, 50.0, 20.0 ]
												}

											}
, 											{
												"box" : 												{
													"fontname" : "Arial",
													"fontsize" : 12.0,
													"id" : "obj-71",
													"maxclass" : "newobj",
													"numinlets" : 6,
													"numoutlets" : 1,
													"outlettype" : [ "" ],
													"patching_rect" : [ 24.333359, 132.0, 92.0, 20.0 ],
													"text" : "scale 0. 1. 1 3"
												}

											}
, 											{
												"box" : 												{
													"fontname" : "Arial",
													"fontsize" : 12.0,
													"id" : "obj-69",
													"maxclass" : "flonum",
													"numinlets" : 1,
													"numoutlets" : 2,
													"outlettype" : [ "float", "bang" ],
													"parameter_enable" : 0,
													"patching_rect" : [ 162.333328, 349.0, 50.0, 20.0 ]
												}

											}
, 											{
												"box" : 												{
													"fontname" : "Arial",
													"fontsize" : 12.0,
													"id" : "obj-68",
													"maxclass" : "newobj",
													"numinlets" : 6,
													"numoutlets" : 1,
													"outlettype" : [ "" ],
													"patching_rect" : [ 162.333328, 132.0, 92.0, 20.0 ],
													"text" : "scale 0. 1. 1 40"
												}

											}
, 											{
												"box" : 												{
													"id" : "obj-65",
													"maxclass" : "button",
													"numinlets" : 1,
													"numoutlets" : 1,
													"outlettype" : [ "bang" ],
													"patching_rect" : [ 322.0, 89.0, 20.0, 20.0 ]
												}

											}
, 											{
												"box" : 												{
													"fontname" : "Arial",
													"fontsize" : 12.0,
													"id" : "obj-62",
													"maxclass" : "flonum",
													"numinlets" : 1,
													"numoutlets" : 2,
													"outlettype" : [ "float", "bang" ],
													"parameter_enable" : 0,
													"patching_rect" : [ 162.333328, 89.0, 50.0, 20.0 ]
												}

											}
, 											{
												"box" : 												{
													"fontname" : "Arial",
													"fontsize" : 12.0,
													"id" : "obj-60",
													"maxclass" : "flonum",
													"numinlets" : 1,
													"numoutlets" : 2,
													"outlettype" : [ "float", "bang" ],
													"parameter_enable" : 0,
													"patching_rect" : [ 24.333328, 89.0, 50.0, 20.0 ]
												}

											}
, 											{
												"box" : 												{
													"fontname" : "Arial",
													"fontsize" : 12.0,
													"id" : "obj-58",
													"maxclass" : "newobj",
													"numinlets" : 4,
													"numoutlets" : 4,
													"outlettype" : [ "", "", "", "" ],
													"patching_rect" : [ 24.333328, 51.0, 433.0, 20.0 ],
													"text" : "route /treble /bass /reset"
												}

											}
, 											{
												"box" : 												{
													"color" : [ 0.0, 0.572549, 0.811765, 1.0 ],
													"fontname" : "Arial",
													"fontsize" : 12.0,
													"id" : "obj-57",
													"maxclass" : "newobj",
													"numinlets" : 1,
													"numoutlets" : 1,
													"outlettype" : [ "" ],
													"patching_rect" : [ 24.333328, 19.0, 106.0, 20.0 ],
													"text" : "udpreceive 22222"
												}

											}
, 											{
												"box" : 												{
													"fontname" : "Arial",
													"fontsize" : 12.0,
													"id" : "obj-55",
													"maxclass" : "message",
													"numinlets" : 2,
													"numoutlets" : 1,
													"outlettype" : [ "" ],
													"patching_rect" : [ 342.333313, 216.0, 32.5, 18.0 ],
													"text" : "480"
												}

											}
, 											{
												"box" : 												{
													"fontname" : "Arial",
													"fontsize" : 12.0,
													"id" : "obj-54",
													"maxclass" : "message",
													"numinlets" : 2,
													"numoutlets" : 1,
													"outlettype" : [ "" ],
													"patching_rect" : [ 482.333313, 216.0, 67.0, 18.0 ],
													"text" : "1 6000"
												}

											}
, 											{
												"box" : 												{
													"fontname" : "Arial",
													"fontsize" : 12.0,
													"id" : "obj-53",
													"maxclass" : "newobj",
													"numinlets" : 3,
													"numoutlets" : 2,
													"outlettype" : [ "", "" ],
													"patching_rect" : [ 482.333313, 270.0, 46.0, 20.0 ],
													"text" : "line"
												}

											}
, 											{
												"box" : 												{
													"fontname" : "Arial",
													"fontsize" : 12.0,
													"id" : "obj-41",
													"maxclass" : "message",
													"numinlets" : 2,
													"numoutlets" : 1,
													"outlettype" : [ "" ],
													"patching_rect" : [ 300.333313, 216.0, 32.5, 18.0 ],
													"text" : "640"
												}

											}
, 											{
												"box" : 												{
													"id" : "obj-40",
													"maxclass" : "button",
													"numinlets" : 1,
													"numoutlets" : 1,
													"outlettype" : [ "bang" ],
													"patching_rect" : [ 300.333313, 178.0, 20.0, 20.0 ]
												}

											}
, 											{
												"box" : 												{
													"fontname" : "Arial",
													"fontsize" : 12.0,
													"id" : "obj-38",
													"maxclass" : "message",
													"numinlets" : 2,
													"numoutlets" : 1,
													"outlettype" : [ "" ],
													"patching_rect" : [ 413.833313, 216.0, 54.0, 18.0 ],
													"text" : "40 6000"
												}

											}
, 											{
												"box" : 												{
													"fontname" : "Arial",
													"fontsize" : 12.0,
													"id" : "obj-37",
													"maxclass" : "newobj",
													"numinlets" : 3,
													"numoutlets" : 2,
													"outlettype" : [ "", "" ],
													"patching_rect" : [ 300.333313, 270.0, 46.0, 20.0 ],
													"text" : "line"
												}

											}
, 											{
												"box" : 												{
													"fontname" : "Arial",
													"fontsize" : 12.0,
													"id" : "obj-36",
													"maxclass" : "number",
													"numinlets" : 1,
													"numoutlets" : 2,
													"outlettype" : [ "int", "bang" ],
													"parameter_enable" : 0,
													"patching_rect" : [ 24.333359, 349.0, 50.0, 20.0 ]
												}

											}
, 											{
												"box" : 												{
													"fontname" : "Arial",
													"fontsize" : 12.0,
													"id" : "obj-14",
													"maxclass" : "newobj",
													"numinlets" : 3,
													"numoutlets" : 2,
													"outlettype" : [ "", "" ],
													"patching_rect" : [ 391.833313, 178.0, 41.0, 20.0 ],
													"text" : "line"
												}

											}
, 											{
												"box" : 												{
													"fontname" : "Arial",
													"fontsize" : 18.0,
													"id" : "obj-8",
													"maxclass" : "message",
													"numinlets" : 2,
													"numoutlets" : 1,
													"outlettype" : [ "" ],
													"patching_rect" : [ 300.333313, 129.5, 84.0, 25.0 ],
													"text" : "0, 1. 100"
												}

											}
 ],
										"lines" : [ 											{
												"patchline" : 												{
													"destination" : [ "obj-3", 0 ],
													"disabled" : 0,
													"hidden" : 0,
													"source" : [ "obj-14", 0 ]
												}

											}
, 											{
												"patchline" : 												{
													"destination" : [ "obj-38", 0 ],
													"disabled" : 0,
													"hidden" : 0,
													"source" : [ "obj-14", 1 ]
												}

											}
, 											{
												"patchline" : 												{
													"destination" : [ "obj-54", 0 ],
													"disabled" : 0,
													"hidden" : 0,
													"source" : [ "obj-14", 1 ]
												}

											}
, 											{
												"patchline" : 												{
													"destination" : [ "obj-39", 0 ],
													"disabled" : 0,
													"hidden" : 0,
													"source" : [ "obj-3", 0 ]
												}

											}
, 											{
												"patchline" : 												{
													"destination" : [ "obj-100", 0 ],
													"disabled" : 0,
													"hidden" : 0,
													"source" : [ "obj-36", 0 ]
												}

											}
, 											{
												"patchline" : 												{
													"destination" : [ "obj-99", 0 ],
													"disabled" : 0,
													"hidden" : 0,
													"source" : [ "obj-37", 0 ]
												}

											}
, 											{
												"patchline" : 												{
													"destination" : [ "obj-37", 0 ],
													"disabled" : 0,
													"hidden" : 0,
													"source" : [ "obj-38", 0 ]
												}

											}
, 											{
												"patchline" : 												{
													"destination" : [ "obj-41", 0 ],
													"disabled" : 0,
													"hidden" : 0,
													"source" : [ "obj-40", 0 ]
												}

											}
, 											{
												"patchline" : 												{
													"destination" : [ "obj-55", 0 ],
													"disabled" : 0,
													"hidden" : 0,
													"source" : [ "obj-40", 0 ]
												}

											}
, 											{
												"patchline" : 												{
													"destination" : [ "obj-37", 0 ],
													"disabled" : 0,
													"hidden" : 0,
													"source" : [ "obj-41", 0 ]
												}

											}
, 											{
												"patchline" : 												{
													"destination" : [ "obj-36", 0 ],
													"disabled" : 0,
													"hidden" : 0,
													"source" : [ "obj-53", 0 ]
												}

											}
, 											{
												"patchline" : 												{
													"destination" : [ "obj-53", 0 ],
													"disabled" : 0,
													"hidden" : 0,
													"source" : [ "obj-54", 0 ]
												}

											}
, 											{
												"patchline" : 												{
													"destination" : [ "obj-53", 0 ],
													"disabled" : 0,
													"hidden" : 0,
													"source" : [ "obj-55", 0 ]
												}

											}
, 											{
												"patchline" : 												{
													"destination" : [ "obj-58", 0 ],
													"disabled" : 0,
													"hidden" : 0,
													"source" : [ "obj-57", 0 ]
												}

											}
, 											{
												"patchline" : 												{
													"destination" : [ "obj-60", 0 ],
													"disabled" : 0,
													"hidden" : 0,
													"source" : [ "obj-58", 0 ]
												}

											}
, 											{
												"patchline" : 												{
													"destination" : [ "obj-62", 0 ],
													"disabled" : 0,
													"hidden" : 0,
													"source" : [ "obj-58", 1 ]
												}

											}
, 											{
												"patchline" : 												{
													"destination" : [ "obj-65", 0 ],
													"disabled" : 0,
													"hidden" : 0,
													"source" : [ "obj-58", 2 ]
												}

											}
, 											{
												"patchline" : 												{
													"destination" : [ "obj-8", 0 ],
													"disabled" : 0,
													"hidden" : 0,
													"source" : [ "obj-58", 2 ]
												}

											}
, 											{
												"patchline" : 												{
													"destination" : [ "obj-71", 0 ],
													"disabled" : 0,
													"hidden" : 0,
													"source" : [ "obj-60", 0 ]
												}

											}
, 											{
												"patchline" : 												{
													"destination" : [ "obj-68", 0 ],
													"disabled" : 0,
													"hidden" : 0,
													"source" : [ "obj-62", 0 ]
												}

											}
, 											{
												"patchline" : 												{
													"destination" : [ "obj-69", 0 ],
													"disabled" : 0,
													"hidden" : 0,
													"source" : [ "obj-68", 0 ]
												}

											}
, 											{
												"patchline" : 												{
													"destination" : [ "obj-99", 0 ],
													"disabled" : 0,
													"hidden" : 0,
													"source" : [ "obj-69", 0 ]
												}

											}
, 											{
												"patchline" : 												{
													"destination" : [ "obj-36", 0 ],
													"disabled" : 0,
													"hidden" : 0,
													"source" : [ "obj-71", 0 ]
												}

											}
, 											{
												"patchline" : 												{
													"destination" : [ "obj-68", 4 ],
													"disabled" : 0,
													"hidden" : 0,
													"source" : [ "obj-78", 0 ]
												}

											}
, 											{
												"patchline" : 												{
													"destination" : [ "obj-71", 4 ],
													"disabled" : 0,
													"hidden" : 0,
													"source" : [ "obj-79", 0 ]
												}

											}
, 											{
												"patchline" : 												{
													"destination" : [ "obj-14", 0 ],
													"disabled" : 0,
													"hidden" : 0,
													"source" : [ "obj-8", 0 ]
												}

											}
, 											{
												"patchline" : 												{
													"destination" : [ "obj-40", 0 ],
													"disabled" : 0,
													"hidden" : 0,
													"source" : [ "obj-8", 0 ]
												}

											}
 ]
									}
,
									"patching_rect" : [ 30.0, 175.885742, 165.0, 22.0 ],
									"saved_object_attributes" : 									{
										"default_fontface" : 0,
										"default_fontname" : "Helvetica Neue Light Italic",
										"default_fontsize" : 12.0,
										"description" : "",
										"digest" : "",
										"fontface" : 0,
										"fontname" : "Helvetica Neue Light Italic",
										"fontsize" : 12.0,
										"globalpatchername" : "",
										"tags" : ""
									}
,
									"text" : "p VDMX INTERACTIION"
								}

							}
, 							{
								"box" : 								{
									"color" : [ 0.0, 0.572549, 0.0, 1.0 ],
									"fontname" : "Arial",
									"fontsize" : 14.0,
									"id" : "obj-21",
									"maxclass" : "newobj",
									"numinlets" : 0,
									"numoutlets" : 0,
									"patcher" : 									{
										"fileversion" : 1,
										"appversion" : 										{
											"major" : 6,
											"minor" : 1,
											"revision" : 7,
											"architecture" : "x86"
										}
,
										"rect" : [ 25.0, 69.0, 223.0, 289.0 ],
										"bglocked" : 0,
										"openinpresentation" : 0,
										"default_fontsize" : 12.0,
										"default_fontface" : 0,
										"default_fontname" : "Helvetica Neue Light Italic",
										"gridonopen" : 0,
										"gridsize" : [ 15.0, 15.0 ],
										"gridsnaponopen" : 0,
										"statusbarvisible" : 2,
										"toolbarvisible" : 1,
										"boxanimatetime" : 200,
										"imprint" : 0,
										"enablehscroll" : 1,
										"enablevscroll" : 1,
										"devicewidth" : 0.0,
										"description" : "",
										"digest" : "",
										"tags" : "",
										"boxes" : [ 											{
												"box" : 												{
													"fontname" : "Arial",
													"fontsize" : 12.0,
													"id" : "obj-21",
													"maxclass" : "newobj",
													"numinlets" : 1,
													"numoutlets" : 1,
													"outlettype" : [ "" ],
													"patching_rect" : [ 21.0, 106.5, 27.0, 20.0 ],
													"text" : "iter"
												}

											}
, 											{
												"box" : 												{
													"fontname" : "Arial",
													"fontsize" : 12.0,
													"id" : "obj-20",
													"maxclass" : "message",
													"numinlets" : 2,
													"numoutlets" : 1,
													"outlettype" : [ "" ],
													"patching_rect" : [ 21.0, 49.0, 32.5, 18.0 ],
													"text" : "/"
												}

											}
, 											{
												"box" : 												{
													"color" : [ 0.914481, 0.893157, 0.36304, 1.0 ],
													"fontname" : "Arial",
													"fontsize" : 12.0,
													"id" : "obj-16",
													"maxclass" : "newobj",
													"numinlets" : 1,
													"numoutlets" : 3,
													"outlettype" : [ "", "", "" ],
													"patching_rect" : [ 21.0, 77.248962, 171.0, 20.0 ],
													"text" : "j.namespace @filter/list model"
												}

											}
, 											{
												"box" : 												{
													"color" : [ 0.0, 0.572549, 0.811765, 1.0 ],
													"fontname" : "Arial",
													"fontsize" : 12.0,
													"id" : "obj-22",
													"maxclass" : "newobj",
													"numinlets" : 1,
													"numoutlets" : 1,
													"outlettype" : [ "" ],
													"patching_rect" : [ 21.0, 237.897278, 44.0, 20.0 ],
													"text" : "j.send"
												}

											}
, 											{
												"box" : 												{
													"fontname" : "Arial",
													"fontsize" : 12.0,
													"id" : "obj-24",
													"maxclass" : "newobj",
													"numinlets" : 1,
													"numoutlets" : 1,
													"outlettype" : [ "" ],
													"patching_rect" : [ 21.0, 169.0, 101.0, 20.0 ],
													"text" : "prepend address"
												}

											}
, 											{
												"box" : 												{
													"color" : [ 0.0, 0.572549, 0.811765, 1.0 ],
													"fontname" : "Arial",
													"fontsize" : 12.0,
													"id" : "obj-26",
													"maxclass" : "newobj",
													"numinlets" : 1,
													"numoutlets" : 2,
													"outlettype" : [ "bang", "" ],
													"patching_rect" : [ 21.0, 199.415588, 34.0, 20.0 ],
													"text" : "t b l"
												}

											}
, 											{
												"box" : 												{
													"fontname" : "Arial",
													"fontsize" : 12.0,
													"id" : "obj-27",
													"maxclass" : "newobj",
													"numinlets" : 2,
													"numoutlets" : 2,
													"outlettype" : [ "", "" ],
													"patching_rect" : [ 21.0, 136.0, 117.0, 20.0 ],
													"text" : "combine model :init"
												}

											}
, 											{
												"box" : 												{
													"color" : [ 0.0, 0.572549, 0.811765, 1.0 ],
													"fontname" : "Arial",
													"fontsize" : 12.0,
													"id" : "obj-33",
													"maxclass" : "newobj",
													"numinlets" : 0,
													"numoutlets" : 1,
													"outlettype" : [ "" ],
													"patching_rect" : [ 21.0, 13.0, 52.0, 20.0 ],
													"text" : "r rtvi/init"
												}

											}
 ],
										"lines" : [ 											{
												"patchline" : 												{
													"destination" : [ "obj-21", 0 ],
													"disabled" : 0,
													"hidden" : 0,
													"source" : [ "obj-16", 0 ]
												}

											}
, 											{
												"patchline" : 												{
													"destination" : [ "obj-16", 0 ],
													"disabled" : 0,
													"hidden" : 0,
													"source" : [ "obj-20", 0 ]
												}

											}
, 											{
												"patchline" : 												{
													"destination" : [ "obj-27", 0 ],
													"disabled" : 0,
													"hidden" : 0,
													"source" : [ "obj-21", 0 ]
												}

											}
, 											{
												"patchline" : 												{
													"destination" : [ "obj-26", 0 ],
													"disabled" : 0,
													"hidden" : 0,
													"source" : [ "obj-24", 0 ]
												}

											}
, 											{
												"patchline" : 												{
													"destination" : [ "obj-22", 0 ],
													"disabled" : 0,
													"hidden" : 0,
													"source" : [ "obj-26", 1 ]
												}

											}
, 											{
												"patchline" : 												{
													"destination" : [ "obj-22", 0 ],
													"disabled" : 0,
													"hidden" : 0,
													"source" : [ "obj-26", 0 ]
												}

											}
, 											{
												"patchline" : 												{
													"destination" : [ "obj-24", 0 ],
													"disabled" : 0,
													"hidden" : 0,
													"source" : [ "obj-27", 0 ]
												}

											}
, 											{
												"patchline" : 												{
													"destination" : [ "obj-20", 0 ],
													"disabled" : 0,
													"hidden" : 0,
													"source" : [ "obj-33", 0 ]
												}

											}
 ]
									}
,
									"patching_rect" : [ 30.0, 213.98819, 95.0, 22.0 ],
									"saved_object_attributes" : 									{
										"default_fontface" : 0,
										"default_fontname" : "Helvetica Neue Light Italic",
										"default_fontsize" : 12.0,
										"description" : "",
										"digest" : "",
										"fontface" : 0,
										"fontname" : "Helvetica Neue Light Italic",
										"fontsize" : 12.0,
										"globalpatchername" : "",
										"tags" : ""
									}
,
									"text" : "p initialisation"
								}

							}
, 							{
								"box" : 								{
									"color" : [ 0.0, 0.572549, 0.811765, 1.0 ],
									"fontname" : "Arial",
									"fontsize" : 12.0,
									"id" : "obj-5",
									"maxclass" : "newobj",
									"numinlets" : 0,
									"numoutlets" : 1,
									"outlettype" : [ "" ],
									"patching_rect" : [ 55.333313, 78.0, 52.0, 20.0 ],
									"text" : "r rtvi/init"
								}

							}
, 							{
								"box" : 								{
									"color" : [ 0.0, 0.572549, 0.0, 1.0 ],
									"fontname" : "Arial",
									"fontsize" : 14.0,
									"id" : "obj-48",
									"maxclass" : "newobj",
									"numinlets" : 0,
									"numoutlets" : 0,
									"patcher" : 									{
										"fileversion" : 1,
										"appversion" : 										{
											"major" : 6,
											"minor" : 1,
											"revision" : 7,
											"architecture" : "x86"
										}
,
										"rect" : [ 34.0, 245.0, 865.0, 537.0 ],
										"bglocked" : 0,
										"openinpresentation" : 0,
										"default_fontsize" : 12.0,
										"default_fontface" : 0,
										"default_fontname" : "Helvetica Neue Light Italic",
										"gridonopen" : 0,
										"gridsize" : [ 15.0, 15.0 ],
										"gridsnaponopen" : 0,
										"statusbarvisible" : 2,
										"toolbarvisible" : 0,
										"boxanimatetime" : 200,
										"imprint" : 0,
										"enablehscroll" : 1,
										"enablevscroll" : 1,
										"devicewidth" : 0.0,
										"description" : "",
										"digest" : "",
										"tags" : "",
										"boxes" : [ 											{
												"box" : 												{
													"color" : [ 0.0, 0.572549, 0.0, 1.0 ],
													"fontname" : "Arial",
													"fontsize" : 14.0,
													"id" : "obj-17",
													"maxclass" : "newobj",
													"numinlets" : 0,
													"numoutlets" : 0,
													"patcher" : 													{
														"fileversion" : 1,
														"appversion" : 														{
															"major" : 6,
															"minor" : 1,
															"revision" : 7,
															"architecture" : "x86"
														}
,
														"rect" : [ 1175.0, 369.0, 230.0, 260.0 ],
														"bglocked" : 0,
														"openinpresentation" : 0,
														"default_fontsize" : 12.0,
														"default_fontface" : 0,
														"default_fontname" : "Arial",
														"gridonopen" : 0,
														"gridsize" : [ 15.0, 15.0 ],
														"gridsnaponopen" : 0,
														"statusbarvisible" : 2,
														"toolbarvisible" : 1,
														"boxanimatetime" : 200,
														"imprint" : 0,
														"enablehscroll" : 1,
														"enablevscroll" : 1,
														"devicewidth" : 0.0,
														"description" : "",
														"digest" : "",
														"tags" : "",
														"boxes" : [ 															{
																"box" : 																{
																	"fontname" : "Arial",
																	"fontsize" : 12.0,
																	"id" : "obj-8",
																	"maxclass" : "newobj",
																	"numinlets" : 1,
																	"numoutlets" : 2,
																	"outlettype" : [ "", "" ],
																	"patching_rect" : [ 16.0, 217.5, 193.0, 20.0 ],
																	"text" : "j.return rtvi/texturelist @type string"
																}

															}
, 															{
																"box" : 																{
																	"color" : [ 0.0, 0.572549, 0.811765, 1.0 ],
																	"fontname" : "Arial",
																	"fontsize" : 12.0,
																	"id" : "obj-3",
																	"maxclass" : "newobj",
																	"numinlets" : 0,
																	"numoutlets" : 1,
																	"outlettype" : [ "" ],
																	"patching_rect" : [ 16.0, 21.0, 130.0, 20.0 ],
																	"text" : "r rtvi/texturelist/refresh"
																}

															}
, 															{
																"box" : 																{
																	"fontname" : "Arial",
																	"fontsize" : 12.0,
																	"id" : "obj-24",
																	"maxclass" : "newobj",
																	"numinlets" : 1,
																	"numoutlets" : 2,
																	"outlettype" : [ "", "clear" ],
																	"patching_rect" : [ 16.0, 128.0, 50.0, 20.0 ],
																	"text" : "t l clear"
																}

															}
, 															{
																"box" : 																{
																	"fontname" : "Arial",
																	"fontsize" : 12.0,
																	"id" : "obj-23",
																	"maxclass" : "newobj",
																	"numinlets" : 1,
																	"numoutlets" : 1,
																	"outlettype" : [ "" ],
																	"patching_rect" : [ 16.0, 161.0, 27.0, 20.0 ],
																	"text" : "iter"
																}

															}
, 															{
																"box" : 																{
																	"fontname" : "Arial",
																	"fontsize" : 12.0,
																	"id" : "obj-12",
																	"linecount" : 2,
																	"maxclass" : "message",
																	"numinlets" : 2,
																	"numoutlets" : 1,
																	"outlettype" : [ "" ],
																	"patching_rect" : [ 16.0, 53.0, 183.0, 31.0 ],
																	"text" : "filter/set toto object Container attribute tag value GLtexture, /"
																}

															}
, 															{
																"box" : 																{
																	"fontname" : "Arial",
																	"fontsize" : 12.0,
																	"id" : "obj-2",
																	"maxclass" : "newobj",
																	"numinlets" : 1,
																	"numoutlets" : 3,
																	"outlettype" : [ "", "", "" ],
																	"patching_rect" : [ 16.0, 98.0, 79.0, 20.0 ],
																	"text" : "j.namespace"
																}

															}
, 															{
																"box" : 																{
																	"fontname" : "Arial",
																	"fontsize" : 12.0,
																	"id" : "obj-13",
																	"maxclass" : "newobj",
																	"numinlets" : 1,
																	"numoutlets" : 1,
																	"outlettype" : [ "" ],
																	"patching_rect" : [ 16.0, 188.0, 99.0, 20.0 ],
																	"text" : "prepend append"
																}

															}
 ],
														"lines" : [ 															{
																"patchline" : 																{
																	"destination" : [ "obj-2", 0 ],
																	"disabled" : 0,
																	"hidden" : 0,
																	"source" : [ "obj-12", 0 ]
																}

															}
, 															{
																"patchline" : 																{
																	"destination" : [ "obj-8", 0 ],
																	"disabled" : 0,
																	"hidden" : 0,
																	"source" : [ "obj-13", 0 ]
																}

															}
, 															{
																"patchline" : 																{
																	"destination" : [ "obj-24", 0 ],
																	"disabled" : 0,
																	"hidden" : 0,
																	"source" : [ "obj-2", 0 ]
																}

															}
, 															{
																"patchline" : 																{
																	"destination" : [ "obj-13", 0 ],
																	"disabled" : 0,
																	"hidden" : 0,
																	"source" : [ "obj-23", 0 ]
																}

															}
, 															{
																"patchline" : 																{
																	"destination" : [ "obj-23", 0 ],
																	"disabled" : 0,
																	"hidden" : 0,
																	"source" : [ "obj-24", 0 ]
																}

															}
, 															{
																"patchline" : 																{
																	"destination" : [ "obj-12", 0 ],
																	"disabled" : 0,
																	"hidden" : 0,
																	"source" : [ "obj-3", 0 ]
																}

															}
 ]
													}
,
													"patching_rect" : [ 17.0, 343.0, 82.0, 22.0 ],
													"saved_object_attributes" : 													{
														"default_fontface" : 0,
														"default_fontname" : "Arial",
														"default_fontsize" : 12.0,
														"description" : "",
														"digest" : "",
														"fontface" : 0,
														"fontname" : "Arial",
														"fontsize" : 12.0,
														"globalpatchername" : "",
														"tags" : ""
													}
,
													"text" : "p texturelist"
												}

											}
, 											{
												"box" : 												{
													"annotation" : "A syphon client",
													"color" : [ 0.572549, 0.0, 0.0, 0.5 ],
													"fontname" : "Helvetica Light",
													"fontsize" : 12.0,
													"id" : "obj-19",
													"maxclass" : "newobj",
													"numinlets" : 1,
													"numoutlets" : 1,
													"outlettype" : [ "" ],
													"patching_rect" : [ 556.0, 133.13678, 216.0, 18.0 ],
													"text" : "syphonclient.model syphonclient.1 rtvi"
												}

											}
, 											{
												"box" : 												{
													"fontname" : "Arial",
													"fontsize" : 18.0,
													"frgb" : 0.0,
													"id" : "obj-15",
													"maxclass" : "comment",
													"numinlets" : 1,
													"numoutlets" : 0,
													"patching_rect" : [ 149.0, 121.634735, 166.0, 27.0 ],
													"text" : "SYPHON OUTPUT"
												}

											}
, 											{
												"box" : 												{
													"fontname" : "Arial",
													"fontsize" : 18.0,
													"frgb" : 0.0,
													"id" : "obj-4",
													"maxclass" : "comment",
													"numinlets" : 1,
													"numoutlets" : 0,
													"patching_rect" : [ 756.0, 13.634735, 100.0, 27.0 ],
													"text" : "SOURCES"
												}

											}
, 											{
												"box" : 												{
													"fontname" : "Arial",
													"fontsize" : 18.0,
													"frgb" : 0.0,
													"id" : "obj-3",
													"maxclass" : "comment",
													"numinlets" : 1,
													"numoutlets" : 0,
													"patching_rect" : [ 168.0, 13.634735, 147.0, 27.0 ],
													"text" : "3D RENDERING"
												}

											}
, 											{
												"box" : 												{
													"annotation" : "window for video",
													"color" : [ 0.572549, 0.0, 0.0, 0.5 ],
													"fontname" : "Helvetica Neue Light Italic",
													"fontsize" : 12.0,
													"id" : "obj-38",
													"maxclass" : "newobj",
													"numinlets" : 1,
													"numoutlets" : 1,
													"outlettype" : [ "" ],
													"patching_rect" : [ 17.0, 26.634735, 85.0, 20.0 ],
													"text" : "window.model"
												}

											}
, 											{
												"box" : 												{
													"annotation" : "framemotor engine",
													"color" : [ 0.572549, 0.0, 0.0, 0.5 ],
													"fontname" : "Helvetica Neue Light Italic",
													"fontsize" : 12.0,
													"id" : "obj-37",
													"maxclass" : "newobj",
													"numinlets" : 0,
													"numoutlets" : 0,
													"patching_rect" : [ 17.0, 166.252075, 153.0, 20.0 ],
													"text" : "syphon.model syphon.1 rtvi"
												}

											}
, 											{
												"box" : 												{
													"annotation" : "framemotor engine",
													"color" : [ 0.572549, 0.0, 0.0, 0.5 ],
													"fontname" : "Arial",
													"fontsize" : 12.0,
													"id" : "obj-47",
													"maxclass" : "newobj",
													"numinlets" : 1,
													"numoutlets" : 1,
													"outlettype" : [ "" ],
													"patching_rect" : [ 17.0, 81.338524, 167.0, 20.0 ],
													"text" : "framemotor.model clock.1 rtvi"
												}

											}
, 											{
												"box" : 												{
													"annotation" : "lines effect",
													"color" : [ 0.572549, 0.0, 0.0, 0.5 ],
													"fontname" : "Arial",
													"fontsize" : 12.0,
													"id" : "obj-1",
													"maxclass" : "newobj",
													"numinlets" : 1,
													"numoutlets" : 1,
													"outlettype" : [ "" ],
													"patching_rect" : [ 556.0, 250.853333, 130.0, 20.0 ],
													"text" : "lines.model lines.1 rtvi"
												}

											}
, 											{
												"box" : 												{
													"color" : [ 0.572549, 0.0, 0.0, 0.5 ],
													"fontname" : "Helvetica Neue Light Italic",
													"fontsize" : 12.0,
													"id" : "obj-20",
													"maxclass" : "newobj",
													"numinlets" : 1,
													"numoutlets" : 1,
													"outlettype" : [ "" ],
													"patching_rect" : [ 556.0, 377.897552, 198.0, 20.0 ],
													"text" : "poly~ plane.model 10 args plane rtvi"
												}

											}
, 											{
												"box" : 												{
													"annotation" : "blur effect",
													"color" : [ 0.572549, 0.0, 0.0, 0.5 ],
													"fontname" : "Arial",
													"fontsize" : 12.0,
													"id" : "obj-18",
													"maxclass" : "newobj",
													"numinlets" : 1,
													"numoutlets" : 1,
													"outlettype" : [ "" ],
													"patching_rect" : [ 556.0, 225.972412, 118.0, 20.0 ],
													"text" : "blur.model blur.1 rtvi"
												}

											}
, 											{
												"box" : 												{
													"annotation" : "A simple video player using codec HAP",
													"color" : [ 0.572549, 0.0, 0.0, 0.5 ],
													"fontname" : "Helvetica Light",
													"fontsize" : 12.0,
													"id" : "obj-84",
													"maxclass" : "newobj",
													"numinlets" : 1,
													"numoutlets" : 1,
													"outlettype" : [ "" ],
													"patching_rect" : [ 556.0, 74.729752, 127.0, 18.0 ],
													"text" : "hap.model hap.1 rtvi"
												}

											}
, 											{
												"box" : 												{
													"annotation" : "3D render",
													"color" : [ 0.572549, 0.0, 0.0, 0.5 ],
													"fontname" : "Helvetica Neue Light Italic",
													"fontsize" : 12.0,
													"id" : "obj-14",
													"maxclass" : "newobj",
													"numinlets" : 1,
													"numoutlets" : 1,
													"outlettype" : [ "" ],
													"patching_rect" : [ 17.0, 53.986629, 142.0, 20.0 ],
													"text" : "render.model render.1 rtvi"
												}

											}
, 											{
												"box" : 												{
													"fontname" : "Arial",
													"fontsize" : 24.0,
													"frgb" : 0.0,
													"id" : "obj-28",
													"maxclass" : "comment",
													"numinlets" : 1,
													"numoutlets" : 0,
													"patching_rect" : [ 337.0, 13.634735, 187.0, 33.0 ],
													"text" : "Open GL engine"
												}

											}
, 											{
												"box" : 												{
													"annotation" : "black generator",
													"color" : [ 0.0, 0.572549, 0.0, 1.0 ],
													"fontname" : "Arial",
													"fontsize" : 12.0,
													"id" : "obj-93",
													"maxclass" : "newobj",
													"numinlets" : 1,
													"numoutlets" : 1,
													"outlettype" : [ "" ],
													"patcher" : 													{
														"fileversion" : 1,
														"appversion" : 														{
															"major" : 6,
															"minor" : 1,
															"revision" : 7,
															"architecture" : "x86"
														}
,
														"rect" : [ 1009.0, 629.0, 432.0, 210.0 ],
														"bglocked" : 0,
														"openinpresentation" : 0,
														"default_fontsize" : 12.0,
														"default_fontface" : 0,
														"default_fontname" : "Helvetica Neue Light Italic",
														"gridonopen" : 0,
														"gridsize" : [ 15.0, 15.0 ],
														"gridsnaponopen" : 0,
														"statusbarvisible" : 2,
														"toolbarvisible" : 1,
														"boxanimatetime" : 200,
														"imprint" : 0,
														"enablehscroll" : 1,
														"enablevscroll" : 1,
														"devicewidth" : 0.0,
														"description" : "",
														"digest" : "",
														"tags" : "",
														"boxes" : [ 															{
																"box" : 																{
																	"comment" : "",
																	"id" : "obj-6",
																	"maxclass" : "outlet",
																	"numinlets" : 1,
																	"numoutlets" : 0,
																	"patching_rect" : [ 206.0, 159.0, 25.0, 25.0 ]
																}

															}
, 															{
																"box" : 																{
																	"comment" : "",
																	"id" : "obj-4",
																	"maxclass" : "inlet",
																	"numinlets" : 0,
																	"numoutlets" : 1,
																	"outlettype" : [ "" ],
																	"patching_rect" : [ 206.0, 46.0, 25.0, 25.0 ]
																}

															}
, 															{
																"box" : 																{
																	"fontname" : "Helvetica Neue Light Italic",
																	"fontsize" : 12.0,
																	"id" : "obj-1",
																	"linecount" : 4,
																	"maxclass" : "newobj",
																	"numinlets" : 1,
																	"numoutlets" : 2,
																	"outlettype" : [ "", "" ],
																	"patching_rect" : [ 206.0, 77.0, 133.0, 62.0 ],
																	"text" : "j.model black @description \"black generator\" @tag GLtexture"
																}

															}
, 															{
																"box" : 																{
																	"fontname" : "Arial",
																	"fontsize" : 12.0,
																	"id" : "obj-92",
																	"maxclass" : "newobj",
																	"numinlets" : 1,
																	"numoutlets" : 1,
																	"outlettype" : [ "bang" ],
																	"patching_rect" : [ 12.0, 7.0, 60.0, 20.0 ],
																	"text" : "loadbang"
																}

															}
, 															{
																"box" : 																{
																	"id" : "obj-91",
																	"maxclass" : "button",
																	"numinlets" : 1,
																	"numoutlets" : 1,
																	"outlettype" : [ "bang" ],
																	"patching_rect" : [ 12.0, 39.0, 20.0, 20.0 ]
																}

															}
, 															{
																"box" : 																{
																	"fontname" : "Arial",
																	"fontsize" : 12.0,
																	"id" : "obj-89",
																	"maxclass" : "newobj",
																	"numinlets" : 4,
																	"numoutlets" : 2,
																	"outlettype" : [ "jit_matrix", "" ],
																	"patching_rect" : [ 12.0, 119.0, 59.5, 20.0 ],
																	"text" : "jit.pack"
																}

															}
, 															{
																"box" : 																{
																	"fontname" : "Arial",
																	"fontsize" : 12.0,
																	"id" : "obj-88",
																	"maxclass" : "newobj",
																	"numinlets" : 1,
																	"numoutlets" : 2,
																	"outlettype" : [ "jit_matrix", "" ],
																	"patching_rect" : [ 12.0, 64.0, 112.0, 20.0 ],
																	"text" : "jit.matrix 1 char 1 1"
																}

															}
, 															{
																"box" : 																{
																	"fontname" : "Arial",
																	"fontsize" : 12.0,
																	"id" : "obj-85",
																	"linecount" : 2,
																	"maxclass" : "newobj",
																	"numinlets" : 1,
																	"numoutlets" : 2,
																	"outlettype" : [ "jit_gl_texture", "" ],
																	"patching_rect" : [ 12.0, 156.0, 154.0, 33.0 ],
																	"text" : "jit.gl.texture rtvi @name black"
																}

															}
 ],
														"lines" : [ 															{
																"patchline" : 																{
																	"destination" : [ "obj-6", 0 ],
																	"disabled" : 0,
																	"hidden" : 0,
																	"source" : [ "obj-1", 0 ]
																}

															}
, 															{
																"patchline" : 																{
																	"destination" : [ "obj-1", 0 ],
																	"disabled" : 0,
																	"hidden" : 0,
																	"source" : [ "obj-4", 0 ]
																}

															}
, 															{
																"patchline" : 																{
																	"destination" : [ "obj-89", 3 ],
																	"disabled" : 0,
																	"hidden" : 0,
																	"source" : [ "obj-88", 0 ]
																}

															}
, 															{
																"patchline" : 																{
																	"destination" : [ "obj-89", 2 ],
																	"disabled" : 0,
																	"hidden" : 0,
																	"source" : [ "obj-88", 0 ]
																}

															}
, 															{
																"patchline" : 																{
																	"destination" : [ "obj-89", 1 ],
																	"disabled" : 0,
																	"hidden" : 0,
																	"source" : [ "obj-88", 0 ]
																}

															}
, 															{
																"patchline" : 																{
																	"destination" : [ "obj-89", 0 ],
																	"disabled" : 0,
																	"hidden" : 0,
																	"source" : [ "obj-88", 0 ]
																}

															}
, 															{
																"patchline" : 																{
																	"destination" : [ "obj-85", 0 ],
																	"disabled" : 0,
																	"hidden" : 0,
																	"source" : [ "obj-89", 0 ]
																}

															}
, 															{
																"patchline" : 																{
																	"destination" : [ "obj-88", 0 ],
																	"disabled" : 0,
																	"hidden" : 0,
																	"source" : [ "obj-91", 0 ]
																}

															}
, 															{
																"patchline" : 																{
																	"destination" : [ "obj-91", 0 ],
																	"disabled" : 0,
																	"hidden" : 0,
																	"source" : [ "obj-92", 0 ]
																}

															}
 ]
													}
,
													"patching_rect" : [ 556.0, 104.510742, 50.0, 20.0 ],
													"saved_object_attributes" : 													{
														"default_fontface" : 0,
														"default_fontname" : "Helvetica Neue Light Italic",
														"default_fontsize" : 12.0,
														"description" : "",
														"digest" : "",
														"fontface" : 0,
														"fontname" : "Helvetica Neue Light Italic",
														"fontsize" : 12.0,
														"globalpatchername" : "",
														"tags" : ""
													}
,
													"text" : "p black"
												}

											}
, 											{
												"box" : 												{
													"annotation" : "color-controls",
													"color" : [ 0.572549, 0.0, 0.0, 0.5 ],
													"fontname" : "Arial",
													"fontsize" : 12.0,
													"id" : "obj-8",
													"maxclass" : "newobj",
													"numinlets" : 1,
													"numoutlets" : 1,
													"outlettype" : [ "" ],
													"patching_rect" : [ 556.0, 201.091492, 157.0, 20.0 ],
													"text" : "color-control.model cc.1 rtvi"
												}

											}
, 											{
												"box" : 												{
													"annotation" : "color generator",
													"color" : [ 0.572549, 0.0, 0.0, 0.5 ],
													"fontname" : "Arial",
													"fontsize" : 12.0,
													"id" : "obj-9",
													"maxclass" : "newobj",
													"numinlets" : 1,
													"numoutlets" : 1,
													"outlettype" : [ "" ],
													"patching_rect" : [ 556.0, 46.872421, 130.0, 20.0 ],
													"text" : "color.model color.1 rtvi"
												}

											}
, 											{
												"box" : 												{
													"fontname" : "Arial",
													"fontsize" : 12.0,
													"frgb" : 0.0,
													"id" : "obj-42",
													"linecount" : 2,
													"maxclass" : "comment",
													"numinlets" : 1,
													"numoutlets" : 0,
													"patching_rect" : [ 549.0, 491.397522, 303.0, 33.0 ],
													"text" : "each output can choose at least one texture for displaying and one texture for masking"
												}

											}
, 											{
												"box" : 												{
													"fontname" : "Arial",
													"fontsize" : 12.0,
													"frgb" : 0.0,
													"id" : "obj-35",
													"linecount" : 2,
													"maxclass" : "comment",
													"numinlets" : 1,
													"numoutlets" : 0,
													"patching_rect" : [ 549.0, 323.965454, 303.0, 33.0 ],
													"text" : "each process can choose at least one texture as input and publish another texture"
												}

											}
, 											{
												"box" : 												{
													"fontname" : "Arial",
													"fontsize" : 18.0,
													"frgb" : 0.0,
													"id" : "obj-30",
													"maxclass" : "comment",
													"numinlets" : 1,
													"numoutlets" : 0,
													"patching_rect" : [ 756.0, 194.091492, 99.0, 27.0 ],
													"text" : "PROCESS"
												}

											}
, 											{
												"box" : 												{
													"fontname" : "Arial",
													"fontsize" : 18.0,
													"frgb" : 0.0,
													"id" : "obj-29",
													"maxclass" : "comment",
													"numinlets" : 1,
													"numoutlets" : 0,
													"patching_rect" : [ 760.0, 370.897552, 96.0, 27.0 ],
													"text" : "OUTPUTS"
												}

											}
, 											{
												"box" : 												{
													"annotation" : "noise generator",
													"color" : [ 0.572549, 0.0, 0.0, 0.5 ],
													"fontname" : "Arial",
													"fontsize" : 12.0,
													"id" : "obj-10",
													"maxclass" : "newobj",
													"numinlets" : 1,
													"numoutlets" : 1,
													"outlettype" : [ "" ],
													"patching_rect" : [ 556.0, 19.015091, 135.0, 20.0 ],
													"text" : "noise.model noise.1 rtvi"
												}

											}
, 											{
												"box" : 												{
													"bgcolor" : [ 0.666667, 0.666667, 0.666667, 0.0 ],
													"border" : 1,
													"id" : "obj-11",
													"maxclass" : "panel",
													"numinlets" : 1,
													"numoutlets" : 0,
													"patching_rect" : [ 549.0, 194.091492, 303.0, 162.873962 ],
													"rounded" : 0
												}

											}
, 											{
												"box" : 												{
													"bgcolor" : [ 0.666667, 0.666667, 0.666667, 0.0 ],
													"border" : 1,
													"id" : "obj-2",
													"maxclass" : "panel",
													"numinlets" : 1,
													"numoutlets" : 0,
													"patching_rect" : [ 8.0, 13.634735, 303.0, 96.991302 ]
												}

											}
, 											{
												"box" : 												{
													"bgcolor" : [ 0.666667, 0.666667, 0.666667, 0.0 ],
													"border" : 1,
													"id" : "obj-22",
													"maxclass" : "panel",
													"numinlets" : 1,
													"numoutlets" : 0,
													"patching_rect" : [ 549.0, 370.897552, 303.0, 153.5 ],
													"rounded" : 0
												}

											}
, 											{
												"box" : 												{
													"fontname" : "Arial",
													"fontsize" : 12.0,
													"frgb" : 0.0,
													"id" : "obj-34",
													"maxclass" : "comment",
													"numinlets" : 1,
													"numoutlets" : 0,
													"patching_rect" : [ 549.0, 160.13678, 291.0, 20.0 ],
													"text" : "each source publishes at least one GLtexture texture"
												}

											}
, 											{
												"box" : 												{
													"bgcolor" : [ 0.666667, 0.666667, 0.666667, 0.0 ],
													"border" : 1,
													"id" : "obj-6",
													"maxclass" : "panel",
													"numinlets" : 1,
													"numoutlets" : 0,
													"patching_rect" : [ 549.0, 13.634735, 303.0, 166.502045 ]
												}

											}
, 											{
												"box" : 												{
													"bgcolor" : [ 0.666667, 0.666667, 0.666667, 0.0 ],
													"border" : 1,
													"id" : "obj-16",
													"maxclass" : "panel",
													"numinlets" : 1,
													"numoutlets" : 0,
													"patching_rect" : [ 8.0, 121.634735, 303.0, 96.991302 ]
												}

											}
 ],
										"lines" : [  ]
									}
,
									"patching_rect" : [ 30.0, 144.5, 72.0, 22.0 ],
									"saved_object_attributes" : 									{
										"default_fontface" : 0,
										"default_fontname" : "Helvetica Neue Light Italic",
										"default_fontsize" : 12.0,
										"description" : "",
										"digest" : "",
										"fontface" : 0,
										"fontname" : "Helvetica Neue Light Italic",
										"fontsize" : 12.0,
										"globalpatchername" : "",
										"tags" : ""
									}
,
									"text" : "p openGL"
								}

							}
, 							{
								"box" : 								{
									"fontname" : "Arial",
									"fontsize" : 12.0,
									"id" : "obj-11",
									"linecount" : 2,
									"maxclass" : "message",
									"numinlets" : 2,
									"numoutlets" : 1,
									"outlettype" : [ "" ],
									"patching_rect" : [ 291.166687, 100.0, 72.0, 31.0 ],
									"text" : "namespace/unselect /"
								}

							}
, 							{
								"box" : 								{
									"fontname" : "Arial",
									"fontsize" : 12.0,
									"id" : "obj-16",
									"linecount" : 2,
									"maxclass" : "message",
									"numinlets" : 2,
									"numoutlets" : 1,
									"outlettype" : [ "" ],
									"patching_rect" : [ 175.666687, 100.0, 109.0, 31.0 ],
									"text" : "namespace/select myselection"
								}

							}
, 							{
								"box" : 								{
									"fontname" : "Arial",
									"fontsize" : 12.0,
									"id" : "obj-19",
									"maxclass" : "newobj",
									"numinlets" : 1,
									"numoutlets" : 2,
									"outlettype" : [ "bang", "bang" ],
									"patching_rect" : [ 175.666687, 66.0, 134.5, 20.0 ],
									"text" : "b"
								}

							}
, 							{
								"box" : 								{
									"color" : [ 0.0, 0.572549, 0.811765, 1.0 ],
									"fontname" : "Arial",
									"fontsize" : 12.0,
									"id" : "obj-20",
									"maxclass" : "newobj",
									"numinlets" : 1,
									"numoutlets" : 0,
									"patching_rect" : [ 291.166687, 159.5, 49.0, 20.0 ],
									"text" : "s cue.1"
								}

							}
, 							{
								"box" : 								{
									"color" : [ 0.0, 0.572549, 0.811765, 1.0 ],
									"fontname" : "Arial",
									"fontsize" : 12.0,
									"id" : "obj-2",
									"maxclass" : "newobj",
									"numinlets" : 1,
									"numoutlets" : 0,
									"patching_rect" : [ 30.0, 111.0, 137.0, 20.0 ],
									"text" : "s rtvi/texturelist/refresh"
								}

							}
, 							{
								"box" : 								{
									"comment" : "",
									"id" : "obj-22",
									"maxclass" : "inlet",
									"numinlets" : 0,
									"numoutlets" : 1,
									"outlettype" : [ "bang" ],
									"patching_rect" : [ 30.0, 15.0, 25.0, 25.0 ]
								}

							}
 ],
						"lines" : [ 							{
								"patchline" : 								{
									"destination" : [ "obj-20", 0 ],
									"disabled" : 0,
									"hidden" : 0,
									"source" : [ "obj-11", 0 ]
								}

							}
, 							{
								"patchline" : 								{
									"destination" : [ "obj-20", 0 ],
									"disabled" : 0,
									"hidden" : 0,
									"source" : [ "obj-16", 0 ]
								}

							}
, 							{
								"patchline" : 								{
									"destination" : [ "obj-11", 0 ],
									"disabled" : 0,
									"hidden" : 0,
									"source" : [ "obj-19", 1 ]
								}

							}
, 							{
								"patchline" : 								{
									"destination" : [ "obj-16", 0 ],
									"disabled" : 0,
									"hidden" : 0,
									"source" : [ "obj-19", 0 ]
								}

							}
, 							{
								"patchline" : 								{
									"destination" : [ "obj-19", 0 ],
									"disabled" : 0,
									"hidden" : 0,
									"source" : [ "obj-22", 0 ]
								}

							}
, 							{
								"patchline" : 								{
									"destination" : [ "obj-2", 0 ],
									"disabled" : 0,
									"hidden" : 0,
									"source" : [ "obj-22", 0 ]
								}

							}
, 							{
								"patchline" : 								{
									"destination" : [ "obj-2", 0 ],
									"disabled" : 0,
									"hidden" : 0,
									"source" : [ "obj-5", 0 ]
								}

							}
 ]
					}
,
					"patching_rect" : [ 14.333313, 42.5, 64.0, 22.0 ],
					"saved_object_attributes" : 					{
						"default_fontface" : 0,
						"default_fontname" : "Helvetica Neue Light Italic",
						"default_fontsize" : 12.0,
						"description" : "",
						"digest" : "",
						"fontface" : 0,
						"fontname" : "Helvetica Neue Light Italic",
						"fontsize" : 12.0,
						"globalpatchername" : "",
						"tags" : ""
					}
,
					"text" : "p engine"
				}

			}
, 			{
				"box" : 				{
					"annotation" : "none",
					"args" : [ "syphonclient.1" ],
					"border" : 1,
					"id" : "obj-2",
					"maxclass" : "bpatcher",
					"name" : "syphonclient.view.maxpat",
					"numinlets" : 1,
					"numoutlets" : 0,
					"patching_rect" : [ 705.333313, 4.5, 257.0, 76.0 ],
					"presentation" : 1,
					"presentation_rect" : [ 6.5, 83.5, 257.0, 76.0 ]
				}

			}
, 			{
				"box" : 				{
					"color" : [ 0.0, 0.572549, 0.811765, 1.0 ],
					"fontname" : "Arial",
					"fontsize" : 12.0,
					"id" : "obj-14",
					"maxclass" : "newobj",
					"numinlets" : 1,
					"numoutlets" : 0,
					"patching_rect" : [ 14.333313, 449.5, 55.0, 20.0 ],
					"text" : "s rtvi/init"
				}

			}
, 			{
				"box" : 				{
					"annotation" : "none",
					"args" : [ "lines.1", "rtvi" ],
					"border" : 1,
					"id" : "obj-36",
					"maxclass" : "bpatcher",
					"name" : "lines.view.maxpat",
					"numinlets" : 1,
					"numoutlets" : 0,
					"patching_rect" : [ 344.333313, 155.0, 257.0, 85.5 ],
					"presentation" : 1,
					"presentation_rect" : [ 516.5, 179.0, 257.0, 85.5 ]
				}

			}
, 			{
				"box" : 				{
					"fontname" : "Arial",
					"fontsize" : 18.0,
					"id" : "obj-29",
					"maxclass" : "textbutton",
					"numinlets" : 1,
					"numoutlets" : 3,
					"outlettype" : [ "", "", "int" ],
					"parameter_enable" : 0,
					"patching_rect" : [ 14.333313, 410.0, 71.0, 29.0 ],
					"presentation" : 1,
					"presentation_rect" : [ 293.5, 107.0, 71.0, 29.0 ],
					"text" : "init"
				}

			}
, 			{
				"box" : 				{
					"annotation" : "none",
					"args" : [ "cue.1" ],
					"border" : 1,
					"id" : "obj-8",
					"maxclass" : "bpatcher",
					"name" : "cue.view.maxpat",
					"numinlets" : 0,
					"numoutlets" : 0,
					"patching_rect" : [ 714.333313, 284.0, 382.0, 201.0 ],
					"presentation" : 1,
					"presentation_rect" : [ 826.5, 8.5, 391.0, 486.0 ]
				}

			}
, 			{
				"box" : 				{
					"annotation" : "none",
					"args" : [ "blur.1" ],
					"border" : 1,
					"id" : "obj-10",
					"maxclass" : "bpatcher",
					"name" : "blur.view.maxpat",
					"numinlets" : 1,
					"numoutlets" : 0,
					"patching_rect" : [ 88.333313, 155.0, 257.0, 85.5 ],
					"presentation" : 1,
					"presentation_rect" : [ 261.5, 179.0, 256.0, 85.5 ]
				}

			}
, 			{
				"box" : 				{
					"annotation" : "none",
					"args" : [ "hap.1" ],
					"border" : 1,
					"id" : "obj-7",
					"maxclass" : "bpatcher",
					"name" : "hap.view.maxpat",
					"numinlets" : 0,
					"numoutlets" : 0,
					"patching_rect" : [ 692.333313, 122.0, 426.0, 151.5 ],
					"presentation" : 1,
					"presentation_rect" : [ 382.5, 8.5, 425.0, 151.0 ]
				}

			}
, 			{
				"box" : 				{
					"annotation" : "none",
					"args" : [ "render.1" ],
					"border" : 1,
					"id" : "obj-6",
					"maxclass" : "bpatcher",
					"name" : "render.view.maxpat",
					"numinlets" : 1,
					"numoutlets" : 0,
					"patching_rect" : [ 14.333313, 295.751038, 244.0, 101.0 ],
					"presentation" : 1,
					"presentation_rect" : [ 6.5, 319.751038, 247.0, 122.0 ]
				}

			}
, 			{
				"box" : 				{
					"fontname" : "Arial",
					"fontsize" : 12.0,
					"id" : "obj-1",
					"maxclass" : "newobj",
					"numinlets" : 1,
					"numoutlets" : 1,
					"outlettype" : [ "bang" ],
					"patching_rect" : [ 14.333313, 15.5, 61.0, 20.0 ],
					"text" : "loadbang"
				}

			}
, 			{
				"box" : 				{
					"annotation" : "none",
					"args" : [ "cc.1" ],
					"border" : 1,
					"id" : "obj-4",
					"maxclass" : "bpatcher",
					"name" : "color-control.view.maxpat",
					"numinlets" : 1,
					"numoutlets" : 0,
					"patching_rect" : [ 463.333313, 4.5, 243.0, 76.0 ],
					"presentation" : 1,
					"presentation_rect" : [ 6.5, 179.0, 256.0, 85.5 ]
				}

			}
, 			{
				"box" : 				{
					"annotation" : "none",
					"args" : [ "color.1" ],
					"border" : 1,
					"id" : "obj-3",
					"maxclass" : "bpatcher",
					"name" : "color.view.maxpat",
					"numinlets" : 1,
					"numoutlets" : 0,
					"patching_rect" : [ 344.333313, 4.5, 120.0, 76.0 ],
					"presentation" : 1,
					"presentation_rect" : [ 263.5, 8.5, 120.0, 76.0 ]
				}

			}
, 			{
				"box" : 				{
					"annotation" : "none",
					"args" : [ "noise.1" ],
					"border" : 1,
					"id" : "obj-25",
					"maxclass" : "bpatcher",
					"name" : "noise.view.maxpat",
					"numinlets" : 1,
					"numoutlets" : 0,
					"patching_rect" : [ 88.333313, 4.5, 257.0, 76.0 ],
					"presentation" : 1,
					"presentation_rect" : [ 7.5, 8.5, 257.0, 76.0 ]
				}

			}
, 			{
				"box" : 				{
					"annotation" : "none",
					"args" : [ "plane.1" ],
					"border" : 1,
					"id" : "obj-15",
					"maxclass" : "bpatcher",
					"name" : "plane.view.maxpat",
					"numinlets" : 1,
					"numoutlets" : 0,
					"patching_rect" : [ 413.333313, 295.751038, 257.0, 122.0 ],
					"presentation" : 1,
					"presentation_rect" : [ 252.5, 319.751038, 257.0, 122.0 ]
				}

			}
 ],
		"lines" : [ 			{
				"patchline" : 				{
					"destination" : [ "obj-5", 0 ],
					"disabled" : 0,
					"hidden" : 0,
					"source" : [ "obj-1", 0 ]
				}

			}
, 			{
				"patchline" : 				{
					"destination" : [ "obj-14", 0 ],
					"disabled" : 0,
					"hidden" : 0,
					"source" : [ "obj-29", 0 ]
				}

			}
 ],
		"dependency_cache" : [ 			{
				"name" : "plane.view.maxpat",
				"bootpath" : "/Volumes/data/RENAUD/GITs/RTVI/max-package/patchers",
				"patcherrelativepath" : "./max-package/patchers",
				"type" : "JSON",
				"implicit" : 1
			}
, 			{
				"name" : "noise.view.maxpat",
				"bootpath" : "/Volumes/data/RENAUD/GITs/RTVI/max-package/patchers",
				"patcherrelativepath" : "./max-package/patchers",
				"type" : "JSON",
				"implicit" : 1
			}
, 			{
				"name" : "color.view.maxpat",
				"bootpath" : "/Volumes/data/RENAUD/GITs/RTVI/max-package/patchers",
				"patcherrelativepath" : "./max-package/patchers",
				"type" : "JSON",
				"implicit" : 1
			}
, 			{
				"name" : "color-control.view.maxpat",
				"bootpath" : "/Volumes/data/RENAUD/GITs/RTVI/max-package/patchers",
				"patcherrelativepath" : "./max-package/patchers",
				"type" : "JSON",
				"implicit" : 1
			}
, 			{
				"name" : "render.view.maxpat",
				"bootpath" : "/Volumes/data/RENAUD/GITs/RTVI/max-package/patchers",
				"patcherrelativepath" : "./max-package/patchers",
				"type" : "JSON",
				"implicit" : 1
			}
, 			{
				"name" : "hap.view.maxpat",
				"bootpath" : "/Volumes/data/RENAUD/GITs/RTVI/max-package/patchers",
				"patcherrelativepath" : "./max-package/patchers",
				"type" : "JSON",
				"implicit" : 1
			}
, 			{
				"name" : "span.requests.maxpat",
				"bootpath" : "/Volumes/data/RENAUD/GITs/bulle musicale/patchers",
				"patcherrelativepath" : "../bulle musicale/patchers",
				"type" : "JSON",
				"implicit" : 1
			}
, 			{
				"name" : "blur.view.maxpat",
				"bootpath" : "/Volumes/data/RENAUD/GITs/RTVI/max-package/patchers",
				"patcherrelativepath" : "./max-package/patchers",
				"type" : "JSON",
				"implicit" : 1
			}
, 			{
				"name" : "cue.view.maxpat",
				"bootpath" : "/Volumes/data/RENAUD/GITs/RTVI/max-package/patchers",
				"patcherrelativepath" : "./max-package/patchers",
				"type" : "JSON",
				"implicit" : 1
			}
, 			{
				"name" : "j.datetime.maxpat",
				"bootpath" : "/Volumes/data/RENAUD/GITs/Jamoma-a32/Jamoma/patchers/components/datetime",
				"patcherrelativepath" : "../Jamoma-a32/Jamoma/patchers/components/datetime",
				"type" : "JSON",
				"implicit" : 1
			}
, 			{
				"name" : "thru.maxpat",
				"bootpath" : "/Applications/Max 6.1/patches/m4l-patches/Pluggo for Live resources/patches",
				"patcherrelativepath" : "../../../../../Applications/Max 6.1/patches/m4l-patches/Pluggo for Live resources/patches",
				"type" : "JSON",
				"implicit" : 1
			}
, 			{
				"name" : "lines.view.maxpat",
				"bootpath" : "/Volumes/data/RENAUD/GITs/RTVI/max-package/patchers",
				"patcherrelativepath" : "./max-package/patchers",
				"type" : "JSON",
				"implicit" : 1
			}
, 			{
				"name" : "syphonclient.view.maxpat",
				"bootpath" : "/Volumes/data/RENAUD/GITs/RTVI/max-package/patchers",
				"patcherrelativepath" : "./max-package/patchers",
				"type" : "JSON",
				"implicit" : 1
			}
, 			{
				"name" : "noise.model.maxpat",
				"bootpath" : "/Volumes/data/RENAUD/GITs/RTVI/max-package/patchers",
				"patcherrelativepath" : "./max-package/patchers",
				"type" : "JSON",
				"implicit" : 1
			}
, 			{
				"name" : "color.model.maxpat",
				"bootpath" : "/Volumes/data/RENAUD/GITs/RTVI/max-package/patchers",
				"patcherrelativepath" : "./max-package/patchers",
				"type" : "JSON",
				"implicit" : 1
			}
, 			{
				"name" : "color-control.model.maxpat",
				"bootpath" : "/Volumes/data/RENAUD/GITs/RTVI/max-package/patchers",
				"patcherrelativepath" : "./max-package/patchers",
				"type" : "JSON",
				"implicit" : 1
			}
, 			{
				"name" : "render.model.maxpat",
				"bootpath" : "/Volumes/data/RENAUD/GITs/RTVI/max-package/patchers",
				"patcherrelativepath" : "./max-package/patchers",
				"type" : "JSON",
				"implicit" : 1
			}
, 			{
				"name" : "hap.model.maxpat",
				"bootpath" : "/Volumes/data/RENAUD/GITs/RTVI/max-package/patchers",
				"patcherrelativepath" : "./max-package/patchers",
				"type" : "JSON",
				"implicit" : 1
			}
, 			{
				"name" : "blur.model.maxpat",
				"bootpath" : "/Volumes/data/RENAUD/GITs/RTVI/max-package/patchers",
				"patcherrelativepath" : "./max-package/patchers",
				"type" : "JSON",
				"implicit" : 1
			}
, 			{
				"name" : "jit.gl.slab.gauss6x.maxpat",
				"bootpath" : "/Applications/Max 6.1/examples/jitter-examples/render/slab",
				"patcherrelativepath" : "../../../../../Applications/Max 6.1/examples/jitter-examples/render/slab",
				"type" : "JSON",
				"implicit" : 1
			}
, 			{
				"name" : "plane.model.maxpat",
				"bootpath" : "/Volumes/data/RENAUD/GITs/RTVI/max-package/patchers",
				"patcherrelativepath" : "./max-package/patchers",
				"type" : "JSON",
				"implicit" : 1
			}
, 			{
				"name" : "lines.model.maxpat",
				"bootpath" : "/Volumes/data/RENAUD/GITs/RTVI/max-package/patchers",
				"patcherrelativepath" : "./max-package/patchers",
				"type" : "JSON",
				"implicit" : 1
			}
, 			{
				"name" : "framemotor.model.maxpat",
				"bootpath" : "/Volumes/data/RENAUD/GITs/RTVI/max-package/patchers",
				"patcherrelativepath" : "./max-package/patchers",
				"type" : "JSON",
				"implicit" : 1
			}
, 			{
				"name" : "syphon.model.maxpat",
				"bootpath" : "/Volumes/data/RENAUD/GITs/RTVI/max-package/patchers",
				"patcherrelativepath" : "./max-package/patchers",
				"type" : "JSON",
				"implicit" : 1
			}
, 			{
				"name" : "window.model.maxpat",
				"bootpath" : "/Volumes/data/RENAUD/GITs/RTVI/max-package/patchers",
				"patcherrelativepath" : "./max-package/patchers",
				"type" : "JSON",
				"implicit" : 1
			}
, 			{
				"name" : "syphonclient.model.maxpat",
				"bootpath" : "/Volumes/data/RENAUD/GITs/RTVI/max-package/patchers",
				"patcherrelativepath" : "./max-package/patchers",
				"type" : "JSON",
				"implicit" : 1
			}
, 			{
				"name" : "cue.model.maxpat",
				"bootpath" : "/Volumes/data/RENAUD/GITs/RTVI/max-package/patchers",
				"patcherrelativepath" : "./max-package/patchers",
				"type" : "JSON",
				"implicit" : 1
			}
, 			{
				"name" : "j.remote.mxo",
				"type" : "iLaX"
			}
, 			{
				"name" : "j.view.mxo",
				"type" : "iLaX"
			}
, 			{
				"name" : "j.receive.mxo",
				"type" : "iLaX"
			}
, 			{
				"name" : "j.namespace.mxo",
				"type" : "iLaX"
			}
, 			{
				"name" : "j.send.mxo",
				"type" : "iLaX"
			}
, 			{
				"name" : "j.parameter.mxo",
				"type" : "iLaX"
			}
, 			{
				"name" : "j.model.mxo",
				"type" : "iLaX"
			}
, 			{
				"name" : "j.return.mxo",
				"type" : "iLaX"
			}
, 			{
				"name" : "jit.gl.hap.mxo",
				"type" : "iLaX"
			}
, 			{
				"name" : "j.init.mxo",
				"type" : "iLaX"
			}
, 			{
				"name" : "j.message.mxo",
				"type" : "iLaX"
			}
, 			{
				"name" : "jit.gl.syphonserver.mxo",
				"type" : "iLaX"
			}
, 			{
				"name" : "jit.gl.syphonclient.mxo",
				"type" : "iLaX"
			}
, 			{
				"name" : "j.cue.mxo",
				"type" : "iLaX"
			}
 ]
	}

}
