{
	"patcher" : 	{
		"fileversion" : 1,
		"appversion" : 		{
			"major" : 6,
			"minor" : 1,
			"revision" : 7,
			"architecture" : "x64"
		}
,
		"rect" : [ 439.0, 405.0, 561.0, 509.0 ],
		"bgcolor" : [ 1.0, 1.0, 1.0, 0.0 ],
		"bglocked" : 0,
		"openinpresentation" : 1,
		"default_fontsize" : 12.0,
		"default_fontface" : 0,
		"default_fontname" : "Arial",
		"gridonopen" : 0,
		"gridsize" : [ 15.0, 15.0 ],
		"gridsnaponopen" : 0,
		"statusbarvisible" : 2,
		"toolbarvisible" : 1,
		"boxanimatetime" : 200,
		"imprint" : 0,
		"enablehscroll" : 1,
		"enablevscroll" : 1,
		"devicewidth" : 0.0,
		"description" : "",
		"digest" : "",
		"tags" : "",
		"boxes" : [ 			{
				"box" : 				{
					"annotation" : "none",
					"args" : [ "#1" ],
					"bgmode" : 1,
					"id" : "obj-18",
					"maxclass" : "bpatcher",
					"name" : "paths.header.view.maxpat",
					"numinlets" : 0,
					"numoutlets" : 0,
					"patching_rect" : [ 10.0, 5.34967, 252.0, 28.489136 ],
					"presentation" : 1,
					"presentation_rect" : [ -2.5, 24.980499, 259.0, 29.320465 ]
				}

			}
, 			{
				"box" : 				{
					"annotation" : "none",
					"args" : [ "#1" ],
					"bgmode" : 1,
					"id" : "obj-2",
					"maxclass" : "bpatcher",
					"name" : "poly.header.view.maxpat",
					"numinlets" : 0,
					"numoutlets" : 1,
					"outlettype" : [ "" ],
					"patching_rect" : [ 10.0, 48.838806, 252.0, 27.0 ],
					"presentation" : 1,
					"presentation_rect" : [ -0.5, -0.019501, 257.0, 26.0 ]
				}

			}
, 			{
				"box" : 				{
					"fontname" : "Arial",
					"fontsize" : 12.0,
					"id" : "obj-4",
					"maxclass" : "newobj",
					"numinlets" : 1,
					"numoutlets" : 2,
					"outlettype" : [ "", "" ],
					"patching_rect" : [ 10.0, 85.0, 41.0, 20.0 ],
					"text" : "j.view"
				}

			}
, 			{
				"box" : 				{
					"annotation" : "none",
					"bgcolor" : [ 1.0, 1.0, 1.0, 1.0 ],
					"bgoncolor" : [ 1.0, 1.0, 1.0, 1.0 ],
					"bgovercolor" : [ 1.0, 1.0, 1.0, 1.0 ],
					"bgoveroncolor" : [ 1.0, 1.0, 1.0, 1.0 ],
					"bordercolor" : [ 0.0, 0.572549, 0.811765, 0.5 ],
					"borderoncolor" : [ 0.83767, 0.0, 0.0, 1.0 ],
					"fontname" : "Helvetica Neue Light Italic",
					"fontsize" : 14.0,
					"id" : "obj-75",
					"maxclass" : "textbutton",
					"mode" : 1,
					"numinlets" : 1,
					"numoutlets" : 3,
					"outlettype" : [ "", "", "int" ],
					"parameter_enable" : 0,
					"patching_rect" : [ 378.84375, 274.246399, 95.0, 29.0 ],
					"presentation" : 1,
					"presentation_rect" : [ -2.5, 54.300964, 88.180725, 21.0 ],
					"rounded" : 0.0,
					"text" : "Autostart Off",
					"textcolor" : [ 0.0, 0.0, 0.0, 1.0 ],
					"texton" : "Autostart On",
					"textoncolor" : [ 0.0, 0.572549, 0.811765, 1.0 ],
					"textovercolor" : [ 0.0, 0.0, 0.0, 1.0 ],
					"textoveroncolor" : [ 0.839216, 0.0, 0.0, 1.0 ]
				}

			}
, 			{
				"box" : 				{
					"color" : [ 0.0, 0.572549, 0.811765, 1.0 ],
					"fontname" : "Arial",
					"fontsize" : 12.0,
					"id" : "obj-84",
					"maxclass" : "newobj",
					"numinlets" : 1,
					"numoutlets" : 4,
					"outlettype" : [ "", "", "", "" ],
					"patching_rect" : [ 378.84375, 317.614136, 102.0, 20.0 ],
					"text" : "j.remote autostart"
				}

			}
, 			{
				"box" : 				{
					"fontname" : "Arial",
					"fontsize" : 12.0,
					"id" : "obj-49",
					"maxclass" : "newobj",
					"numinlets" : 1,
					"numoutlets" : 3,
					"outlettype" : [ "", "int", "int" ],
					"patching_rect" : [ 274.25, 85.0, 50.0, 20.0 ],
					"text" : "change"
				}

			}
, 			{
				"box" : 				{
					"color" : [ 0.0, 0.572549, 0.811765, 1.0 ],
					"fontname" : "Arial",
					"fontsize" : 12.0,
					"id" : "obj-51",
					"maxclass" : "newobj",
					"numinlets" : 1,
					"numoutlets" : 3,
					"outlettype" : [ "", "", "" ],
					"patching_rect" : [ 378.84375, 40.838806, 102.0, 20.0 ],
					"text" : "j.receive duration"
				}

			}
, 			{
				"box" : 				{
					"fontname" : "Arial",
					"fontsize" : 12.0,
					"frgb" : 0.0,
					"id" : "obj-24",
					"maxclass" : "comment",
					"numinlets" : 1,
					"numoutlets" : 0,
					"patching_rect" : [ 294.0, 138.033936, 41.0, 20.0 ],
					"presentation" : 1,
					"presentation_rect" : [ 1.0, 125.300964, 41.0, 20.0 ],
					"text" : "time"
				}

			}
, 			{
				"box" : 				{
					"color" : [ 0.0, 0.572549, 0.811765, 1.0 ],
					"fontname" : "Arial",
					"fontsize" : 12.0,
					"id" : "obj-21",
					"maxclass" : "newobj",
					"numinlets" : 1,
					"numoutlets" : 4,
					"outlettype" : [ "", "", "", "" ],
					"patching_rect" : [ 263.0, 436.510834, 78.0, 20.0 ],
					"text" : "j.remote time"
				}

			}
, 			{
				"box" : 				{
					"annotation" : "none",
					"bgcolor" : [ 1.0, 1.0, 1.0, 1.0 ],
					"bgoncolor" : [ 1.0, 1.0, 1.0, 1.0 ],
					"bgovercolor" : [ 1.0, 1.0, 1.0, 1.0 ],
					"bgoveroncolor" : [ 1.0, 1.0, 1.0, 1.0 ],
					"bordercolor" : [ 0.0, 0.572549, 0.811765, 0.5 ],
					"borderoncolor" : [ 0.83767, 0.0, 0.0, 1.0 ],
					"fontname" : "Helvetica Neue Light Italic",
					"fontsize" : 14.0,
					"id" : "obj-11",
					"maxclass" : "textbutton",
					"mode" : 1,
					"numinlets" : 1,
					"numoutlets" : 3,
					"outlettype" : [ "", "", "int" ],
					"parameter_enable" : 0,
					"patching_rect" : [ 225.5, 246.34967, 95.0, 29.0 ],
					"presentation" : 1,
					"presentation_rect" : [ 188.0, 78.759766, 55.0, 23.0 ],
					"rounded" : 0.0,
					"text" : "flip",
					"textcolor" : [ 0.0, 0.0, 0.0, 1.0 ],
					"texton" : "flipped",
					"textoncolor" : [ 0.0, 0.572549, 0.811765, 1.0 ],
					"textovercolor" : [ 0.0, 0.0, 0.0, 1.0 ],
					"textoveroncolor" : [ 0.839216, 0.0, 0.0, 1.0 ]
				}

			}
, 			{
				"box" : 				{
					"color" : [ 0.0, 0.572549, 0.811765, 1.0 ],
					"fontname" : "Arial",
					"fontsize" : 12.0,
					"id" : "obj-19",
					"maxclass" : "newobj",
					"numinlets" : 1,
					"numoutlets" : 4,
					"outlettype" : [ "", "", "", "" ],
					"patching_rect" : [ 225.5, 226.34967, 109.5, 20.0 ],
					"text" : "j.remote flip"
				}

			}
, 			{
				"box" : 				{
					"annotation" : "none",
					"bgcolor" : [ 1.0, 1.0, 1.0, 1.0 ],
					"bgoncolor" : [ 1.0, 1.0, 1.0, 1.0 ],
					"bgovercolor" : [ 1.0, 1.0, 1.0, 1.0 ],
					"bgoveroncolor" : [ 1.0, 1.0, 1.0, 1.0 ],
					"bordercolor" : [ 0.0, 0.572549, 0.811765, 0.5 ],
					"borderoncolor" : [ 0.83767, 0.0, 0.0, 1.0 ],
					"fontname" : "Helvetica Neue Light Italic",
					"fontsize" : 14.0,
					"id" : "obj-20",
					"maxclass" : "textbutton",
					"mode" : 1,
					"numinlets" : 1,
					"numoutlets" : 3,
					"outlettype" : [ "", "", "int" ],
					"parameter_enable" : 0,
					"patching_rect" : [ 212.0, 307.717407, 95.0, 29.0 ],
					"presentation" : 1,
					"presentation_rect" : [ 88.228912, 54.300964, 69.180725, 21.0 ],
					"rounded" : 0.0,
					"text" : "stopped",
					"textcolor" : [ 0.0, 0.0, 0.0, 1.0 ],
					"texton" : "playing",
					"textoncolor" : [ 0.0, 0.572549, 0.811765, 1.0 ],
					"textovercolor" : [ 0.0, 0.0, 0.0, 1.0 ],
					"textoveroncolor" : [ 0.839216, 0.0, 0.0, 1.0 ]
				}

			}
, 			{
				"box" : 				{
					"fontname" : "Helvetica Neue Light Italic",
					"fontsize" : 11.0,
					"frgb" : 0.0,
					"id" : "obj-17",
					"maxclass" : "comment",
					"numinlets" : 1,
					"numoutlets" : 0,
					"patching_rect" : [ 153.0, 426.510834, 115.0, 19.0 ],
					"presentation" : 1,
					"presentation_rect" : [ 188.0, 56.300964, 29.0, 19.0 ],
					"text" : "rate"
				}

			}
, 			{
				"box" : 				{
					"fontname" : "Helvetica Neue Light Italic",
					"fontsize" : 11.0,
					"frgb" : 0.0,
					"id" : "obj-16",
					"maxclass" : "comment",
					"numinlets" : 1,
					"numoutlets" : 0,
					"patching_rect" : [ 97.0, 375.0, 115.0, 19.0 ],
					"presentation" : 1,
					"presentation_rect" : [ 4.0, 105.300964, 34.0, 19.0 ],
					"text" : "jump"
				}

			}
, 			{
				"box" : 				{
					"fontname" : "Arial",
					"fontsize" : 12.0,
					"frgb" : 0.0,
					"id" : "obj-15",
					"maxclass" : "comment",
					"numinlets" : 1,
					"numoutlets" : 0,
					"patching_rect" : [ 97.0, 323.0, 41.0, 20.0 ],
					"presentation" : 1,
					"presentation_rect" : [ 116.409637, 103.300964, 41.0, 20.0 ],
					"text" : "frame"
				}

			}
, 			{
				"box" : 				{
					"annotation" : "none",
					"bordercolor" : [ 0.0, 0.572549, 0.811765, 0.5 ],
					"fontname" : "Helvetica Neue Light Italic",
					"fontsize" : 14.0,
					"id" : "obj-13",
					"maxclass" : "number",
					"minimum" : 0,
					"numinlets" : 1,
					"numoutlets" : 2,
					"outlettype" : [ "int", "bang" ],
					"parameter_enable" : 0,
					"patching_rect" : [ 44.0, 259.34967, 61.0, 23.0 ],
					"presentation" : 1,
					"presentation_rect" : [ 119.409637, 78.759766, 65.5, 23.0 ],
					"triangle" : 0
				}

			}
, 			{
				"box" : 				{
					"color" : [ 0.0, 0.572549, 0.811765, 1.0 ],
					"fontname" : "Arial",
					"fontsize" : 12.0,
					"id" : "obj-14",
					"maxclass" : "newobj",
					"numinlets" : 1,
					"numoutlets" : 4,
					"outlettype" : [ "", "", "", "" ],
					"patching_rect" : [ 44.0, 235.838806, 126.5, 20.0 ],
					"text" : "j.remote loop/out"
				}

			}
, 			{
				"box" : 				{
					"annotation" : "none",
					"bordercolor" : [ 0.0, 0.572549, 0.811765, 0.5 ],
					"fontname" : "Helvetica Neue Light Italic",
					"fontsize" : 14.0,
					"id" : "obj-12",
					"maxclass" : "number",
					"minimum" : 0,
					"numinlets" : 1,
					"numoutlets" : 2,
					"outlettype" : [ "int", "bang" ],
					"parameter_enable" : 0,
					"patching_rect" : [ 44.0, 200.34967, 61.0, 23.0 ],
					"presentation" : 1,
					"presentation_rect" : [ 54.798172, 78.759766, 61.361465, 23.0 ],
					"triangle" : 0
				}

			}
, 			{
				"box" : 				{
					"color" : [ 0.0, 0.572549, 0.811765, 1.0 ],
					"fontname" : "Arial",
					"fontsize" : 12.0,
					"id" : "obj-76",
					"maxclass" : "newobj",
					"numinlets" : 1,
					"numoutlets" : 4,
					"outlettype" : [ "", "", "", "" ],
					"patching_rect" : [ 44.0, 176.838806, 119.5, 20.0 ],
					"text" : "j.remote loop/in"
				}

			}
, 			{
				"box" : 				{
					"annotation" : "none",
					"arrow" : 0,
					"arrowcolor" : [ 0.0, 0.0, 0.0, 1.0 ],
					"arrowframe" : 0,
					"arrowlink" : 0,
					"fontname" : "Helvetica Neue Light Italic",
					"fontsize" : 14.0,
					"framecolor" : [ 0.0, 0.572549, 0.811765, 0.5 ],
					"hltcolor" : [ 0.901961, 0.909804, 0.909804, 1.0 ],
					"id" : "obj-10",
					"items" : [ "off", ",", "normal", ",", "palindrome", ",", "one", "shot" ],
					"maxclass" : "umenu",
					"numinlets" : 1,
					"numoutlets" : 3,
					"outlettype" : [ "int", "", "" ],
					"parameter_enable" : 0,
					"patching_rect" : [ 44.0, 138.4198, 202.829346, 23.0 ],
					"presentation" : 1,
					"presentation_rect" : [ -2.5, 78.759766, 55.319275, 23.0 ],
					"rounded" : 0,
					"textcolor" : [ 0.0, 0.0, 0.0, 1.0 ],
					"textcolor2" : [ 0.0, 0.0, 0.0, 1.0 ]
				}

			}
, 			{
				"box" : 				{
					"color" : [ 0.0, 0.572549, 0.811765, 1.0 ],
					"fontname" : "Arial",
					"fontsize" : 12.0,
					"id" : "obj-71",
					"maxclass" : "newobj",
					"numinlets" : 1,
					"numoutlets" : 4,
					"outlettype" : [ "", "", "", "" ],
					"patching_rect" : [ 44.0, 111.878601, 139.5, 20.0 ],
					"text" : "j.remote loop/mode"
				}

			}
, 			{
				"box" : 				{
					"annotation" : "none",
					"bordercolor" : [ 0.0, 0.572549, 0.811765, 0.5 ],
					"fontname" : "Helvetica Neue Light Italic",
					"fontsize" : 14.0,
					"id" : "obj-68",
					"maxclass" : "number",
					"minimum" : 0,
					"numinlets" : 1,
					"numoutlets" : 2,
					"outlettype" : [ "int", "bang" ],
					"parameter_enable" : 0,
					"patching_rect" : [ 44.0, 377.34967, 61.0, 23.0 ],
					"presentation" : 1,
					"presentation_rect" : [ 37.0, 103.300964, 82.625, 23.0 ],
					"triangle" : 0
				}

			}
, 			{
				"box" : 				{
					"color" : [ 0.0, 0.572549, 0.811765, 1.0 ],
					"fontname" : "Arial",
					"fontsize" : 12.0,
					"id" : "obj-69",
					"maxclass" : "newobj",
					"numinlets" : 1,
					"numoutlets" : 4,
					"outlettype" : [ "", "", "", "" ],
					"patching_rect" : [ 44.0, 353.838806, 109.5, 20.0 ],
					"text" : "j.remote jump"
				}

			}
, 			{
				"box" : 				{
					"annotation" : "none",
					"bordercolor" : [ 0.0, 0.572549, 0.811765, 0.5 ],
					"fontname" : "Helvetica Neue Light Italic",
					"fontsize" : 14.0,
					"id" : "obj-64",
					"maxclass" : "number",
					"minimum" : 0,
					"numinlets" : 1,
					"numoutlets" : 2,
					"outlettype" : [ "int", "bang" ],
					"parameter_enable" : 0,
					"patching_rect" : [ 44.0, 317.614136, 61.0, 23.0 ],
					"presentation" : 1,
					"presentation_rect" : [ 160.704819, 103.300964, 86.795181, 23.0 ],
					"triangle" : 0
				}

			}
, 			{
				"box" : 				{
					"color" : [ 0.0, 0.572549, 0.811765, 1.0 ],
					"fontname" : "Arial",
					"fontsize" : 12.0,
					"id" : "obj-67",
					"maxclass" : "newobj",
					"numinlets" : 1,
					"numoutlets" : 4,
					"outlettype" : [ "", "", "", "" ],
					"patching_rect" : [ 44.0, 292.246368, 114.5, 20.0 ],
					"text" : "j.remote frame"
				}

			}
, 			{
				"box" : 				{
					"annotation" : "none",
					"bordercolor" : [ 0.0, 0.572549, 0.8, 1.0 ],
					"floatoutput" : 1,
					"id" : "obj-53",
					"maxclass" : "slider",
					"numinlets" : 1,
					"numoutlets" : 1,
					"outlettype" : [ "" ],
					"parameter_enable" : 0,
					"patching_rect" : [ 44.0, 451.878571, 140.0, 20.0 ],
					"presentation" : 1,
					"presentation_rect" : [ 160.704819, 55.300964, 86.795181, 20.0 ],
					"size" : 5.0
				}

			}
, 			{
				"box" : 				{
					"color" : [ 0.0, 0.572549, 0.811765, 1.0 ],
					"fontname" : "Arial",
					"fontsize" : 12.0,
					"id" : "obj-54",
					"maxclass" : "newobj",
					"numinlets" : 1,
					"numoutlets" : 4,
					"outlettype" : [ "", "", "", "" ],
					"patching_rect" : [ 44.0, 426.510834, 104.5, 20.0 ],
					"text" : "j.remote rate"
				}

			}
, 			{
				"box" : 				{
					"color" : [ 0.0, 0.572549, 0.811765, 1.0 ],
					"fontname" : "Arial",
					"fontsize" : 12.0,
					"id" : "obj-50",
					"maxclass" : "newobj",
					"numinlets" : 1,
					"numoutlets" : 4,
					"outlettype" : [ "", "", "", "" ],
					"patching_rect" : [ 212.0, 353.838806, 96.5, 20.0 ],
					"text" : "j.remote play"
				}

			}
, 			{
				"box" : 				{
					"fontname" : "Arial",
					"fontsize" : 12.0,
					"id" : "obj-22",
					"maxclass" : "message",
					"numinlets" : 2,
					"numoutlets" : 1,
					"outlettype" : [ "" ],
					"patching_rect" : [ 274.25, 408.510834, 96.0, 18.0 ],
					"text" : "setminmax 0 $1"
				}

			}
, 			{
				"box" : 				{
					"fontname" : "Arial",
					"fontsize" : 12.0,
					"id" : "obj-26",
					"maxclass" : "newobj",
					"numinlets" : 3,
					"numoutlets" : 1,
					"outlettype" : [ "" ],
					"patching_rect" : [ 425.84375, 85.0, 111.0, 20.0 ],
					"text" : "pak setminmax 0 1"
				}

			}
, 			{
				"box" : 				{
					"bgcolor" : [ 1.0, 1.0, 1.0, 0.0 ],
					"bordercolor" : [ 0.0, 0.572549, 0.811765, 0.5 ],
					"fgcolor" : [ 0.0, 0.572549, 0.0, 0.5 ],
					"floatoutput" : 1,
					"id" : "obj-25",
					"maxclass" : "rslider",
					"numinlets" : 2,
					"numoutlets" : 2,
					"outlettype" : [ "", "" ],
					"parameter_enable" : 0,
					"patching_rect" : [ 405.177124, 124.689484, 56.0, 33.344452 ],
					"presentation" : 1,
					"presentation_rect" : [ 36.0, 126.300964, 207.319275, 20.0 ],
					"size" : 1.0
				}

			}
, 			{
				"box" : 				{
					"bordercolor" : [ 0.0, 0.572549, 0.8, 1.0 ],
					"floatoutput" : 1,
					"id" : "obj-5",
					"maxclass" : "slider",
					"numinlets" : 1,
					"numoutlets" : 1,
					"outlettype" : [ "" ],
					"parameter_enable" : 0,
					"patching_rect" : [ 263.0, 461.878571, 140.0, 20.0 ],
					"presentation" : 1,
					"presentation_rect" : [ 36.0, 125.300964, 211.5, 20.0 ],
					"size" : 1.0
				}

			}
 ],
		"lines" : [ 			{
				"patchline" : 				{
					"destination" : [ "obj-71", 0 ],
					"disabled" : 0,
					"hidden" : 0,
					"midpoints" : [ 53.5, 165.0, 30.0, 165.0, 30.0, 108.0, 53.5, 108.0 ],
					"source" : [ "obj-10", 0 ]
				}

			}
, 			{
				"patchline" : 				{
					"destination" : [ "obj-19", 0 ],
					"disabled" : 0,
					"hidden" : 0,
					"midpoints" : [ 235.0, 276.0, 222.0, 276.0, 222.0, 222.0, 235.0, 222.0 ],
					"source" : [ "obj-11", 0 ]
				}

			}
, 			{
				"patchline" : 				{
					"destination" : [ "obj-76", 0 ],
					"disabled" : 0,
					"hidden" : 0,
					"midpoints" : [ 53.5, 222.0, 30.0, 222.0, 30.0, 171.0, 53.5, 171.0 ],
					"source" : [ "obj-12", 0 ]
				}

			}
, 			{
				"patchline" : 				{
					"destination" : [ "obj-14", 0 ],
					"disabled" : 0,
					"hidden" : 0,
					"midpoints" : [ 53.5, 279.0, 30.0, 279.0, 30.0, 231.0, 53.5, 231.0 ],
					"source" : [ "obj-13", 0 ]
				}

			}
, 			{
				"patchline" : 				{
					"destination" : [ "obj-13", 0 ],
					"disabled" : 0,
					"hidden" : 0,
					"source" : [ "obj-14", 0 ]
				}

			}
, 			{
				"patchline" : 				{
					"destination" : [ "obj-11", 0 ],
					"disabled" : 0,
					"hidden" : 0,
					"source" : [ "obj-19", 0 ]
				}

			}
, 			{
				"patchline" : 				{
					"destination" : [ "obj-4", 0 ],
					"disabled" : 0,
					"hidden" : 0,
					"source" : [ "obj-2", 0 ]
				}

			}
, 			{
				"patchline" : 				{
					"destination" : [ "obj-50", 0 ],
					"disabled" : 0,
					"hidden" : 0,
					"source" : [ "obj-20", 0 ]
				}

			}
, 			{
				"patchline" : 				{
					"destination" : [ "obj-5", 0 ],
					"disabled" : 0,
					"hidden" : 0,
					"source" : [ "obj-21", 0 ]
				}

			}
, 			{
				"patchline" : 				{
					"destination" : [ "obj-5", 0 ],
					"disabled" : 0,
					"hidden" : 0,
					"source" : [ "obj-22", 0 ]
				}

			}
, 			{
				"patchline" : 				{
					"destination" : [ "obj-14", 0 ],
					"disabled" : 0,
					"hidden" : 0,
					"source" : [ "obj-25", 1 ]
				}

			}
, 			{
				"patchline" : 				{
					"destination" : [ "obj-76", 0 ],
					"disabled" : 0,
					"hidden" : 0,
					"source" : [ "obj-25", 0 ]
				}

			}
, 			{
				"patchline" : 				{
					"destination" : [ "obj-25", 0 ],
					"disabled" : 0,
					"hidden" : 0,
					"source" : [ "obj-26", 0 ]
				}

			}
, 			{
				"patchline" : 				{
					"destination" : [ "obj-14", 0 ],
					"disabled" : 0,
					"hidden" : 0,
					"source" : [ "obj-49", 0 ]
				}

			}
, 			{
				"patchline" : 				{
					"destination" : [ "obj-21", 0 ],
					"disabled" : 0,
					"hidden" : 0,
					"midpoints" : [ 272.5, 481.735474, 249.0, 481.735474, 249.0, 430.735504, 272.5, 430.735504 ],
					"source" : [ "obj-5", 0 ]
				}

			}
, 			{
				"patchline" : 				{
					"destination" : [ "obj-20", 0 ],
					"disabled" : 0,
					"hidden" : 0,
					"midpoints" : [ 221.5, 384.0, 318.0, 384.0, 318.0, 294.0, 221.5, 294.0 ],
					"source" : [ "obj-50", 0 ]
				}

			}
, 			{
				"patchline" : 				{
					"destination" : [ "obj-22", 0 ],
					"disabled" : 0,
					"hidden" : 0,
					"source" : [ "obj-51", 0 ]
				}

			}
, 			{
				"patchline" : 				{
					"destination" : [ "obj-26", 2 ],
					"disabled" : 0,
					"hidden" : 0,
					"source" : [ "obj-51", 0 ]
				}

			}
, 			{
				"patchline" : 				{
					"destination" : [ "obj-49", 0 ],
					"disabled" : 0,
					"hidden" : 0,
					"source" : [ "obj-51", 0 ]
				}

			}
, 			{
				"patchline" : 				{
					"destination" : [ "obj-54", 0 ],
					"disabled" : 0,
					"hidden" : 0,
					"midpoints" : [ 53.5, 471.735474, 30.0, 471.735474, 30.0, 420.735504, 53.5, 420.735504 ],
					"source" : [ "obj-53", 0 ]
				}

			}
, 			{
				"patchline" : 				{
					"destination" : [ "obj-53", 0 ],
					"disabled" : 0,
					"hidden" : 0,
					"source" : [ "obj-54", 0 ]
				}

			}
, 			{
				"patchline" : 				{
					"destination" : [ "obj-67", 0 ],
					"disabled" : 0,
					"hidden" : 0,
					"midpoints" : [ 53.5, 339.0, 30.0, 339.0, 30.0, 288.0, 53.5, 288.0 ],
					"source" : [ "obj-64", 0 ]
				}

			}
, 			{
				"patchline" : 				{
					"destination" : [ "obj-64", 0 ],
					"disabled" : 0,
					"hidden" : 0,
					"source" : [ "obj-67", 0 ]
				}

			}
, 			{
				"patchline" : 				{
					"destination" : [ "obj-69", 0 ],
					"disabled" : 0,
					"hidden" : 0,
					"midpoints" : [ 53.5, 399.0, 30.0, 399.0, 30.0, 348.0, 53.5, 348.0 ],
					"source" : [ "obj-68", 0 ]
				}

			}
, 			{
				"patchline" : 				{
					"destination" : [ "obj-68", 0 ],
					"disabled" : 0,
					"hidden" : 0,
					"source" : [ "obj-69", 0 ]
				}

			}
, 			{
				"patchline" : 				{
					"destination" : [ "obj-10", 0 ],
					"disabled" : 0,
					"hidden" : 0,
					"source" : [ "obj-71", 0 ]
				}

			}
, 			{
				"patchline" : 				{
					"destination" : [ "obj-84", 0 ],
					"disabled" : 0,
					"hidden" : 0,
					"source" : [ "obj-75", 0 ]
				}

			}
, 			{
				"patchline" : 				{
					"destination" : [ "obj-12", 0 ],
					"disabled" : 0,
					"hidden" : 0,
					"source" : [ "obj-76", 0 ]
				}

			}
, 			{
				"patchline" : 				{
					"destination" : [ "obj-75", 0 ],
					"disabled" : 0,
					"hidden" : 0,
					"midpoints" : [ 388.34375, 346.246429, 365.34375, 346.246429, 365.34375, 270.246399, 388.34375, 270.246399 ],
					"source" : [ "obj-84", 0 ]
				}

			}
 ],
		"dependency_cache" : [ 			{
				"name" : "poly.header.view.maxpat",
				"bootpath" : "/Volumes/data/RENAUD/GITs/RTVI/max-package/patchers",
				"patcherrelativepath" : ".",
				"type" : "JSON",
				"implicit" : 1
			}
, 			{
				"name" : "paths.header.view.maxpat",
				"bootpath" : "/Volumes/data/RENAUD/GITs/RTVI/max-package/patchers",
				"patcherrelativepath" : ".",
				"type" : "JSON",
				"implicit" : 1
			}
, 			{
				"name" : "span.requests.maxpat",
				"bootpath" : "/Volumes/data/RENAUD/GITs/span/max-package/patchers/requests",
				"patcherrelativepath" : "../../../span/max-package/patchers/requests",
				"type" : "JSON",
				"implicit" : 1
			}
, 			{
				"name" : "j.remote.mxo",
				"type" : "iLaX"
			}
, 			{
				"name" : "j.receive.mxo",
				"type" : "iLaX"
			}
, 			{
				"name" : "j.view.mxo",
				"type" : "iLaX"
			}
, 			{
				"name" : "j.send.mxo",
				"type" : "iLaX"
			}
, 			{
				"name" : "j.namespace.mxo",
				"type" : "iLaX"
			}
 ]
	}

}
