{
	"patcher" : 	{
		"fileversion" : 1,
		"appversion" : 		{
			"major" : 6,
			"minor" : 1,
			"revision" : 10,
			"architecture" : "x86"
		}
,
		"rect" : [ 461.0, 340.0, 1059.0, 611.0 ],
		"bgcolor" : [ 1.0, 1.0, 1.0, 0.0 ],
		"bglocked" : 0,
		"openinpresentation" : 1,
		"default_fontsize" : 12.0,
		"default_fontface" : 0,
		"default_fontname" : "Arial",
		"gridonopen" : 0,
		"gridsize" : [ 15.0, 15.0 ],
		"gridsnaponopen" : 0,
		"statusbarvisible" : 2,
		"toolbarvisible" : 1,
		"boxanimatetime" : 200,
		"imprint" : 0,
		"enablehscroll" : 1,
		"enablevscroll" : 1,
		"devicewidth" : 0.0,
		"description" : "",
		"digest" : "",
		"tags" : "",
		"boxes" : [ 			{
				"box" : 				{
					"fontname" : "Arial",
					"fontsize" : 12.0,
					"id" : "obj-16",
					"maxclass" : "message",
					"numinlets" : 2,
					"numoutlets" : 1,
					"outlettype" : [ "" ],
					"patching_rect" : [ 488.0, 227.0, 50.0, 18.0 ],
					"text" : "58"
				}

			}
, 			{
				"box" : 				{
					"id" : "obj-14",
					"maxclass" : "slider",
					"numinlets" : 1,
					"numoutlets" : 1,
					"outlettype" : [ "" ],
					"parameter_enable" : 0,
					"patching_rect" : [ 706.0, 275.0, 20.0, 140.0 ],
					"presentation" : 1,
					"presentation_rect" : [ 178.0, 114.0, 37.0, 72.0 ]
				}

			}
, 			{
				"box" : 				{
					"id" : "obj-13",
					"maxclass" : "pictslider",
					"numinlets" : 2,
					"numoutlets" : 2,
					"outlettype" : [ "int", "int" ],
					"parameter_enable" : 0,
					"patching_rect" : [ 478.0, 104.0, 100.0, 100.0 ],
					"presentation" : 1,
					"presentation_rect" : [ 26.0, 114.0, 128.0, 72.0 ]
				}

			}
, 			{
				"box" : 				{
					"fontface" : 2,
					"fontname" : "Arial",
					"fontsize" : 12.0,
					"frgb" : 0.0,
					"id" : "obj-12",
					"maxclass" : "comment",
					"numinlets" : 1,
					"numoutlets" : 0,
					"patching_rect" : [ 340.0, 286.041992, 46.0, 20.0 ],
					"presentation" : 1,
					"presentation_rect" : [ 13.0, 83.041992, 37.0, 20.0 ],
					"text" : "point",
					"textcolor" : [ 0.0, 0.0, 0.0, 0.5 ]
				}

			}
, 			{
				"box" : 				{
					"fontface" : 2,
					"fontname" : "Arial",
					"fontsize" : 12.0,
					"frgb" : 0.0,
					"id" : "obj-11",
					"maxclass" : "comment",
					"numinlets" : 1,
					"numoutlets" : 0,
					"patching_rect" : [ 419.0, 263.041992, 46.0, 20.0 ],
					"presentation" : 1,
					"presentation_rect" : [ 113.0, 57.041992, 46.0, 20.0 ],
					"text" : "point/y",
					"textcolor" : [ 0.0, 0.0, 0.0, 0.5 ]
				}

			}
, 			{
				"box" : 				{
					"annotation" : "none",
					"bordercolor" : [ 0.075522, 0.410038, 0.717789, 0.2 ],
					"fontname" : "Arial",
					"fontsize" : 12.0,
					"id" : "obj-9",
					"maxclass" : "number",
					"numinlets" : 1,
					"numoutlets" : 2,
					"outlettype" : [ "int", "bang" ],
					"parameter_enable" : 0,
					"patching_rect" : [ 360.0, 263.041992, 50.0, 20.0 ],
					"presentation" : 1,
					"presentation_rect" : [ 113.0, 83.041992, 40.0, 20.0 ],
					"textcolor" : [ 0.060987, 0.494647, 0.768395, 1.0 ],
					"triangle" : 0
				}

			}
, 			{
				"box" : 				{
					"fontname" : "Arial",
					"fontsize" : 12.0,
					"id" : "obj-10",
					"maxclass" : "newobj",
					"numinlets" : 1,
					"numoutlets" : 4,
					"outlettype" : [ "", "", "", "" ],
					"patching_rect" : [ 360.0, 291.041992, 93.0, 20.0 ],
					"text" : "j.remote point/y"
				}

			}
, 			{
				"box" : 				{
					"fontface" : 2,
					"fontname" : "Arial",
					"fontsize" : 12.0,
					"frgb" : 0.0,
					"id" : "obj-4",
					"maxclass" : "comment",
					"numinlets" : 1,
					"numoutlets" : 0,
					"patching_rect" : [ 286.0, 263.041992, 46.0, 20.0 ],
					"presentation" : 1,
					"presentation_rect" : [ 67.0, 57.041992, 46.0, 20.0 ],
					"text" : "point/x",
					"textcolor" : [ 0.0, 0.0, 0.0, 0.5 ]
				}

			}
, 			{
				"box" : 				{
					"annotation" : "none",
					"bordercolor" : [ 0.075522, 0.410038, 0.717789, 0.2 ],
					"fontname" : "Arial",
					"fontsize" : 12.0,
					"id" : "obj-6",
					"maxclass" : "number",
					"numinlets" : 1,
					"numoutlets" : 2,
					"outlettype" : [ "int", "bang" ],
					"parameter_enable" : 0,
					"patching_rect" : [ 232.0, 263.041992, 50.0, 20.0 ],
					"presentation" : 1,
					"presentation_rect" : [ 59.0, 83.041992, 40.0, 20.0 ],
					"textcolor" : [ 0.060987, 0.494647, 0.768395, 1.0 ],
					"triangle" : 0
				}

			}
, 			{
				"box" : 				{
					"fontname" : "Arial",
					"fontsize" : 12.0,
					"id" : "obj-7",
					"maxclass" : "newobj",
					"numinlets" : 1,
					"numoutlets" : 4,
					"outlettype" : [ "", "", "", "" ],
					"patching_rect" : [ 232.0, 291.041992, 93.0, 20.0 ],
					"text" : "j.remote point/x"
				}

			}
, 			{
				"box" : 				{
					"fontface" : 2,
					"fontname" : "Arial",
					"fontsize" : 12.0,
					"frgb" : 0.0,
					"id" : "obj-20",
					"maxclass" : "comment",
					"numinlets" : 1,
					"numoutlets" : 0,
					"patching_rect" : [ 117.0, 263.041992, 37.0, 20.0 ],
					"presentation" : 1,
					"presentation_rect" : [ 178.0, 31.5, 37.0, 20.0 ],
					"text" : "layer",
					"textcolor" : [ 0.0, 0.0, 0.0, 0.5 ]
				}

			}
, 			{
				"box" : 				{
					"annotation" : "none",
					"bordercolor" : [ 0.075522, 0.410038, 0.717789, 0.2 ],
					"fontname" : "Arial",
					"fontsize" : 12.0,
					"id" : "obj-22",
					"maxclass" : "number",
					"numinlets" : 1,
					"numoutlets" : 2,
					"outlettype" : [ "int", "bang" ],
					"parameter_enable" : 0,
					"patching_rect" : [ 63.0, 263.041992, 50.0, 20.0 ],
					"presentation" : 1,
					"presentation_rect" : [ 210.0, 31.5, 40.0, 20.0 ],
					"textcolor" : [ 0.060987, 0.494647, 0.768395, 1.0 ],
					"triangle" : 0
				}

			}
, 			{
				"box" : 				{
					"fontname" : "Arial",
					"fontsize" : 12.0,
					"id" : "obj-23",
					"maxclass" : "newobj",
					"numinlets" : 1,
					"numoutlets" : 4,
					"outlettype" : [ "", "", "", "" ],
					"patching_rect" : [ 63.0, 291.041992, 84.0, 20.0 ],
					"text" : "j.remote layer"
				}

			}
, 			{
				"box" : 				{
					"fontname" : "Arial",
					"fontsize" : 12.0,
					"id" : "obj-3",
					"maxclass" : "newobj",
					"numinlets" : 1,
					"numoutlets" : 4,
					"outlettype" : [ "", "", "", "" ],
					"patching_rect" : [ 167.0, 154.0, 81.0, 20.0 ],
					"text" : "j.remote amp"
				}

			}
, 			{
				"box" : 				{
					"fontface" : 2,
					"fontname" : "Arial",
					"fontsize" : 12.0,
					"frgb" : 0.0,
					"id" : "obj-33",
					"maxclass" : "comment",
					"numinlets" : 1,
					"numoutlets" : 0,
					"patching_rect" : [ 260.0, 154.0, 34.0, 20.0 ],
					"presentation" : 1,
					"presentation_rect" : [ 192.0, 57.041992, 40.0, 20.0 ],
					"text" : "amp",
					"textcolor" : [ 0.0, 0.0, 0.0, 0.5 ]
				}

			}
, 			{
				"box" : 				{
					"bordercolor" : [ 0.073866, 0.325456, 0.659127, 0.2 ],
					"fontname" : "Arial",
					"fontsize" : 12.0,
					"id" : "obj-26",
					"maxclass" : "flonum",
					"numinlets" : 1,
					"numoutlets" : 2,
					"outlettype" : [ "float", "bang" ],
					"parameter_enable" : 0,
					"patching_rect" : [ 167.0, 119.5, 50.0, 20.0 ],
					"presentation" : 1,
					"presentation_rect" : [ 187.0, 83.041992, 50.0, 20.0 ],
					"textcolor" : [ 0.060987, 0.494647, 0.768395, 1.0 ],
					"triangle" : 0
				}

			}
, 			{
				"box" : 				{
					"annotation" : "none",
					"args" : [ "#1" ],
					"bgmode" : 1,
					"id" : "obj-5",
					"maxclass" : "bpatcher",
					"name" : "j.header.maxpat",
					"numinlets" : 0,
					"numoutlets" : 1,
					"outlettype" : [ "" ],
					"patching_rect" : [ 29.0, 18.0, 253.0, 22.0 ],
					"presentation" : 1,
					"presentation_rect" : [ 0.0, 0.0, 250.0, 25.5 ]
				}

			}
, 			{
				"box" : 				{
					"fontname" : "Arial",
					"fontsize" : 12.0,
					"id" : "obj-21",
					"maxclass" : "newobj",
					"numinlets" : 1,
					"numoutlets" : 2,
					"outlettype" : [ "", "" ],
					"patching_rect" : [ 29.0, 50.0, 41.0, 20.0 ],
					"text" : "j.view"
				}

			}
 ],
		"lines" : [ 			{
				"patchline" : 				{
					"destination" : [ "obj-9", 0 ],
					"disabled" : 0,
					"hidden" : 0,
					"midpoints" : [ 369.5, 320.041992, 352.5, 320.041992, 352.5, 253.041992, 369.5, 253.041992 ],
					"source" : [ "obj-10", 0 ]
				}

			}
, 			{
				"patchline" : 				{
					"destination" : [ "obj-16", 1 ],
					"disabled" : 0,
					"hidden" : 0,
					"source" : [ "obj-13", 0 ]
				}

			}
, 			{
				"patchline" : 				{
					"destination" : [ "obj-23", 0 ],
					"disabled" : 0,
					"hidden" : 0,
					"source" : [ "obj-22", 0 ]
				}

			}
, 			{
				"patchline" : 				{
					"destination" : [ "obj-22", 0 ],
					"disabled" : 0,
					"hidden" : 0,
					"midpoints" : [ 72.5, 320.041992, 55.5, 320.041992, 55.5, 253.041992, 72.5, 253.041992 ],
					"source" : [ "obj-23", 0 ]
				}

			}
, 			{
				"patchline" : 				{
					"destination" : [ "obj-3", 0 ],
					"disabled" : 0,
					"hidden" : 0,
					"source" : [ "obj-26", 0 ]
				}

			}
, 			{
				"patchline" : 				{
					"destination" : [ "obj-26", 0 ],
					"disabled" : 0,
					"hidden" : 0,
					"midpoints" : [ 176.5, 180.0, 158.0, 180.0, 158.0, 111.0, 176.5, 111.0 ],
					"source" : [ "obj-3", 0 ]
				}

			}
, 			{
				"patchline" : 				{
					"destination" : [ "obj-21", 0 ],
					"disabled" : 0,
					"hidden" : 0,
					"source" : [ "obj-5", 0 ]
				}

			}
, 			{
				"patchline" : 				{
					"destination" : [ "obj-7", 0 ],
					"disabled" : 0,
					"hidden" : 0,
					"source" : [ "obj-6", 0 ]
				}

			}
, 			{
				"patchline" : 				{
					"destination" : [ "obj-6", 0 ],
					"disabled" : 0,
					"hidden" : 0,
					"midpoints" : [ 241.5, 320.041992, 224.5, 320.041992, 224.5, 253.041992, 241.5, 253.041992 ],
					"source" : [ "obj-7", 0 ]
				}

			}
, 			{
				"patchline" : 				{
					"destination" : [ "obj-10", 0 ],
					"disabled" : 0,
					"hidden" : 0,
					"source" : [ "obj-9", 0 ]
				}

			}
 ],
		"dependency_cache" : [ 			{
				"name" : "j.header.maxpat",
				"bootpath" : "/Volumes/data/GITs/j.project/max-package/patchers",
				"patcherrelativepath" : "../../../j.project/max-package/patchers",
				"type" : "JSON",
				"implicit" : 1
			}
, 			{
				"name" : "j.view.mxo",
				"type" : "iLaX"
			}
, 			{
				"name" : "j.remote.mxo",
				"type" : "iLaX"
			}
, 			{
				"name" : "j.send.mxo",
				"type" : "iLaX"
			}
, 			{
				"name" : "j.receive.mxo",
				"type" : "iLaX"
			}
, 			{
				"name" : "j.namespace.mxo",
				"type" : "iLaX"
			}
 ]
	}

}
