{
	"patcher" : 	{
		"fileversion" : 1,
		"appversion" : 		{
			"major" : 7,
			"minor" : 1,
			"revision" : 0,
			"architecture" : "x86",
			"modernui" : 1
		}
,
		"rect" : [ 1012.0, 506.0, 533.0, 330.0 ],
		"bgcolor" : [ 1.0, 1.0, 1.0, 0.0 ],
		"bglocked" : 0,
		"openinpresentation" : 1,
		"default_fontsize" : 12.0,
		"default_fontface" : 0,
		"default_fontname" : "Arial",
		"gridonopen" : 1,
		"gridsize" : [ 15.0, 15.0 ],
		"gridsnaponopen" : 1,
		"objectsnaponopen" : 1,
		"statusbarvisible" : 2,
		"toolbarvisible" : 1,
		"lefttoolbarpinned" : 0,
		"toptoolbarpinned" : 0,
		"righttoolbarpinned" : 0,
		"bottomtoolbarpinned" : 0,
		"toolbars_unpinned_last_save" : 0,
		"tallnewobj" : 0,
		"boxanimatetime" : 200,
		"enablehscroll" : 1,
		"enablevscroll" : 1,
		"devicewidth" : 0.0,
		"description" : "",
		"digest" : "",
		"tags" : "",
		"style" : "",
		"subpatcher_template" : "",
		"boxes" : [ 			{
				"box" : 				{
					"fontface" : 2,
					"fontname" : "Arial",
					"fontsize" : 12.0,
					"id" : "obj-9",
					"maxclass" : "comment",
					"numinlets" : 1,
					"numoutlets" : 0,
					"patching_rect" : [ 61.0, 24.0, 150.0, 20.0 ],
					"presentation" : 1,
					"presentation_rect" : [ 149.0, 20.25, 30.0, 20.0 ],
					"style" : "",
					"text" : "dim",
					"textcolor" : [ 0.060987, 0.494647, 0.768395, 0.6 ]
				}

			}
, 			{
				"box" : 				{
					"color" : [ 0.0, 0.572549, 0.811765, 1.0 ],
					"fontname" : "Arial",
					"fontsize" : 12.0,
					"id" : "obj-1",
					"maxclass" : "newobj",
					"numinlets" : 1,
					"numoutlets" : 4,
					"outlettype" : [ "", "", "", "" ],
					"patching_rect" : [ 344.0, 243.0, 131.0, 20.0 ],
					"style" : "",
					"text" : "j.remote still"
				}

			}
, 			{
				"box" : 				{
					"bgcolor" : [ 1.0, 1.0, 1.0, 1.0 ],
					"bgoncolor" : [ 1.0, 1.0, 1.0, 1.0 ],
					"fontname" : "Helvetica Neue Light Italic",
					"fontsize" : 9.0,
					"id" : "obj-4",
					"legacytextcolor" : 1,
					"maxclass" : "textbutton",
					"mode" : 1,
					"numinlets" : 1,
					"numoutlets" : 3,
					"outlettype" : [ "", "", "int" ],
					"parameter_enable" : 0,
					"patching_rect" : [ 344.0, 216.0, 50.0, 17.0 ],
					"presentation" : 1,
					"presentation_rect" : [ 9.0, 43.75, 54.0, 20.0 ],
					"style" : "",
					"text" : "Still Off",
					"textcolor" : [ 0.0, 0.0, 0.0, 1.0 ],
					"texton" : "Still On",
					"textoncolor" : [ 0.0, 0.572549, 0.811765, 1.0 ],
					"textovercolor" : [ 0.0, 0.0, 0.0, 1.0 ],
					"usebgoncolor" : 1,
					"usetextovercolor" : 1
				}

			}
, 			{
				"box" : 				{
					"annotation" : "none",
					"args" : [ "#1" ],
					"bgmode" : 1,
					"border" : 0,
					"clickthrough" : 0,
					"enablehscroll" : 0,
					"enablevscroll" : 0,
					"id" : "obj-5",
					"lockeddragscroll" : 0,
					"maxclass" : "bpatcher",
					"name" : "j.header.maxpat",
					"numinlets" : 0,
					"numoutlets" : 1,
					"offset" : [ 0.0, 0.0 ],
					"outlettype" : [ "" ],
					"patching_rect" : [ 258.0, 127.0, 251.0, 46.0 ],
					"presentation" : 1,
					"presentation_rect" : [ 259.0, 20.25, 34.0, 25.5 ],
					"viewvisibility" : 1
				}

			}
, 			{
				"box" : 				{
					"fontname" : "Arial",
					"fontsize" : 12.0,
					"id" : "obj-21",
					"maxclass" : "newobj",
					"numinlets" : 1,
					"numoutlets" : 2,
					"outlettype" : [ "", "" ],
					"patching_rect" : [ 258.0, 181.0, 41.0, 20.0 ],
					"style" : "",
					"text" : "j.view"
				}

			}
, 			{
				"box" : 				{
					"fontface" : 2,
					"fontname" : "Arial",
					"fontsize" : 12.0,
					"id" : "obj-16",
					"maxclass" : "comment",
					"numinlets" : 1,
					"numoutlets" : 0,
					"patching_rect" : [ 84.0, 127.0, 150.0, 20.0 ],
					"presentation" : 1,
					"presentation_rect" : [ 63.0, 20.25, 46.0, 20.0 ],
					"style" : "",
					"text" : "planes",
					"textcolor" : [ 0.060987, 0.494647, 0.768395, 0.6 ]
				}

			}
, 			{
				"box" : 				{
					"fontname" : "Arial",
					"fontsize" : 12.0,
					"id" : "obj-13",
					"maxclass" : "newobj",
					"numinlets" : 1,
					"numoutlets" : 4,
					"outlettype" : [ "", "", "", "" ],
					"patching_rect" : [ 218.5, 268.0, 99.0, 20.0 ],
					"style" : "",
					"text" : "j.remote planes"
				}

			}
, 			{
				"box" : 				{
					"annotation" : "none",
					"bgcolor" : [ 1.0, 1.0, 1.0, 1.0 ],
					"fontname" : "Arial",
					"fontsize" : 12.0,
					"htricolor" : [ 0.87, 0.82, 0.24, 1.0 ],
					"id" : "obj-14",
					"maxclass" : "number",
					"numinlets" : 1,
					"numoutlets" : 2,
					"outlettype" : [ "", "bang" ],
					"parameter_enable" : 0,
					"patching_rect" : [ 218.5, 238.0, 50.0, 22.0 ],
					"presentation" : 1,
					"presentation_rect" : [ 109.0, 20.25, 40.0, 22.0 ],
					"style" : "",
					"textcolor" : [ 0.060987, 0.494647, 0.768395, 1.0 ],
					"triangle" : 0,
					"tricolor" : [ 0.75, 0.75, 0.75, 1.0 ]
				}

			}
, 			{
				"box" : 				{
					"fontface" : 2,
					"fontname" : "Arial",
					"fontsize" : 12.0,
					"id" : "obj-22",
					"maxclass" : "comment",
					"numinlets" : 1,
					"numoutlets" : 0,
					"patching_rect" : [ 355.0, 21.5, 150.0, 20.0 ],
					"presentation" : 1,
					"presentation_rect" : [ 82.0, 43.75, 27.0, 20.0 ],
					"style" : "",
					"text" : "fps",
					"textcolor" : [ 0.060987, 0.494647, 0.768395, 0.6 ]
				}

			}
, 			{
				"box" : 				{
					"fontname" : "Arial",
					"fontsize" : 12.0,
					"id" : "obj-18",
					"maxclass" : "newobj",
					"numinlets" : 1,
					"numoutlets" : 4,
					"outlettype" : [ "", "", "", "" ],
					"patching_rect" : [ 305.0, 54.0, 86.0, 20.0 ],
					"style" : "",
					"text" : "j.remote fps"
				}

			}
, 			{
				"box" : 				{
					"annotation" : "none",
					"bgcolor" : [ 1.0, 1.0, 1.0, 1.0 ],
					"fontname" : "Arial",
					"fontsize" : 12.0,
					"htricolor" : [ 0.87, 0.82, 0.24, 1.0 ],
					"id" : "obj-19",
					"maxclass" : "number",
					"numinlets" : 1,
					"numoutlets" : 2,
					"outlettype" : [ "", "bang" ],
					"parameter_enable" : 0,
					"patching_rect" : [ 305.0, 21.5, 50.0, 22.0 ],
					"presentation" : 1,
					"presentation_rect" : [ 109.0, 43.75, 40.0, 22.0 ],
					"style" : "",
					"textcolor" : [ 0.060987, 0.494647, 0.768395, 1.0 ],
					"triangle" : 0,
					"tricolor" : [ 0.75, 0.75, 0.75, 1.0 ]
				}

			}
, 			{
				"box" : 				{
					"color" : [ 0.0, 0.572549, 0.811765, 1.0 ],
					"fontname" : "Arial",
					"fontsize" : 12.0,
					"id" : "obj-38",
					"maxclass" : "newobj",
					"numinlets" : 1,
					"numoutlets" : 4,
					"outlettype" : [ "", "", "", "" ],
					"patching_rect" : [ 157.0, 67.0, 131.0, 20.0 ],
					"style" : "",
					"text" : "j.remote interp"
				}

			}
, 			{
				"box" : 				{
					"bgcolor" : [ 1.0, 1.0, 1.0, 1.0 ],
					"bgoncolor" : [ 1.0, 1.0, 1.0, 1.0 ],
					"fontname" : "Helvetica Neue Light Italic",
					"fontsize" : 9.0,
					"id" : "obj-39",
					"legacytextcolor" : 1,
					"maxclass" : "textbutton",
					"mode" : 1,
					"numinlets" : 1,
					"numoutlets" : 3,
					"outlettype" : [ "", "", "int" ],
					"parameter_enable" : 0,
					"patching_rect" : [ 157.0, 40.0, 50.0, 17.0 ],
					"presentation" : 1,
					"presentation_rect" : [ 9.0, 20.25, 54.0, 20.0 ],
					"style" : "",
					"text" : "Interp Off",
					"textcolor" : [ 0.0, 0.0, 0.0, 1.0 ],
					"texton" : "Interp On",
					"textoncolor" : [ 0.0, 0.572549, 0.811765, 1.0 ],
					"textovercolor" : [ 0.0, 0.0, 0.0, 1.0 ],
					"usebgoncolor" : 1,
					"usetextovercolor" : 1
				}

			}
, 			{
				"box" : 				{
					"fontname" : "Arial",
					"fontsize" : 12.0,
					"id" : "obj-7",
					"maxclass" : "newobj",
					"numinlets" : 1,
					"numoutlets" : 4,
					"outlettype" : [ "", "", "", "" ],
					"patching_rect" : [ 27.0, 231.0, 86.0, 20.0 ],
					"style" : "",
					"text" : "j.remote dim/y"
				}

			}
, 			{
				"box" : 				{
					"annotation" : "none",
					"bgcolor" : [ 1.0, 1.0, 1.0, 1.0 ],
					"fontname" : "Arial",
					"fontsize" : 12.0,
					"htricolor" : [ 0.87, 0.82, 0.24, 1.0 ],
					"id" : "obj-8",
					"maxclass" : "number",
					"numinlets" : 1,
					"numoutlets" : 2,
					"outlettype" : [ "", "bang" ],
					"parameter_enable" : 0,
					"patching_rect" : [ 27.0, 198.5, 50.0, 22.0 ],
					"presentation" : 1,
					"presentation_rect" : [ 217.0, 20.25, 40.0, 22.0 ],
					"style" : "",
					"textcolor" : [ 0.060987, 0.494647, 0.768395, 1.0 ],
					"triangle" : 0,
					"tricolor" : [ 0.75, 0.75, 0.75, 1.0 ]
				}

			}
, 			{
				"box" : 				{
					"fontname" : "Arial",
					"fontsize" : 12.0,
					"id" : "obj-2",
					"maxclass" : "newobj",
					"numinlets" : 1,
					"numoutlets" : 4,
					"outlettype" : [ "", "", "", "" ],
					"patching_rect" : [ 27.0, 139.0, 86.0, 20.0 ],
					"style" : "",
					"text" : "j.remote dim/x"
				}

			}
, 			{
				"box" : 				{
					"annotation" : "none",
					"bgcolor" : [ 1.0, 1.0, 1.0, 1.0 ],
					"fontname" : "Arial",
					"fontsize" : 12.0,
					"htricolor" : [ 0.87, 0.82, 0.24, 1.0 ],
					"id" : "obj-3",
					"maxclass" : "number",
					"numinlets" : 1,
					"numoutlets" : 2,
					"outlettype" : [ "", "bang" ],
					"parameter_enable" : 0,
					"patching_rect" : [ 27.0, 106.5, 50.0, 22.0 ],
					"presentation" : 1,
					"presentation_rect" : [ 176.0, 20.25, 40.0, 22.0 ],
					"style" : "",
					"textcolor" : [ 0.060987, 0.494647, 0.768395, 1.0 ],
					"triangle" : 0,
					"tricolor" : [ 0.75, 0.75, 0.75, 1.0 ]
				}

			}
, 			{
				"box" : 				{
					"fontface" : 0,
					"id" : "obj-6",
					"maxclass" : "j.ui",
					"numinlets" : 1,
					"numoutlets" : 1,
					"outlettype" : [ "" ],
					"patching_rect" : [ 222.0, 126.0, 300.0, 70.0 ],
					"presentation" : 1,
					"presentation_rect" : [ -0.5, 0.0, 300.0, 70.0 ],
					"text" : "/no_model_address"
				}

			}
 ],
		"lines" : [ 			{
				"patchline" : 				{
					"destination" : [ "obj-4", 0 ],
					"disabled" : 0,
					"hidden" : 0,
					"midpoints" : [ 353.5, 274.0, 329.5, 274.0, 329.5, 213.0, 353.5, 213.0 ],
					"source" : [ "obj-1", 0 ]
				}

			}
, 			{
				"patchline" : 				{
					"destination" : [ "obj-14", 0 ],
					"disabled" : 0,
					"hidden" : 0,
					"midpoints" : [ 228.0, 296.0, 204.5, 296.0, 204.5, 233.0, 228.0, 233.0 ],
					"source" : [ "obj-13", 0 ]
				}

			}
, 			{
				"patchline" : 				{
					"destination" : [ "obj-13", 0 ],
					"disabled" : 0,
					"hidden" : 0,
					"source" : [ "obj-14", 0 ]
				}

			}
, 			{
				"patchline" : 				{
					"destination" : [ "obj-19", 0 ],
					"disabled" : 0,
					"hidden" : 0,
					"midpoints" : [ 314.5, 83.0, 293.5, 83.0, 293.5, 11.5, 314.5, 11.5 ],
					"source" : [ "obj-18", 0 ]
				}

			}
, 			{
				"patchline" : 				{
					"destination" : [ "obj-18", 0 ],
					"disabled" : 0,
					"hidden" : 0,
					"source" : [ "obj-19", 0 ]
				}

			}
, 			{
				"patchline" : 				{
					"destination" : [ "obj-3", 0 ],
					"disabled" : 0,
					"hidden" : 0,
					"midpoints" : [ 36.5, 168.0, 15.5, 168.0, 15.5, 96.5, 36.5, 96.5 ],
					"source" : [ "obj-2", 0 ]
				}

			}
, 			{
				"patchline" : 				{
					"destination" : [ "obj-2", 0 ],
					"disabled" : 0,
					"hidden" : 0,
					"source" : [ "obj-3", 0 ]
				}

			}
, 			{
				"patchline" : 				{
					"destination" : [ "obj-39", 0 ],
					"disabled" : 0,
					"hidden" : 0,
					"midpoints" : [ 166.5, 98.0, 142.5, 98.0, 142.5, 37.0, 166.5, 37.0 ],
					"source" : [ "obj-38", 0 ]
				}

			}
, 			{
				"patchline" : 				{
					"destination" : [ "obj-38", 0 ],
					"disabled" : 0,
					"hidden" : 0,
					"source" : [ "obj-39", 0 ]
				}

			}
, 			{
				"patchline" : 				{
					"destination" : [ "obj-1", 0 ],
					"disabled" : 0,
					"hidden" : 0,
					"source" : [ "obj-4", 0 ]
				}

			}
, 			{
				"patchline" : 				{
					"destination" : [ "obj-21", 0 ],
					"disabled" : 0,
					"hidden" : 0,
					"source" : [ "obj-5", 0 ]
				}

			}
, 			{
				"patchline" : 				{
					"destination" : [ "obj-8", 0 ],
					"disabled" : 0,
					"hidden" : 0,
					"midpoints" : [ 36.5, 260.0, 14.5, 260.0, 14.5, 188.5, 36.5, 188.5 ],
					"source" : [ "obj-7", 0 ]
				}

			}
, 			{
				"patchline" : 				{
					"destination" : [ "obj-7", 0 ],
					"disabled" : 0,
					"hidden" : 0,
					"source" : [ "obj-8", 0 ]
				}

			}
 ],
		"dependency_cache" : [ 			{
				"name" : "j.header.maxpat",
				"bootpath" : "~/Documents/GITs/movie/max-package/patchers/lib/j.project",
				"type" : "JSON",
				"implicit" : 1
			}
, 			{
				"name" : "j.ui.mxo",
				"type" : "iLaX"
			}
, 			{
				"name" : "j.remote.mxo",
				"type" : "iLaX"
			}
, 			{
				"name" : "j.view.mxo",
				"type" : "iLaX"
			}
, 			{
				"name" : "j.send.mxo",
				"type" : "iLaX"
			}
, 			{
				"name" : "j.receive.mxo",
				"type" : "iLaX"
			}
, 			{
				"name" : "j.namespace.mxo",
				"type" : "iLaX"
			}
 ],
		"autosave" : 0
	}

}
